<?xml version="1.0" encoding="UTF-8" standalone="no"?>
<!-- Created with Inkscape (http://www.inkscape.org/) -->

<svg
   version="1.1"
   id="svg1"
   width="329"
   height="329"
   viewBox="0 0 329 329"
   sodipodi:docname="air_icon.svg"
   inkscape:version="1.3.2 (091e20e, 2023-11-25, custom)"
   xmlns:inkscape="http://www.inkscape.org/namespaces/inkscape"
   xmlns:sodipodi="http://sodipodi.sourceforge.net/DTD/sodipodi-0.dtd"
   xmlns="http://www.w3.org/2000/svg"
   xmlns:svg="http://www.w3.org/2000/svg">
  <defs
     id="defs1" />
  <sodipodi:namedview
     id="namedview1"
     pagecolor="#505050"
     bordercolor="#eeeeee"
     borderopacity="1"
     inkscape:showpageshadow="0"
     inkscape:pageopacity="0"
     inkscape:pagecheckerboard="0"
     inkscape:deskcolor="#505050"
     inkscape:zoom="0.96200608"
     inkscape:cx="48.85624"
     inkscape:cy="220.89257"
     inkscape:window-width="1600"
     inkscape:window-height="829"
     inkscape:window-x="-8"
     inkscape:window-y="-8"
     inkscape:window-maximized="1"
     inkscape:current-layer="g1" />
  <g
     inkscape:groupmode="layer"
     inkscape:label="Image"
     id="g1">
    <g
       id="g16">
      <g
         id="g30"
         transform="translate(-7.3762239,-1.4901644)">
        <path
           style="fill:#c9d2d8"
           d="m 139.66081,302.98068 c -27.53973,-1.29918 -49.933169,-12.93762 -62.901202,-26.77316 -9.349875,-9.97534 -15.290515,-15.91519 -8.060837,-16.45978 1.02222,-0.077 10.714505,10.29511 22.436788,16.53593 34.867461,18.56307 56.113811,21.63011 83.037231,14.9979 28.95706,-7.13318 43.65552,-39.49203 36.39694,-69.1113 -8.1589,-33.29315 -77.15991,-29.31156 -77.53121,4.14484 -0.268,24.14919 46.37619,40.27309 51.31122,13.82638 0.59803,-3.20485 -8.55032,-6.72665 -11.14173,-5.74141 -16.41571,6.24125 -18.93486,-11.89684 -2.43375,-19.3237 10.93047,-4.91961 30.47781,5.44379 17.32605,29.18846 -13.39219,24.17877 -43.83419,26.23781 -58.15404,2.74375 -12.85531,-21.09125 -7.11416,-29.47439 9.31971,-46.42271 26.16959,-26.98881 56.78391,-26.05039 72.31114,5.22087 28.07649,56.54502 -8.35677,100.17234 -71.91631,97.17393 z m -30.53045,-117.7371 c -2.21603,-4.1407 1.29432,-10.09099 19.02604,-32.25042 C 148.35369,127.7525 150.91137,124.07628 157.02464,111.5 168.95186,86.963228 168.94932,70.764837 157.0162,57.708107 148.67599,48.582579 132.44197,43.306649 120.7895,45.934708 112.72542,47.753451 97.994093,62.433518 98.009769,68.635163 98.055064,86.555069 122.62632,98.501062 131.044,84.695666 134.90293,78.366841 133.62374,75.659732 128.58889,79.5 119.46324,86.460473 109,80.901003 109,69.091767 c 0,-11.549762 10.55861,-16.024691 26.09753,-11.06061 13.22933,4.226257 17.07035,12.264659 13.88537,29.058993 -6.50485,34.29995 -63.886727,22.9499 -67.562244,-13.363718 -3.12728,-30.897095 33.192354,-57.626655 64.171554,-47.227279 45.51425,15.27863 47.65617,75.318797 4.35441,122.058467 -4.46492,4.8194 -12.28112,13.75301 -17.36936,19.85246 -15.27774,18.31401 -20.60692,22.14005 -23.4469,16.8335 z m 82.20547,-21.8108 c -1.14779,-2.99109 14.21795,-8.62754 27.16417,-9.96433 26.60638,-2.74731 43.55694,-16.54373 46.17251,-37.58078 2.43023,-19.546332 -26.54068,-31.36511 -37.56751,-15.32579 -6.98163,10.1553 5.87785,25.09941 15.03422,17.47139 l 2.36078,-1.96673 -3.59501,-0.0333 c -7.14976,-0.0662 -10.215,-7.87711 -5.0989,-12.99321 11.23127,-11.231264 28.9038,7.95206 19.56579,21.23843 -14.73194,20.96099 -47.21405,7.08752 -44.99573,-19.21818 2.55519,-30.300543 37.38297,-39.143297 61.03063,-15.49564 20.35189,20.3519 0.29422,63.80241 -32.90678,71.28525 -16.57559,3.73581 -46.10127,5.35273 -47.16417,2.58286 z"
           id="path29"
           sodipodi:nodetypes="sssssssscssssssssssssssssssssssssssscssssssss" />
        <path
           style="fill:#adc6cc"
           d="M 142.5,306.40149 C 107.34535,302.35203 77.085652,287.5793 66.27201,269.18713 63.258052,264.0609 64.168955,260 68.332782,260 c 1.306613,0 11.955111,5.14263 23.663329,11.42806 29.039419,15.5895 33.832789,17.08651 54.503889,17.02204 42.44898,-0.13238 62.37848,-16.58333 61.88327,-51.08201 -0.41358,-28.81204 -18.65546,-41.69954 -49.62709,-35.0605 -23.44959,5.02663 -28.58568,32.62935 -8.39422,45.11277 C 162.03395,254.6366 179,250.45035 179,240.35414 v -3.20085 l -3.09289,1.54294 c -17.31524,8.63798 -24.68384,-17.96156 -7.55919,-27.28751 24.34288,-13.25693 40.64506,25.77391 19.02004,45.53796 -26.64059,24.348 -69.74072,2.45985 -67.12564,-34.08938 2.40715,-33.64308 50.51767,-55.21073 81.61826,-36.58896 18.04551,10.80492 30.05048,49.39383 22.78228,73.23166 -6.04366,19.82165 -15.62634,30.07046 -37.83206,40.46189 -16.55071,7.7451 -23.81389,8.80065 -44.3108,6.4396 z M 110.2,185.8 c -3.44105,-3.44105 0.969,-11.04495 20.65855,-35.61992 37.66119,-47.00579 45.13027,-74.710185 25.501,-94.58862 -8.3721,-8.478366 -27.61376,-13.302907 -38.5979,-9.677812 C 110.50784,48.307621 98,62.915027 98,68.992486 c 0,20.415187 29.61223,31.384634 35.11773,13.008889 1.94618,-6.495765 0.62355,-7.691099 -4.21205,-3.806668 -9.64347,7.746576 -21.8328,1.190871 -19.49739,-10.486152 C 110.07565,64.371761 113.56863,60 115.56733,60 c 0.67028,0 1.47771,-0.675 1.7943,-1.5 1.49102,-3.885544 23.37426,0.253669 27.2276,5.150098 9.54436,12.127995 5.6096,31.883561 -8.02919,40.312802 -15.75431,9.73669 -46.145686,-2.63447 -52.814986,-21.498941 -3.582445,-10.133139 -1.57654,-27.572733 3.862729,-33.583058 0.943061,-1.04207 2.214156,-2.904074 2.824657,-4.137787 C 94.046134,37.44048 123.38036,23.613496 121.71025,30 c -0.44454,1.699925 -0.0307,2 2.75837,2 2.85167,0 3.36057,-0.395953 3.8861,-3.023603 0.6379,-3.189488 2.6304,-4.57982 5.16793,-3.60608 1.26107,0.48392 1.30832,0.927478 0.27504,2.582029 -0.97706,1.564525 -0.98485,2.260497 -0.0359,3.209451 1.35199,1.351994 6.64936,-2.68751 5.64836,-4.307157 C 139.11965,26.384588 139.59765,26 140.47237,26 c 0.87472,0 1.82382,0.608288 2.10912,1.351751 0.31178,0.812489 1.46946,1.170003 2.90194,0.896168 6.27016,-1.198617 24.18303,12.213546 28.99527,21.710048 14.19684,28.016123 3.48013,68.367593 -26.72694,100.634553 -5.10125,5.44911 -12.92816,14.42585 -17.39313,19.94831 C 118.21177,185.56454 113.51773,189.11773 110.2,185.8 Z M 124.32722,38.5 c -0.37069,-2.145442 -3.17633,-2.918713 -5.69641,-1.570006 -1.37467,0.735699 -3.42896,1.094547 -4.5651,0.79744 C 112.69237,37.368297 112,37.664472 112,38.611083 c 0,1.108445 1.38445,1.364598 6.25,1.156381 3.47282,-0.148617 6.17323,-0.711814 6.07722,-1.267464 z M 129,37 c 0,-0.55 -0.42344,-1 -0.94098,-1 -0.51754,0 -1.2191,0.45 -1.55902,1 -0.33992,0.55 0.0835,1 0.94098,1 C 128.29844,38 129,37.55 129,37 Z m 63.39398,126.58432 c -1.22895,-3.20261 11.10235,-7.83932 25.60602,-9.62817 30.02277,-3.70292 47,-18.48393 47,-40.91994 0,-21.063525 -34.22454,-28.707318 -40.13952,-8.96486 -2.16796,7.23599 4.31355,16.32865 11.63952,16.32865 4.04188,0 10.1764,-3.64079 7,-4.15445 -7.49425,-1.2119 -9.5,-2.84354 -9.5,-7.72808 0,-10.176814 15.1046,-10.607251 21.74193,-0.61959 7.43357,11.18583 -4.99347,27.17318 -20.0599,25.807 -22.57108,-2.04667 -32.57864,-26.19756 -18.9432,-45.714951 10.2032,-14.604572 32.31468,-15.004915 50.96633,-0.922779 23.55333,17.78294 7.67228,62.49024 -25.70516,72.36351 -14.17249,4.19231 -48.48856,7.0657 -49.60602,4.15366 z"
           id="path28" />
        <path
           style="fill:#a6bbc4"
           d="m 143.5,306.38626 c -24.54558,-2.85857 -40.32584,-8.00444 -58.041713,-18.92714 -11.548675,-7.12032 -22.422823,-19.84477 -20.943162,-24.50677 1.444842,-4.5523 4.538458,-3.57674 28.176157,8.88524 29.820978,15.72184 32.971668,16.68419 54.308718,16.58811 24.2166,-0.10904 39.63519,-4.42193 47.54494,-13.29927 20.4147,-22.91202 18.47491,-59.89274 -3.73599,-71.2239 -12.05568,-6.15035 -35.47133,-3.942 -44.27822,4.17591 -11.74886,10.82972 -11.87952,26.69631 -0.30034,36.47078 C 158.72033,255.09251 179,252.24211 179,239.9433 c 0,-2.82047 -0.18613,-3.03371 -1.61378,-1.84887 -8.65543,7.18337 -22.14605,-4.20204 -18.40619,-15.53392 8.23263,-24.94513 41.67312,-12.4032 38.49995,14.43949 -1.01887,8.61894 -7.06996,11.93053 -11.76273,16.70683 -21.22904,21.60691 -68.31229,8.80642 -65.49961,-30.5046 3.16369,-44.21674 72.9577,-60.15816 95.43939,-21.79899 26.29481,44.86527 6.03399,91.39887 -45.5272,104.56361 -9.06393,2.31423 -10.20531,2.3322 -26.62983,0.41941 z M 109.97366,185.46827 c -3.14026,-3.7838 0.75828,-9.98311 26.31557,-41.84599 30.2085,-37.66165 38.03013,-65.4588 23.73388,-84.347405 -3.63295,-4.799955 -3.7329,-5.117504 -1.77215,-5.630251 1.74748,-0.456978 1.87415,-0.788954 0.79646,-2.087491 -1.05359,-1.269495 -0.96437,-2.212151 0.50168,-5.300614 0.98074,-2.066086 1.97091,-3.194019 2.20037,-2.506519 0.50503,1.513175 3.45609,1.644442 4.88331,0.217217 8.26041,-8.260409 17.54171,35.764742 11.30566,53.627557 -1.13386,3.247876 -2.65775,7.705226 -3.38643,9.905226 -4.67385,14.11112 -13.31097,28.18481 -24.85515,40.5 -4.38231,4.675 -12.63048,14.19633 -18.32926,21.1585 -14.2612,17.42286 -18.06408,20.322 -21.39394,16.30977 z M 171,58.984687 c 1.33333,-0.875277 1.33333,-1.094097 0,-1.969374 -2.24832,-1.475927 -3,-1.229203 -3,0.984687 0,2.21389 0.75168,2.460614 3,0.984687 z m -5.27083,-8.588854 c -0.3323,-0.332291 -1.1948,-0.367818 -1.91667,-0.07895 -0.79773,0.319226 -0.56078,0.556183 0.60417,0.604167 1.05416,0.04342 1.64479,-0.192928 1.3125,-0.52522 z m 26.60666,113.036947 c -1.1743,-3.06017 11.64963,-7.61449 26.73348,-9.49418 C 247.92005,150.34333 265,135.20231 265,113.22198 c 0,-21.283148 -34.19395,-29.090596 -40.49251,-9.24559 -3.4125,10.75185 11.85803,21.90712 19.0739,13.93367 1.6652,-1.84002 1.61784,-1.91006 -1.29154,-1.91006 -7.49739,0 -11.21478,-8.55409 -5.62737,-12.94915 10.828,-8.517305 26.80362,7.36875 19.42175,19.31286 C 243.16853,143.26176 211,133.17089 211,108.22134 211,78.834344 238.00234,67.567564 265.17251,85.617753 291.97307,103.4224 276.618,149.67749 240.5,159.94039 c -13.15393,3.73768 -47.12481,6.20091 -48.16417,3.49239 z M 117.5,106.86928 C 103.98571,104.80289 90.639525,95.953519 85.72112,85.797862 82.896231,79.964954 81.146618,71.604125 83.29094,74.18483 83.955923,74.98514 85.85,76.465614 87.5,77.474772 l 3,1.834831 -2,-2.374168 c -1.1,-1.305792 -3.061439,-3.24661 -4.358753,-4.312927 -4.094344,-3.365314 0.133713,-24.882182 4.555891,-23.185233 0.775432,0.297561 1.132558,0.09618 0.795783,-0.448729 -0.546431,-0.884144 1.595878,-1.47868 3.862339,-1.07188 0.470393,0.08443 1.482893,-0.367382 2.25,-1.004024 C 97.23375,45.561115 97.492733,41 95.940983,41 c -0.582459,0 -0.749807,0.500312 -0.371885,1.111803 0.745819,1.206761 -1.228585,2.848288 -3.455462,2.872884 -1.656209,0.01829 2.284819,-4.11145 5.570623,-5.837371 2.755341,-1.447286 6.599221,-1.612179 4.344701,-0.186376 -0.80907,0.511673 -1.25907,1.067282 -1,1.234687 C 103.9435,42.078924 106.41224,43 108.54545,43 c 1.56987,0 2.31527,0.416341 1.91242,1.068174 -0.3631,0.587495 -1.21796,0.854129 -1.8997,0.59252 -0.68175,-0.26161 -1.8268,-0.112704 -2.54457,0.330901 -1.64203,1.014829 -0.46994,4.397495 1.28975,3.722239 3.14516,-1.206909 0.8527,4.326109 -3.80335,9.179682 -10.040042,10.465964 -6.843135,23.915097 7.37101,31.009238 10.68587,5.333218 16.13456,4.359344 21.12899,-3.7765 2.42592,-3.951783 4.98416,-5.418922 5.01531,-2.876254 0.0103,0.840225 0.25616,0.898268 0.75,0.177058 0.40408,-0.590117 1.59744,-1.392369 2.65191,-1.782782 1.48418,-0.549511 1.64794,-0.979116 0.72504,-1.902018 -0.9229,-0.922902 -1.64746,-0.907846 -3.2079,0.06666 -2.64476,1.651681 -3.56868,0.953841 -4.36631,-3.297873 C 133.07696,72.893301 132.4031,72 130.9195,72 129.23951,72 129.09632,71.688545 130,70 c 0.5887,-1.1 1.71541,-2 2.5038,-2 0.86332,0 1.2045,-0.596589 0.85783,-1.5 -0.31659,-0.825 -0.0509,-1.5 0.5904,-1.5 0.6413,0 0.88789,-0.45 0.54797,-1 -0.33992,-0.55 0.13167,-1 1.04797,-1 1.12118,0 1.46381,-0.526923 1.04771,-1.611245 -0.50807,-1.324012 -0.12604,-1.495917 2.14302,-0.964307 3.11522,0.729858 8.63077,6.168722 7.73141,7.623922 C 145.53873,69.555361 143,69.154172 143,67.5 c 0,-3.38674 -1.51727,-1.185903 -1.72708,2.505181 -0.1249,2.197151 -0.006,3.994819 0.26357,3.994819 0.85651,0 4.93758,-2.46428 5.60602,-3.3851 1.77139,-2.44019 2.7509,3.551785 1.85898,11.372003 C 146.95025,99.972014 134.85804,109.5234 117.5,106.86928 Z m -4.5,-5.3341 c 0,-0.25565 -1.0125,-1.00432 -2.25,-1.663716 -2.04022,-1.087124 -2.12204,-1.043787 -0.87756,0.464816 1.27783,1.54902 3.12756,2.25809 3.12756,1.1989 z M 104.5,93 c -1.00159,-1.106744 -2.04607,-1.787262 -2.32107,-1.512262 -0.275,0.275 0.31948,1.405518 1.32107,2.512262 1.00159,1.106744 2.04607,1.787262 2.32107,1.512262 C 106.09607,95.237262 105.50159,94.106744 104.5,93 Z M 99,87.5 c -0.706751,-0.851583 -1.510001,-1.323332 -1.785001,-1.048332 -0.275,0.275 0.07825,1.196749 0.785001,2.048332 0.706751,0.851583 1.510001,1.323332 1.785001,1.048332 C 100.06,89.273332 99.706751,88.351583 99,87.5 Z M 135.28975,71 c -0.28766,-1.1 -0.93636,-2 -1.44157,-2 -0.50746,0 -0.43952,0.895077 0.15182,2 0.5887,1.1 1.23741,2 1.44156,2 0.20416,0 0.13585,-0.9 -0.15181,-2 z M 96.569684,58.804673 c 2.001602,-1.75743 4.013736,-4.11993 4.471406,-5.25 0.79512,-1.963279 0.83496,-1.950884 0.89552,0.27866 0.0764,2.814017 2.56339,2.409776 2.56339,-0.416666 0,-2.478755 -4.44677,-3.263175 -5.70931,-1.007135 C 98.301152,53.284289 96.789407,54 95.431258,54 c -2.113316,0 -2.38173,0.349156 -1.861585,2.421575 0.489149,1.948927 0.05371,2.721841 -2.230948,3.959963 -2.601622,1.409894 -2.653701,1.541731 -0.623521,1.578424 1.218362,0.02202 3.852878,-1.397859 5.85448,-3.155289 z m 16.486096,20.251104 c -1.80559,-1.805582 -3.83958,-8.605307 -2.86549,-9.579404 1.33275,-1.332747 4.77225,2.824691 4.2054,5.083202 -0.6325,2.520095 2.68969,3.729335 4.07732,1.484099 0.32507,-0.525979 1.26839,-0.696403 2.09626,-0.378719 0.82787,0.317684 2.29912,-0.140863 3.26945,-1.018994 1.6707,-1.511968 8.15496,-1.908967 8.15929,-0.499553 0.016,5.206359 -14.8042,9.0474 -18.94223,4.909369 z M 120.5,69.039848 c -1.85143,-0.758698 -1.78668,-0.903646 0.87164,-1.95121 2.13905,-0.842937 3.22046,-0.842128 4.23899,0.0032 2.84384,2.36018 -0.75623,3.732431 -5.11063,1.948036 z m -5.91705,-4.905633 c -0.43077,-0.697003 -0.51316,-1.537338 -0.18309,-1.867413 0.89497,-0.894961 1.87077,0.421303 1.38739,1.871444 -0.33872,1.016175 -0.57427,1.015386 -1.2043,-0.004 z m 9.01315,0.02128 c -1.64852,-2.667355 0.65048,-7.310419 3.29152,-6.647561 3.63978,0.913525 3.73465,1.181641 1.48457,4.195383 -2.24375,3.005249 -3.90662,3.859015 -4.77609,2.452178 z M 144,47.430972 c -3.575,-1.306239 -6.88787,-2.516868 -7.36193,-2.690286 -0.47406,-0.173419 0.26323,-1.398242 1.63844,-2.72183 l 2.50037,-2.406523 -2.38844,-1.878746 c -2.86296,-2.252004 -3.01103,-3.860172 -0.5597,-6.078599 C 140.26432,29.450823 149,29.329626 149,31.5 149,32.325 148.37044,33 147.60097,33 146.28737,33 142,39.912802 142,42.030794 c 0,2.195352 2.17976,0.751989 3.17474,-2.102202 0.59103,-1.695436 2.1357,-3.476324 3.44798,-3.975249 2.05879,-0.782752 2.90457,-2.529912 2.50515,-5.175 -0.16702,-1.106052 4.54413,0.919283 7.88657,3.390455 3.13395,2.317028 4.04854,4.453082 1.48556,3.469576 -2.38704,-0.915995 -1.73619,0.942086 0.75,2.141131 1.2375,0.596824 1.66515,1.115591 0.95034,1.152815 -0.71481,0.03722 -2.66798,-0.639906 -4.34037,-1.504733 -2.91772,-1.508812 -3.01532,-1.492418 -2.413,0.40532 0.4668,1.470759 -0.17224,2.547346 -2.49294,4.199829 -2.14232,1.525461 -2.96713,2.809161 -2.63096,4.094681 0.26933,1.029921 0.41932,1.828922 0.33331,1.775559 -0.086,-0.05336 -3.08138,-1.165765 -6.65638,-2.472004 z m -18.5,-5.336038 c 4.97326,-2.873298 7.5,-2.731625 7.5,0.420522 0,1.749149 -2.33036,2.486001 -7.83179,2.476383 L 120.5,44.983679 Z m 32.3125,0.221952 c 0.72187,-0.288871 1.58437,-0.253344 1.91667,0.07895 0.33229,0.332292 -0.25834,0.568641 -1.3125,0.52522 -1.16495,-0.04798 -1.4019,-0.284941 -0.60417,-0.604167 z M 164.40499,39.75 162.5,37.5 l 2.25,1.904988 C 166.86444,41.195206 167.45524,42 166.65499,42 c -0.18976,0 -1.20226,-1.0125 -2.25,-2.25 z M 105.5,34.473914 c 4.71413,-2.903512 7.07924,-3.258745 3.52796,-0.52989 -1.35962,1.044753 -2.79103,1.702407 -3.1809,1.461452 -0.38988,-0.240955 -0.99152,0.01924 -1.33698,0.578212 -0.34546,0.558972 -1.16406,1.002268 -1.8191,0.985102 C 102.03594,36.95163 103.3,35.828931 105.5,34.473914 Z"
           id="path27"
           sodipodi:nodetypes="sssssssssssssssssssssssssssssssssssssssssssssssssssssssscssssssssssssssssssssssssssssssssssssssssssssssssssssssssssssssscssssssssssssssssscsssssssssssssscssssssssssssssssssssscssssssscsssssssss" />
        <path
           style="fill:#98b6c3"
           d="m 153.5,307.38408 c -1.65,-0.23223 -8.625,-1.11046 -15.5,-1.95162 -24.76837,-3.03041 -49.809185,-13.43753 -63.299476,-26.30765 -6.01096,-5.73463 -11.012359,-13.56695 -10.232438,-16.02426 1.475943,-4.65028 4.554353,-3.7669 24.733276,7.09749 38.601708,20.78325 53.364358,23.42783 85.406478,15.29968 22.60767,-5.73491 33.88839,-21.77308 33.75999,-47.99772 -0.14362,-29.33589 -18.37717,-42.25418 -49.86783,-35.33088 -24.98953,5.49401 -28.61379,36.30174 -5.5,46.75234 7.98848,3.61188 19.9166,2.35919 24.12334,-2.53344 2.59998,-3.0239 3.5172,-9.85815 1.19712,-8.91976 -5.64155,2.2818 -7.70244,2.68266 -10.80224,2.10114 -12.7167,-2.38567 -11.45917,-22.06275 1.82084,-28.49149 23.5793,-11.41454 38.60948,25.35624 18.43957,45.11174 -30.78896,30.15638 -82.52009,-7.95438 -63.37606,-46.68969 15.35345,-31.0656 62.65149,-40.39303 84.79326,-16.72168 21.71599,23.21615 22.79802,70.18002 2.08958,90.69484 -14.53797,14.40203 -42.6622,26.03953 -57.78541,23.91096 z M 110.57282,185.67691 c -2.48795,-1.81924 -1.40713,-6.23961 3.14299,-12.85433 3.97998,-5.78587 27.84598,-35.76731 29.70974,-37.32258 2.06751,-1.7253 9.04934,-12.70743 12.63508,-19.87447 2.13128,-4.25991 4.58036,-7.58637 6.43937,-8.74626 2.09816,-1.30911 2.47393,-1.87292 1.25,-1.87553 -0.9625,-0.002 -1.75,-0.65322 -1.75,-1.44704 0,-1.69024 3.94192,-4.710629 5.16297,-3.95598 C 167.62334,99.885242 168,99.458605 168,98.652637 c 0,-0.951363 -0.67172,-1.28974 -1.91491,-0.964638 -2.07098,0.541575 -1.77112,-2.807703 1.06889,-11.93866 C 168.4164,81.690525 166.76845,69.001982 164.58901,66 c -0.94223,-1.297822 -0.85595,-1.317351 0.6401,-0.144893 1.30344,1.021508 2.45186,1.103155 4.66499,0.331655 1.61473,-0.562899 3.16059,-0.798738 3.43524,-0.524087 0.27465,0.274651 1.39293,0.02115 2.48505,-0.563341 2.79477,-1.495714 3.34701,0.319697 3.93425,12.933348 0.96664,20.763089 -10.77699,49.037308 -28.05031,67.534518 -3.56074,3.81304 -10.60647,11.8828 -15.65715,17.9328 -17.35951,20.79419 -21.92389,24.76868 -25.46836,22.17691 z M 177.72784,79 C 178.42753,79 179,78.644177 179,78.209281 c 0,-0.434895 -2.07531,-0.772395 -4.61181,-0.75 -4.60142,0.04063 -4.61258,0.04924 -4.95543,3.826783 l -0.34362,3.786063 3.68328,-3.036063 C 174.79822,80.366229 177.02816,79 177.72784,79 Z m 14.60799,84.43278 c -1.16038,-3.02392 12.18687,-7.67526 26.78412,-9.33391 34.67068,-3.93956 56.74088,-31.19285 42.28264,-52.21254 -9.50376,-13.816766 -34.21681,-12.054478 -36.97286,2.63653 -2.01919,10.76324 10.07588,20.6046 17.82027,14.49978 3.61792,-2.85197 3.46894,-3.62264 -0.70026,-3.62264 -7.12651,0 -10.02101,-7.01964 -4.97513,-12.06552 7.45013,-7.45013 23.79481,4.08888 21.085,14.88559 -6.77572,26.99664 -48.52338,15.60622 -46.38591,-12.65592 2.30611,-30.492121 35.80146,-38.648986 59.87061,-14.579835 18.75709,18.757085 1.18509,59.404875 -29.64431,68.573635 -13.13755,3.90715 -48.09453,6.66225 -49.16417,3.87483 z m -74.80884,-57.38911 c -0.32507,-0.52598 -1.26839,-0.6964 -2.09626,-0.37871 -0.82787,0.31768 -2.3601,-0.19606 -3.40496,-1.14164 -1.04486,-0.94558 -2.2656,-1.503 -2.71276,-1.23869 -0.44715,0.2643 -1.93801,0.0165 -3.31301,-0.55068 -1.375,-0.56717 -3.17441,-1.16595 -3.9987,-1.33061 -0.82428,-0.16465 -2.2624,-1.24251 -3.195817,-2.39523 C 97.872067,97.855389 96.835039,97.044497 96.500978,97.206127 95.125914,97.871429 85.684012,87.026105 86.186289,85.358286 86.328452,84.886229 85.602801,83.239394 84.573731,81.698653 82.233284,78.1945 83.756693,75.742449 87.011391,77.775041 89.667162,79.433598 90.508204,79.317275 89,77.5 88.058945,76.366098 88.046493,76 88.948984,76 c 0.65663,0 1.828814,-0.634941 2.604854,-1.410981 2.062352,-2.062352 5.496733,-0.742397 6.645961,2.554279 C 98.747517,78.714484 99.571305,80 100.03044,80 c 0.99491,0 2.46217,3.976263 2.12177,5.75 -0.13193,0.6875 0.69777,1.25 1.84379,1.25 2.82207,0 10.21119,3.85575 9.52301,4.969244 -0.3034,0.490908 -0.11395,1.163065 0.421,1.493683 0.53496,0.330618 0.68917,1.339836 0.34271,2.242707 -0.48214,1.25644 -0.21809,1.483543 1.12546,0.967975 C 116.37365,96.303124 117.80177,96 118.58179,96 119.3618,96 120,95.325 120,94.5 c 0,-0.933333 0.94444,-1.5 2.5,-1.5 2,0 2.5,0.5 2.5,2.5 0,1.555556 0.56667,2.5 1.5,2.5 0.825,0 1.5,-0.689501 1.5,-1.532224 0,-0.842724 1.0125,-1.9392 2.25,-2.436614 2.07305,-0.833263 2.09271,-0.911766 0.25,-0.998184 -1.84157,-0.08637 -1.86138,-0.174536 -0.25,-1.113077 C 131.2125,91.359296 132,90.24798 132,89.45031 132,88.652639 132.45,88 133,88 c 0.55,0 1,-0.571899 1,-1.270886 0,-1.755084 8.37886,-6.181445 10.30327,-5.44298 2.98472,1.145346 4.10436,4.712715 1.48191,4.721668 -3.17567,0.01084 -5.43137,4.652329 -2.68464,5.524108 1.03486,0.328452 2.37276,0.29361 2.97311,-0.07743 0.60035,-0.371037 0.36021,0.73963 -0.53364,2.468149 -0.94687,1.831046 -2.08928,2.855937 -2.73711,2.455556 -0.62518,-0.386385 -0.83361,-0.236897 -0.47614,0.341497 0.95697,1.548418 -3.76492,6.123128 -8.57259,8.305378 -4.50611,2.04538 -15.17857,2.7153 -16.22718,1.01861 z m -5.52329,-5.53973 C 110.714,99.131112 109.43831,98.228353 109.16885,98.497812 108.505,99.161669 112.05198,103 113.3293,103 c 0.56063,0 -0.0359,-1.12323 -1.3256,-2.49606 z M 120.5,98 c 0.33992,-0.55 0.14148,-1 -0.44098,-1 C 119.47656,97 119,97.45 119,98 c 0,0.55 0.19844,1 0.44098,1 0.24254,0 0.7191,-0.45 1.05902,-1 z M 108,96.44462 C 108,95.405069 95.892196,84 94.788591,84 93.468049,84 95.917963,86.948878 102,92.68013 c 4.20466,3.962157 6,5.088578 6,3.76449 z m 3.02006,-1.920454 C 109.57997,92.788972 108,92.514749 108,94 c 0,0.55 0.675,1 1.5,1 0.825,0 1.5,0.525 1.5,1.166667 0,0.641666 0.28913,0.877541 0.6425,0.524166 0.35338,-0.353376 0.0733,-1.328376 -0.62244,-2.166667 z M 93.5,82 c -0.339919,-0.55 -1.068034,-1 -1.618034,-1 -0.55,0 -0.721885,0.45 -0.381966,1 0.339919,0.55 1.068034,1 1.618034,1 0.55,0 0.721885,-0.45 0.381966,-1 z m 20,-3 c -0.33992,-0.55 0.30852,-1 1.44098,-1 1.13246,0 2.05902,0.45 2.05902,1 0,0.55 -0.64844,1 -1.44098,1 -0.79254,0 -1.7191,-0.45 -2.05902,-1 z m 9.5,-0.924396 c 0,-1.669033 2.71178,-3.697154 3.66667,-2.742271 0.7204,0.720409 -0.82386,3.513007 -2.24399,4.057963 C 123.50641,79.742902 123,79.274574 123,78.075604 Z m 5,-0.968615 c 0,-0.491156 0.73865,-1.176458 1.64144,-1.522892 1.37248,-0.526667 1.43434,-0.380336 0.37756,0.893011 -1.44013,1.735245 -2.019,1.91584 -2.019,0.629881 z m 13.45888,-0.17352 c -0.36253,-0.586592 -0.50159,-1.149092 -0.30902,-1.25 0.19258,-0.100908 1.38094,-0.761214 2.64082,-1.467346 C 146.122,72.909466 148,73.311856 148,75.118034 c 0,0.55 -0.45318,0.71992 -1.00706,0.377601 -0.55389,-0.34232 -1.27703,0.08112 -1.60699,0.940983 -0.68685,1.789905 -2.95088,2.076349 -3.92707,0.496851 z M 84.097481,71.603764 c -2.939086,-3.128514 -0.261407,-21.059178 2.85706,-19.131859 0.408414,0.252414 1.733996,-0.464718 2.945737,-1.593627 1.211741,-1.128908 2.806987,-1.820853 3.544991,-1.537654 C 95.09328,49.973025 99,45.995732 99,43.685549 c 0,-2.448669 1.70516,-2.065161 3.5869,0.806731 2.20258,3.361572 1.15566,5.882824 -2.17815,5.245525 -1.679374,-0.321032 -2.760032,0.01405 -3.126667,0.969481 -0.308156,0.803041 -1.492417,1.804894 -2.631692,2.226339 -1.427083,0.527913 -2.083693,1.668346 -2.1109,3.66632 C 92.506785,59.001735 92.113422,59.459073 90.25,59.26179 88.59124,59.086175 88,59.546028 88,61.01179 88,62.537906 88.672385,63 90.893011,63 c 5.28651,0 5.078203,4.259104 -0.413158,8.44757 -4.053047,3.091409 -3.634503,3.081166 -6.382372,0.156194 z M 137.69394,69.551082 C 136.12781,67.98495 135.30073,64 136.54181,64 c 1.70297,0 4.13364,3.702829 3.52672,5.372511 -0.63966,1.759736 -0.78267,1.770491 -2.37459,0.178571 z M 163.75,61.310674 c -1.602,-0.418647 -2.27428,-2.717654 -1.8016,-6.161026 0.10195,-0.742694 -0.28958,-1.056822 -0.87006,-0.698062 -0.64533,0.398831 -0.82022,0.03934 -0.4501,-0.925172 0.89925,-2.343425 3.37176,0.06704 3.37176,3.28716 0,2.473292 0.0545,2.496597 1.4682,0.627556 1.38877,-1.836127 1.46991,-1.765325 1.5,1.30887 0.0175,1.7875 -0.3057,3.197799 -0.7182,3.133999 -0.4125,-0.0638 -1.5375,-0.321797 -2.5,-0.573325 z M 173.11815,57 c -0.99366,-3.31652 -1.63703,-4 -3.76528,-4 -1.98696,0 -2.42207,-0.377287 -1.92599,-1.67005 0.74377,-1.938244 -0.9631,-3.292765 -4.17688,-3.314637 C 162.0125,48.006891 161,47.55 161,47 c 0,-0.55 0.92958,-1 2.06574,-1 1.13616,0 2.86659,-0.428598 3.8454,-0.952441 2.07338,-1.109643 6.08886,1.188624 6.08886,3.484975 0,0.78052 0.89832,2.892503 1.99626,4.693296 1.09795,1.800794 1.99795,4.28667 2,5.52417 0.006,3.71255 -2.59288,2.539729 -3.87811,-1.75 z M 144.66667,47.333333 C 143.39911,46.065782 143.98137,42 145.43045,42 c 0.78675,0 1.57425,-1.010074 1.75,-2.24461 0.19713,-1.384685 1.57978,-2.838127 3.60905,-3.793834 1.80922,-0.852073 2.93422,-1.928606 2.5,-2.392295 -0.43423,-0.463689 -0.14263,-0.640838 0.648,-0.393666 0.79062,0.247173 1.6365,1.046418 1.87973,1.776101 0.24935,0.748033 -0.0204,1.040784 -0.6184,0.671188 -1.46838,-0.907506 -2.66216,1.313787 -1.38984,2.586103 1.40221,1.402214 0.44457,3.531304 -3.12098,6.93873 -2.95794,2.826768 -4.73512,3.471844 -6.02134,2.185616 z m 3.0625,-0.9375 c -0.3323,-0.332291 -1.1948,-0.367818 -1.91667,-0.07895 -0.79773,0.319226 -0.56078,0.556183 0.60417,0.604167 1.05416,0.04342 1.64479,-0.192928 1.3125,-0.52522 z m -10.3973,-10.973374 c -0.88197,-2.298381 1.82235,-4.494229 6.01478,-4.883875 4.28838,-0.398563 4.3103,-0.346177 1.46529,3.501909 -2.40062,3.247019 -6.47549,3.999863 -7.48007,1.381966 z"
           id="path26" />
        <path
           style="fill:#91abb8"
           d="m 153.5,307.38408 c -1.65,-0.23223 -8.625,-1.11046 -15.5,-1.95162 -24.76837,-3.03041 -49.809185,-13.43753 -63.299476,-26.30765 -6.01096,-5.73463 -11.012359,-13.56695 -10.232438,-16.02426 1.475943,-4.65028 4.554353,-3.7669 24.733276,7.09749 38.601708,20.78325 53.364358,23.42783 85.406478,15.29968 22.60767,-5.73491 33.88839,-21.77308 33.75999,-47.99772 -0.14362,-29.33589 -18.37717,-42.25418 -49.86783,-35.33088 -24.98953,5.49401 -28.61379,36.30174 -5.5,46.75234 7.98848,3.61188 19.9166,2.35919 24.12334,-2.53344 2.59998,-3.0239 3.5172,-9.85815 1.19712,-8.91976 -5.64155,2.2818 -7.70244,2.68266 -10.80224,2.10114 -12.7167,-2.38567 -11.45917,-22.06275 1.82084,-28.49149 23.5793,-11.41454 38.60948,25.35624 18.43957,45.11174 -30.31354,29.69073 -81.9039,-7.27053 -63.88726,-45.77122 14.71066,-31.43594 62.75087,-41.46494 85.15398,-17.77696 21.78985,23.03955 22.95561,70.30978 2.24006,90.83165 -14.53797,14.40203 -42.6622,26.03953 -57.78541,23.91096 z M 110.49215,185.61792 c -3.98516,-2.91403 0.0607,-9.81056 20.27108,-34.55391 5.13751,-6.28979 10.1873,-12.58979 11.22176,-14 1.50868,-2.05669 2.13154,-2.31668 3.14792,-1.31401 1.9233,1.89736 3.03622,1.49368 1.71493,-0.62205 -1.38576,-2.21895 2.49657,-9.5935 4.62127,-8.77818 2.22085,0.85222 6.5083,-3.6473 4.90368,-5.14624 C 155.24026,120.14558 155,120.25935 155,121.85358 c 0,1.06285 -0.65567,2.18405 -1.45705,2.49157 -1.8135,0.6959 -1.1135,-1.29259 3.55375,-10.09515 2.8072,-5.29445 3.72476,-6.25 6.00158,-6.25 1.58825,0 2.9499,-0.68318 3.3286,-1.67005 0.69887,-1.82123 -1.20775,-3.57197 -3.12595,-2.87037 -0.6953,0.2543 -0.97563,-0.14372 -0.66724,-0.94737 0.2925,-0.76226 1.05709,-1.22692 1.69907,-1.03259 4.88485,1.47869 6.59203,1.48795 6.03361,0.0328 -0.49551,-1.29128 1.66946,-2.208409 2.97994,-1.26237 0.19046,0.1375 1.09046,-0.3676 2,-1.122445 4.57517,-3.797061 -5.44746,21.485915 -12.75153,32.166855 -1.42713,2.08692 -2.59478,4.11528 -2.59478,4.50745 0,0.39218 -2.93374,3.85969 -6.51943,7.70559 -3.58569,3.8459 -10.85578,12.16755 -16.15576,18.49255 -18.58252,22.17639 -23.2208,26.25897 -26.83266,23.61792 z m 52.63012,-67.81642 c -1.03919,-2.80922 -2.93429,-3.45496 -3.76746,-1.28373 -0.65115,1.69686 1.03746,3.43768 3.36297,3.46692 0.83535,0.0105 0.96237,-0.6751 0.40449,-2.18319 z m 29.22281,45.65537 c -1.14102,-2.97345 13.11348,-7.8913 27.15492,-9.36854 26.72337,-2.81146 42.4599,-15.65286 45.50654,-37.13444 2.84432,-20.055063 -24.7389,-33.944994 -37.43831,-18.852606 -9.11118,10.828016 3.92336,29.402086 14.68177,20.921356 3.68554,-2.90527 3.46403,-3.84493 -0.87738,-3.72186 -6.72211,0.19054 -9.72405,-7.04026 -4.91807,-11.84623 10.25763,-10.257637 26.68553,7.64827 18.39084,20.04545 -12.54385,18.74795 -43.72696,8.6432 -43.82343,-14.20078 -0.14211,-33.653266 38.62445,-43.895744 62.1436,-16.418903 15.94434,18.627373 -2.79774,58.092253 -31.66556,66.677633 -13.06174,3.8846 -48.09412,6.66334 -49.15492,3.89892 z m 28.10423,-63.18536 C 220.71766,99.572181 220.29048,99 219.5,99 c -0.91267,0 -1.21085,-0.589929 -0.81698,-1.616334 0.52346,-1.36413 0.29508,-1.442313 -1.46367,-0.501061 -2.60484,1.39407 -3.90193,5.077505 -2.16584,6.150465 1.40596,0.86893 4.63726,-0.78484 5.3958,-2.76156 z M 216,99.940983 c 0,-1.132459 0.45,-1.780902 1,-1.440983 0.55,0.339919 1,1.266476 1,2.05902 0,0.79254 -0.45,1.44098 -1,1.44098 -0.55,0 -1,-0.92656 -1,-2.059017 z m -99.75,4.475447 c -3.97349,-3.13158 -4.17434,-4.537743 -0.5,-3.50054 1.5125,0.42695 3.3125,0.58303 4,0.34686 0.6875,-0.23618 1.25,0.30964 1.25,1.21293 0,0.94621 -0.46928,1.35232 -1.10713,0.95811 -0.74503,-0.46045 -0.88652,0.0108 -0.43262,1.44098 0.84711,2.66898 0.73808,2.65342 -3.21025,-0.45834 z m 8.80215,1.63697 c -1.12433,-0.71132 -0.79668,-1.07942 1.4664,-1.64741 1.60284,-0.40229 3.37937,-1.11455 3.94785,-1.5828 4.00954,-3.302602 8.46514,-5.557265 8.8977,-4.502494 0.34059,0.830488 0.79741,0.735632 1.54446,-0.320696 0.58345,-0.825 1.06771,-1.022353 1.07613,-0.438561 0.0642,4.452701 -12.97817,10.993681 -16.93254,8.491961 z m -20.38399,-4.47578 c -0.33406,-0.87053 -1.34549,-1.21325 -2.60699,-0.88337 C 100.88839,101.00094 100,100.75198 100,100.11663 100,99.502484 100.81,99 101.8,99 c 0.99,0 2.3643,-0.5625 3.05399,-1.25 1.26959,-1.265543 5.09142,2.28811 5.10846,4.75 0.004,0.55 -0.42929,0.325 -0.96245,-0.5 -0.64625,-1 -0.97448,-1.08333 -0.98469,-0.25 -0.021,1.7177 -2.6743,1.58105 -3.34715,-0.17238 z m 24.33033,-1.954078 c 1.37417,-0.802939 2.68667,-1.271711 2.91667,-1.041715 0.62088,0.62088 -0.13014,1.093796 -2.91516,1.835663 l -2.5,0.66594 z M 144,95 c 0.5887,-1.1 1.29537,-2 1.57037,-2 0.275,0 0.0183,0.9 -0.57037,2 -0.5887,1.1 -1.29537,2 -1.57037,2 -0.275,0 -0.0183,-0.9 0.57037,-2 z m 33.01531,1.230948 c -0.0102,-0.844826 -0.83202,-1.06407 -2.45847,-0.655857 -3.79518,0.952527 -4.68184,-0.337167 -2.12703,-3.093852 2.97678,-3.212007 6.57603,-3.338979 6.55488,-0.231239 -0.0163,2.394186 -1.94156,6.285975 -1.96938,3.980948 z M 97.25,93.541864 C 97.25,92.107067 97.823155,91 98.565983,91 c 2.223597,0 2.482247,1.646377 0.535436,3.408217 C 97.345663,95.997154 97.25,95.952389 97.25,93.541864 Z M 165.5,94 c 0.33992,-0.55 0.81648,-1 1.05902,-1 0.24254,0 0.44098,0.45 0.44098,1 0,0.55 -0.47656,1 -1.05902,1 -0.58246,0 -0.7809,-0.45 -0.44098,-1 z M 91.090721,90.909917 C 88.725196,89.964101 86.094495,87.262582 86.031803,85.714816 86.014312,85.282965 86.9,85.411298 88,86 c 1.1,0.588702 2.006891,1.842035 2.015313,2.785184 0.01313,1.470185 0.151214,1.50083 0.967954,0.214816 0.60668,-0.955259 0.601119,-1.621054 -0.01531,-1.833333 C 90.435579,86.983333 90,86.195833 90,85.416667 90,84.6375 89.373145,84 88.606989,84 c -0.766156,0 -1.68994,-0.773784 -2.052853,-1.719519 -0.362913,-0.945736 -0.339962,-1.39964 0.051,-1.008676 0.390964,0.390964 1.325049,0.201098 2.075745,-0.421924 1.079655,-0.896034 1.232355,-0.787357 0.730669,0.520016 -0.456786,1.190365 -0.215112,1.491952 0.863793,1.077938 0.959507,-0.368198 2.32106,0.61631 3.787503,2.738659 1.259212,1.822428 1.937253,3.003056 1.506758,2.623617 -1.344363,-1.184924 -3.505787,1.522653 -2.346875,2.939889 1.180392,1.443504 1.094423,1.449953 -2.13201,0.159917 z M 106,90.940983 c 0,-0.582459 -0.41891,-0.800119 -0.9309,-0.483688 -0.512,0.316431 -1.18441,0.165142 -1.49426,-0.336198 -0.30984,-0.50134 0.0685,-1.154002 0.84082,-1.450359 1.71462,-0.657963 8.58434,1.340325 8.58434,2.497043 0,1.060422 -0.30778,1.0459 -3.49205,-0.164758 -1.74286,-0.662636 -2.41561,-0.662636 -2.00608,0 C 107.84076,91.55136 107.64148,92 107.05902,92 106.47656,92 106,91.523442 106,90.940983 Z m 32.26412,-1.889672 c -1.05605,-1.690995 -0.83602,-2.219954 1.66382,-4 C 143.15019,82.756868 144,82.537466 144,84 c 0,0.55 -0.46899,1 -1.04221,1 -1.85762,0 -3.66739,2.394474 -3.18988,4.220472 0.60831,2.326208 0.0128,2.259213 -1.50379,-0.169161 z M 168.25,89.263206 C 166.7101,88.733638 166.59185,87 168.09563,87 c 0.6026,0 2.43821,-0.956004 4.07915,-2.124453 2.57551,-1.833928 3.34876,-1.957999 5.65437,-0.907269 l 2.67085,1.217183 -3.86883,1.330284 c -2.12786,0.731657 -4.451,1.106886 -5.16254,0.833844 -0.71153,-0.273042 -1.44556,0.142544 -1.63117,0.923525 -0.1856,0.78098 -0.89996,1.226522 -1.58746,0.990092 z M 93.695417,81.61513 c -3.434269,-3.145668 -4.999574,-5.539177 -2.688354,-4.110765 0.553884,0.34232 1.301256,-0.144257 1.660826,-1.081282 0.939348,-2.447902 3.329546,0.87072 2.609706,3.623393 C 94.996029,81.123188 95.267922,82 95.883369,82 96.497516,82 97,81.523442 97,80.940983 97,80.358524 97.45,80.160081 98,80.5 c 0.55,0.339919 1,1.068034 1,1.618034 0,0.55 -0.526472,0.674622 -1.169939,0.276938 -0.786654,-0.486179 -0.960742,-0.177903 -0.531385,0.940983 0.871832,2.271956 0.629487,2.156218 -3.603259,-1.720825 z M 86,78.940983 c 0,-0.582459 0.45,-0.780902 1,-0.440983 0.55,0.339919 1,0.816476 1,1.059017 C 88,79.801558 87.55,80 87,80 86.45,80 86,79.523442 86,78.940983 Z m 85.64169,-4.449615 c 0.3184,-0.829747 1.76678,-1.767333 3.21861,-2.083523 1.45184,-0.31619 3.2022,-0.748182 3.8897,-0.959983 0.6875,-0.211801 1.25,0.444534 1.25,1.458523 0,1.264849 -0.98103,2.039821 -3.125,2.468615 -4.80397,0.960794 -5.87189,0.780478 -5.23331,-0.883632 z M 166,71.266422 C 166,69.773152 168.31974,68 170.27332,68 c 3.04907,0 1.66532,3.447398 -1.53187,3.816422 C 167.23365,71.990455 166,71.742955 166,71.266422 Z M 85.25,70.206127 C 82.615468,69.936315 82,69.435032 82,67.559086 82,64.529644 84.627617,62.227617 86.242382,63.842382 86.879072,64.479072 88.611855,65 90.093011,65 c 2.927866,0 4.509979,2.297236 2.597548,3.771652 -1.820127,1.403253 -3.875754,1.79956 -7.440559,1.434475 z m -1.723665,-10.3703 C 83.91991,58.551122 84.67147,56.825 85.196468,56 c 0.737459,-1.158867 0.823102,-1.045156 0.376584,0.5 l -0.577959,2 1.636986,-2 C 88.07605,54.735818 88.194248,54.715984 87.634533,56.331787 87.28554,57.339271 87,58.560938 87,59.046604 c 0,0.485666 -0.942583,1.387483 -2.094628,2.004039 -1.907346,1.020781 -2.030647,0.912164 -1.379037,-1.214816 z m 92.004885,-1.128955 c -0.42806,-0.986221 -0.4977,-2.073721 -0.15476,-2.416667 1.01549,-1.015491 1.83409,0.410947 1.3667,2.381526 -0.41435,1.746944 -0.46826,1.748507 -1.21194,0.03514 z M 89,56.833333 C 89,56.375 89.423442,56 89.940983,56 c 0.517541,0 1.172746,0.375 1.456011,0.833333 0.283266,0.458334 -0.140176,0.833334 -0.940983,0.833334 C 89.655205,57.666667 89,57.291667 89,56.833333 Z m 82.34409,-8.366022 C 170.69787,47.087963 170.60147,46 171.12547,46 c 1.11113,0 2.20852,2.511824 1.71886,3.934322 -0.18938,0.550165 -0.86449,-0.10999 -1.50024,-1.467011 z M 149,42 c 0,-0.55 0.45,-1 1,-1 0.55,0 1,0.45 1,1 0,0.55 -0.45,1 -1,1 -0.55,0 -1,-0.45 -1,-1 z"
           id="path25" />
        <path
           style="fill:#8699aa"
           d="M 145.5,306.42951 C 106.26574,301.7622 75.506146,286.7214 65.679802,267.39909 c -1.408205,-2.76906 -1.415876,-3.33088 -0.07168,-5.25 2.19499,-3.13378 3.480718,-2.80068 16.280448,4.2179 40.73081,22.33424 48.72515,24.83841 72.221,22.62268 21.66597,-2.04317 35.59876,-6.97219 41.62698,-14.72644 10.03483,-12.90803 12.66661,-20.54633 12.68631,-36.81975 0.0368,-30.44236 -21.45219,-43.95004 -54.73779,-34.40732 -12.2512,3.51231 -20.00506,22.07598 -13.97751,33.46384 9.31313,17.59533 36.83243,20.44177 39.84685,4.12154 0.57229,-3.09841 0.43774,-3.76514 -0.66902,-3.31498 -20.4084,8.30082 -29.56772,-16.56188 -9.53715,-25.88831 23.33717,-10.86602 38.56547,25.21617 18.69899,44.30568 -15.53215,14.92467 -39.55797,14.84882 -54.60866,-0.17241 -28.17503,-28.11989 -6.83631,-71.23451 37.58061,-75.93114 31.18066,-3.29703 55.39575,24.00383 55.32895,62.37962 -0.0224,12.8645 -0.8218,16.08942 -7.6844,31 -9.60364,20.86613 -44.54966,36.83344 -73.16373,33.42951 z M 110.50629,185.62826 c -3.81706,-2.7911 -0.27473,-8.82676 18.98635,-32.35019 5.50405,-6.72206 10.81587,-13.35956 11.80404,-14.75 2.43178,-3.42169 3.6371,-3.2043 8.21233,1.48116 l 3.91491,4.00923 -6.05546,6.24077 c -3.3305,3.43242 -10.36812,11.44631 -15.63916,17.80863 -14.3245,17.2902 -17.73421,20.11147 -21.22301,17.5604 z M 144,144.5 c 0,-0.825 -0.45,-1.5 -1,-1.5 -0.55,0 -1,0.675 -1,1.5 0,0.825 0.45,1.5 1,1.5 0.55,0 1,-0.675 1,-1.5 z m 48.66667,19.83333 c -3.00105,-3.00105 11.75762,-8.40143 27.83333,-10.18456 27.56576,-3.05763 45.58591,-19.72089 45.48355,-42.05873 -0.0503,-10.98773 -13.42385,-20.964609 -26.63359,-19.869155 -4.56577,0.378629 -6.45357,1.207548 -11.94226,5.243745 -1.68454,1.238754 -2.63457,0.290156 -1.82425,-1.821502 C 225.93024,94.739408 227.09239,94 228.16601,94 c 1.17263,0 1.67882,-0.442049 1.26778,-1.107134 -0.44596,-0.721582 -0.0312,-0.903654 1.19098,-0.522828 6.95573,2.167346 5.01731,-6.567704 -2.075,-9.350508 -4.60823,-1.808128 -2.26286,-3.693731 6.31204,-5.074678 21.25377,-3.42282 45.54598,14.602475 43.66083,32.397178 -3.56373,33.63946 -19.87401,48.087 -59.52264,52.72477 -17.20221,2.01218 -25.20289,2.39698 -26.33333,1.26653 z m -41.96435,-25.12216 c -3.50819,-3.66175 -3.4928,-3.6937 1.85784,-3.85807 5.82356,-0.17889 6.33194,-0.77459 3.36045,-3.93763 -2.37149,-2.52437 -2.38122,-2.60546 -0.47948,-3.99606 2.56927,-1.87873 5.47481,-1.80203 6.22942,0.16444 0.48935,1.27522 0.77253,1.32393 1.4533,0.25 1.34544,-2.12248 1.01331,-3.82371 -0.62385,-3.19548 -2.20335,0.84551 -1.83021,-1.39128 0.43426,-2.60319 4.07617,-2.1815 5.30158,-1.39498 3.45073,2.21482 -2.25709,4.40208 -6.01246,8.7892 -6.82663,7.97503 -0.36523,-0.36524 -0.40088,0.0218 -0.0792,0.86006 0.60079,1.56564 -3.15286,7.99021 -5.02684,8.60371 -0.57623,0.18864 -2.26373,-0.92629 -3.75,-2.47763 z m 82.5202,-6.36492 c -5.82885,-1.02384 -13.82667,-5.54266 -17.32807,-9.79047 -3.62025,-4.39199 -3.70366,-5.93313 -0.28576,-5.27975 2.37666,0.45432 2.51008,0.31442 1.5,-1.57293 -1.49604,-2.79538 -1.39528,-3.52705 0.39131,-2.84147 1.08369,0.41585 1.5,-0.10953 1.5,-1.89301 0,-3.78741 -2.86891,-3.02661 -4.64858,1.23275 -1.32151,3.1628 -1.68715,3.4501 -2.51294,1.9745 -1.3939,-2.49076 -0.65404,-7.24371 1.06988,-6.87308 0.7746,0.16653 1.6746,-0.0585 2,-0.5 4.24862,-5.76488 9.1457,-6.30487 8.94452,-0.98629 -0.42925,11.34854 10.67483,18.70583 19.06214,12.6301 4.77585,-3.45961 4.24947,-5.15682 -1.3292,-4.28574 -6.77195,1.0574 -9.69277,-5.70776 -4.64404,-10.75648 4.77757,-4.777576 12.38993,-3.26924 17.53333,3.47411 9.02513,11.83254 -4.76942,28.36305 -21.25259,25.46776 z M 168.0698,116.5841 c -0.93684,-1.12882 -0.77194,-1.54386 0.81328,-2.04699 1.0936,-0.3471 2.19009,-1.39744 2.43664,-2.3341 0.4049,-1.5382 0.4595,-1.53062 0.56428,0.0784 0.0638,0.97977 -0.53059,2.02951 -1.32086,2.33276 -0.79027,0.30326 -1.19212,1.18914 -0.89301,1.96862 0.69748,1.8176 -0.0924,1.81826 -1.60033,10e-4 z m 52.00915,-23.159786 c -0.17552,-2.391544 4.5269,-5.604157 5.85705,-4.00143 1.71346,2.064598 0.31649,3.857304 -2.46233,3.159863 -1.38948,-0.348735 -2.50867,-0.08248 -2.81196,0.668972 -0.2771,0.686555 -0.53934,0.764222 -0.58276,0.172595 z m 3.50515,-10.065758 c -0.52667,-1.372472 -0.38034,-1.434339 0.89301,-0.377555 C 226.21235,84.421127 226.39295,85 225.10699,85 c -0.49116,0 -1.17646,-0.73865 -1.52289,-1.641444 z M 87.8125,68.316886 c 0.721875,-0.288871 1.584375,-0.253344 1.916667,0.07895 0.332291,0.332292 -0.258334,0.568641 -1.3125,0.52522 -1.164943,-0.04798 -1.4019,-0.284941 -0.604167,-0.604167 z"
           id="path24" />
        <path
           style="fill:#7590a9"
           d="M 155.5,307.26044 C 114.51675,303.95014 83.207941,291.32482 69.244769,272.47792 63.040371,264.10348 64.51779,257.58536 71.786805,261.2629 73.279062,262.01786 83.5,267.40683 94.5,273.23838 c 27.45546,14.55526 32.73095,16.18077 52,16.02253 24.19217,-0.19867 41.77736,-5.46266 49.18366,-14.72275 3.91968,-4.90077 10.32739,-15.63315 10.76959,-18.03816 0.20225,-1.1 1.0731,-5.1733 1.93521,-9.05178 7.34782,-33.0566 -19.01137,-55.50887 -52.88846,-45.0494 -19.95414,6.16079 -24.45279,32.35289 -7.5667,44.05496 13.63923,9.45199 32.0667,5.08284 32.0667,-7.603 0,-2.24863 -0.70551,-2.2896 -5.43055,-0.31535 -14.25477,5.95602 -21.53716,-13.45449 -9.13366,-24.34491 21.40979,-18.79805 43.57276,18.82415 23.65541,40.15566 -25.40023,27.20369 -69.86063,6.79791 -67.90007,-31.16377 1.94168,-37.59579 63.63009,-58.53813 88.28763,-29.97239 20.57042,23.83081 21.80767,68.25085 2.4849,89.21358 -12.39123,13.44289 -41.11285,26.07676 -56.46366,24.83684 z M 110,183.21189 c 0,-1.53346 1.0125,-4.79596 2.25,-7.25 l 2.25,-4.46189 5.22933,0.27793 c 4.34768,0.23107 5.13048,0.0203 4.64301,-1.25 C 124.04987,169.68757 122.93417,169 121.89301,169 c -2.71272,0 -2.46892,-4.39117 0.37073,-6.67742 1.24506,-1.00242 3.31082,-3.17258 4.59057,-4.82258 1.27976,-1.65 2.67544,-3 3.10152,-3 0.42607,0 2.14086,-1.4625 3.81064,-3.25 3.42846,-3.67019 6.74551,-4.43846 5.76024,-1.33416 -0.33444,1.05372 -0.15295,2.19712 0.4033,2.5409 0.55624,0.34378 1.298,-0.51701 1.64834,-1.91288 0.35034,-1.39586 1.82603,-3.10783 3.27931,-3.80437 3.33093,-1.59647 3.57865,-5.10651 0.39234,-5.55904 -2.58989,-0.36782 -2.86614,-1.42421 -0.81715,-3.12472 1.15617,-0.95954 1.97681,-0.57865 4.25,1.97262 3.62233,4.06545 3.54958,4.89358 -0.68285,7.77364 -1.925,1.3099 -3.3875,2.79033 -3.25,3.28983 0.1375,0.4995 -0.40917,0.90818 -1.21482,0.90818 -1.44573,0 -3.87023,3.33162 -3.03344,4.1684 0.5243,0.52431 -15.02599,19.66521 -20.78279,25.5816 -5.1525,5.29533 -9.71895,5.9822 -9.71895,1.46189 z m 30,-29.30295 c 0,-0.46539 -0.75312,-0.55717 -1.67361,-0.20395 -1.2679,0.48654 -1.51792,0.23652 -1.03138,-1.03138 0.62668,-1.63311 -0.74122,-2.41367 -1.61858,-0.92361 -1.10116,1.87016 1.32144,5.49666 2.83357,4.2417 0.8195,-0.68012 1.49,-1.61737 1.49,-2.08276 z m 53.12188,10.22737 c -3.80621,-2.5208 11.47351,-7.91191 25.87812,-9.13052 27.11852,-2.29419 46.84894,-19.20163 46.97716,-40.25579 0.0162,-2.65652 0.46023,-3.75 1.52284,-3.75 2.71418,0 0.84248,-2.63333 -8.74551,-12.304274 C 255.58952,95.503375 253,92.438303 253,91.884453 c 0,-0.62636 -1.69613,-0.752649 -4.48719,-0.334103 -8.58651,1.287627 -14.15476,-2.590444 -9.32954,-6.497671 2.19721,-1.779188 2.222,-1.947382 0.55804,-3.786032 -2.75744,-3.046939 -2.14337,-3.411448 4.48396,-2.661651 10.86869,1.229653 28.60874,11.05804 27.09232,15.009761 C 270.97474,94.508205 271.49034,95 272.76987,95 c 2.63172,0 6.7015,9.11576 5.75611,12.89288 -0.3589,1.43392 -0.87628,4.85175 -1.14973,7.5952 -0.27345,2.74344 -1.25748,5.84668 -2.18672,6.8961 -1.24857,1.41004 -1.36329,2.02213 -0.43953,2.34525 1.42864,0.49972 1.5948,2.17883 0.40172,4.05932 -0.59638,0.93999 -1.50499,1.02744 -3.35749,0.32312 -2.18521,-0.83082 -2.69194,-0.63179 -3.62932,1.42553 -1.07278,2.35451 0.0749,4.50165 1.32501,2.47891 0.34546,-0.55897 1.05156,-1.01631 1.5691,-1.01631 3.45252,0 -4.211,10.48111 -8.80902,12.04776 -1.7875,0.60904 -3.25,1.774 -3.25,2.58881 0,0.85317 0.53013,1.21534 1.25,0.85396 0.6875,-0.34513 -0.26893,0.72069 -2.12539,2.36849 -6.88948,6.1151 -22.47322,12.15721 -31.12461,12.0676 -1.375,-0.0143 -5.425,0.3996 -9,0.91965 -11.03401,1.60512 -23.43169,2.24799 -24.87812,1.29004 z M 150.65451,138.25 c -0.25494,-0.4125 0.6185,-0.75 1.94098,-0.75 1.32248,0 2.40451,0.3375 2.40451,0.75 0,0.4125 -0.87344,0.75 -1.94098,0.75 -1.06754,0 -2.14957,-0.3375 -2.40451,-0.75 z M 238,132.03979 c -1.375,-0.41847 -3.67117,-0.55563 -5.1026,-0.3048 -3.08028,0.53975 -9.37307,-2.45771 -14.3696,-6.84472 C 214.33962,121.213 214.17412,120.2645 217.5,119 c 2.52071,-0.95837 3.4582,-3 1.37756,-3 -0.77551,0 -0.73766,-0.46364 0.12244,-1.5 1.61358,-1.94424 3,-1.91519 3,0.0629 0,0.95601 0.70472,1.44347 1.81494,1.25538 1.91124,-0.32379 8.86373,4.90415 8.43506,6.34276 -0.1375,0.46145 1.05,0.839 2.63889,0.839 2.06891,0 2.84947,0.46617 2.75,1.64237 -0.0764,0.90331 0.42361,1.84081 1.11111,2.08333 0.72652,0.2563 1.25,-0.38496 1.25,-1.53126 0,-1.08472 0.5625,-1.95133 1.25,-1.92579 4.07689,0.15141 10.01624,-0.5125 8.75,-0.97809 -0.825,-0.30334 -2.3638,-1.28032 -3.41957,-2.17105 -1.77758,-1.49972 -1.8738,-1.49384 -1.30092,0.0796 0.44058,1.21006 0.20158,1.53903 -0.83044,1.14301 -1.8744,-0.71927 -1.83491,-1.77697 0.12715,-3.40533 1.30619,-1.08405 1.73751,-1.0622 2.5178,0.12755 0.87644,1.33635 0.80444,0.41069 -0.54951,-7.0643 -0.30604,-1.68962 -3.64275,-1.44764 -4.75487,0.34483 -1.10413,1.77958 -5.54272,1.74102 -6.23159,-0.0541 -0.33282,-0.86732 -0.36953,-1.81254 -0.0816,-2.10048 0.28795,-0.28795 0.52354,10e-4 0.52354,0.64312 0,0.64167 0.49923,1.16667 1.10941,1.16667 0.67905,0 0.9509,-1.35769 0.7008,-3.5 -0.31117,-2.6654 -0.0392,-3.50365 1.14059,-3.51531 1.36677,-0.0135 1.37256,-0.13485 0.0492,-1.03038 -1.09311,-0.73972 -0.68622,-0.82943 1.5,-0.33071 1.65,0.37639 3.26472,1.08636 3.58827,1.57771 0.32355,0.49135 1.16219,0.20183 1.86365,-0.64338 2.9981,-3.612486 11.04808,5.33366 11.04808,12.27801 0,6.37482 -9.4341,17.08592 -13.63057,15.47558 C 242.61624,131.0225 242,131.28417 242,131.89301 c 0,1.23061 -0.39154,1.24498 -4,0.14678 z m -10,-6.70646 C 228,124.6 228.765,124 229.7,124 c 1.23697,0 1.40022,-0.29978 0.59935,-1.10065 -1.17952,-1.17952 -8.29935,0.768 -8.29935,2.27015 0,0.42225 0.675,0.50871 1.5,0.19213 0.825,-0.31659 1.5,-0.15246 1.5,0.36471 0,0.51718 0.675,0.94033 1.5,0.94033 0.825,0 1.5,-0.6 1.5,-1.33334 z M 155.5,129 c -0.33992,-0.55 0.0835,-1 0.94098,-1 0.85746,0 1.88527,-0.0337 2.28402,-0.075 0.39875,-0.0412 0.88625,0.40875 1.08333,1 0.45218,1.35654 -3.47405,1.42489 -4.30833,0.075 z m 63.15305,-21.86738 c -1.67706,-0.65995 -1.70006,-0.84872 -0.25,-2.05216 C 219.28137,104.35152 220,104.09031 220,104.5 c 0,0.40969 0.675,0.18469 1.5,-0.5 1.26848,-1.05275 1.5,-0.84012 1.5,1.37756 0,2.66785 -1.00069,3.07187 -4.34695,1.75506 z"
           id="path23" />
        <path
           style="fill:#708599"
           d="M 143,305.82336 C 109.5074,302.0244 82.333038,289.77438 69.413198,272.65092 63.031797,264.19325 64.419451,257.53561 71.786805,261.2629 73.279062,262.01786 83.5,267.40683 94.5,273.23838 c 27.20628,14.42316 32.7832,16.16245 51.5,16.06142 34.20954,-0.18465 53.35487,-10.37128 59.94685,-31.89583 C 216.31457,223.55058 203.17105,200.5 173.5,200.5 c -24.15027,0 -37.99448,10.73098 -36.20557,28.06382 2.41492,23.3983 42.70557,33.10355 42.70557,10.28696 0,-2.24863 -0.70551,-2.2896 -5.43055,-0.31535 -14.25477,5.95602 -21.53716,-13.45449 -9.13366,-24.34491 21.27723,-18.68166 43.50081,18.94166 23.72461,40.16448 -25.3153,27.16709 -69.92562,6.70756 -67.96927,-31.17259 1.2307,-23.82939 27.97398,-44.39476 55.80887,-42.91656 8.62937,0.45827 16.86096,2.53986 15.485,3.91581 -0.30156,0.30157 0.47844,0.46336 1.73335,0.35955 C 208.43244,183.36531 226,214.68318 226,241.19867 c 0,31.13437 -17.59146,52.68095 -51.5,63.07884 -11.51633,3.53143 -13.24616,3.61632 -31.5,1.54585 z M 110,183.52024 c 0,-6.98664 3.76936,-11.79229 8.56702,-10.92231 5.8888,1.06784 7.78386,0.75882 7.05142,-1.14987 -0.33769,-0.88001 -0.17249,-1.29048 0.38156,-0.94806 0.54108,0.3344 0.72679,-0.0484 0.41619,-0.85781 -0.3085,-0.80393 -1.65334,-1.73588 -2.98855,-2.07099 -2.74587,-0.68917 -3.15802,-2.72015 -0.92764,-4.5712 0.825,-0.68469 1.5,-0.90969 1.5,-0.5 0,0.40969 0.64825,0.20689 1.44056,-0.45067 0.79231,-0.65756 1.21644,-1.77959 0.94253,-2.4934 -0.59695,-1.55563 1.80736,-2.67429 3.49974,-1.62834 0.66081,0.4084 3.2028,0.43882 5.64888,0.0676 3.95742,-0.60059 4.31575,-0.49979 3.25245,0.91493 -3.40366,4.52857 -4.10572,5.0679 -5.30327,4.07402 -0.85074,-0.70605 -1.63049,-0.49733 -2.59821,0.69549 -0.77503,0.9553 -0.86371,1.39302 -0.20178,0.99602 3.0473,-1.82768 2.03988,1.89519 -1.78538,6.59778 C 117.32136,185.50216 110,190.24737 110,183.52024 Z m 83.12188,-19.42375 c -2.36329,-1.49688 -0.45414,-2.75421 8.611,-5.67102 9.84357,-3.16728 26.03912,-4.1832 26.99458,-1.69332 0.5014,1.30663 4.44942,1.75764 5.57069,0.63637 0.34732,-0.34732 0.20677,-1.42507 -0.31232,-2.395 -1.18942,-2.22245 -0.10271,-3.10879 6.77725,-5.52763 2.89469,-1.01771 7.33119,-3.55937 9.85888,-5.64814 2.52769,-2.08876 4.96649,-3.79775 5.41954,-3.79775 0.45305,0 1.08358,-0.81872 1.40117,-1.81938 0.87777,-2.7656 6.78407,-6.94437 6.36841,-4.50572 -0.41084,2.41036 4.13064,3.18062 5.39823,0.91557 0.9096,-1.62536 2.79257,-2.19293 2.78834,-0.84047 -0.001,0.4125 -1.35023,2.325 -2.99765,4.25 -1.64742,1.925 -2.99636,3.8375 -2.99765,4.25 -0.004,1.27867 -3.0369,0.82355 -3.55779,-0.53388 -0.89248,-2.32576 -5.0318,-1.85589 -6.41474,0.72817 -0.73478,1.37294 -1.86891,2.17095 -2.65607,1.86889 -0.8311,-0.31892 -1.37375,0.14054 -1.37375,1.16316 0,0.92968 -0.55793,1.50435 -1.23984,1.27705 -1.54701,-0.51567 -5.11471,3.86392 -4.26613,5.23695 0.86407,1.39809 5.84737,1.26826 7.30597,-0.19034 0.75819,-0.75819 1.2,-0.80949 1.2,-0.13933 0,1.79514 -11.09671,6.9902 -18.94136,8.86764 l -7.44136,1.78092 -1.43061,-2.15462 c -1.65076,-2.48617 -4.70709,-2.84677 -5.5483,-0.65461 -0.31658,0.825 -0.0497,1.5 0.59301,1.5 0.73126,0 0.81308,0.34042 0.21862,0.90961 -0.5225,0.50028 -6.42744,1.40028 -13.12209,2 -14.48409,1.2975 -14.45313,1.29714 -16.20603,0.18688 z M 256.5,150 c 0.33992,-0.55 1.06803,-1 1.61803,-1 0.55,0 0.72189,0.45 0.38197,1 -0.33992,0.55 -1.06803,1 -1.61803,1 -0.55,0 -0.72189,-0.45 -0.38197,-1 z M 228,130.97733 c -1.27104,-0.84062 -1.11839,-1.29282 1,-2.96245 3.11085,-2.45186 5.18024,-2.5662 4.79384,-0.26488 -0.54158,3.22546 -3.39413,4.81441 -5.79384,3.22733 z m 14,-2.48172 C 242,126.27823 244.51371,125 248.87431,125 h 4.47432 l -2.36594,2.51842 C 248.53379,130.12516 242,130.83594 242,128.49561 Z m 30.83333,0.73611 c -0.67389,-1.55321 -6.09587,-5.1875 -6.95087,-4.65908 -1.06322,0.65711 -1.14997,-1.64963 -0.11715,-3.11504 0.40408,-0.57332 1.97219,-1.13078 3.48469,-1.2388 2.71798,-0.19411 3.32961,0.82788 2.79335,4.66748 -0.13124,0.93969 0.47488,1.21146 1.88152,0.84362 2.16356,-0.56579 2.48852,0.0292 1.46814,2.68831 -0.64147,1.67166 -2.00002,2.10343 -2.55968,0.81351 z m -56.76238,-6.64623 c -0.74577,-0.8986 -1.05933,-1.93045 -0.69678,-2.29299 0.93392,-0.93393 2.93161,1.29016 2.45178,2.72965 -0.27581,0.82743 -0.81782,0.69257 -1.755,-0.43666 z m 37.96085,-0.29653 c -0.0175,-0.66608 -0.87021,-2.01608 -1.89493,-3 -2.06727,-1.98497 -3.35274,-7.03751 -2.00276,-7.87184 0.47624,-0.29434 0.87278,0.0539 0.8812,0.77386 0.0109,0.93538 0.22502,0.98076 0.75,0.15897 0.40408,-0.63253 1.63469,-1.30753 2.73469,-1.5 2.63305,-0.46072 3.43957,7.52369 1.07578,10.65005 -0.8317,1.1 -1.52648,1.45503 -1.54398,0.78896 z M 275.63837,119.5 c 0.31659,-0.825 0.75246,-1.5 0.96862,-1.5 0.21615,0 0.39301,0.675 0.39301,1.5 0,0.825 -0.43588,1.5 -0.96862,1.5 -0.53273,0 -0.70959,-0.675 -0.39301,-1.5 z m -9.46181,-4.61483 c 0.31025,-3.24713 0.47636,-3.37361 4.07344,-3.10168 3.42627,0.25901 5.26339,-1.11236 2.65492,-1.98185 -1.18607,-0.39536 2.69369,-7.80164 4.08687,-7.80164 4.59657,0 0.75646,12.72143 -4.24679,14.06866 -2.12855,0.57316 -4.54999,1.30301 -5.38099,1.6219 -1.19825,0.45981 -1.44396,-0.12068 -1.18745,-2.80539 z M 253,107.5 c -0.68469,-0.825 -1.67193,-1.5 -2.19387,-1.5 -0.52194,0 -1.62399,-0.675 -2.44899,-1.5 -1.22193,-1.22193 -1.24337,-1.5 -0.11566,-1.5 0.76139,0 2.67772,1.35 4.25852,3 1.5808,1.65 2.62009,3 2.30954,3 -0.31056,0 -1.12485,-0.675 -1.80954,-1.5 z m 12.45361,-2.55126 c -1.57276,-1.73788 -1.52113,-1.8195 0.98209,-1.55261 3.61788,0.38572 5.30096,2.17797 2.6872,2.86148 -1.21598,0.31799 -2.66466,-0.19877 -3.66929,-1.30887 z M 273.08157,104.25 C 273.03671,103.5625 272.325,103 271.5,103 c -0.825,0 -1.5,-0.37396 -1.5,-0.83102 0,-1.79921 -4.85995,-3.530105 -6.37688,-2.271158 -0.9838,0.816478 -1.65192,0.864588 -2.09311,0.150738 C 261.17359,99.471851 261.41362,99 262.06343,99 c 0.86122,0 0.83122,-0.422012 -0.11068,-1.556936 -1.40918,-1.69795 2.13433,-1.778261 4.79725,-0.108726 0.72787,0.456342 1.25,0.306531 1.25,-0.358654 0,-0.628293 0.5625,-0.944462 1.25,-0.702598 0.6875,0.241863 2.2386,0.07459 3.44688,-0.371719 2.97248,-1.097958 3.86626,1.810162 1.92385,6.259693 -0.80167,1.83642 -1.49429,2.77644 -1.53916,2.08894 z m 0.60154,-3.4375 c -0.31922,-0.79773 -0.55618,-0.56078 -0.60416,0.60417 -0.0434,1.05416 0.19293,1.64479 0.52522,1.3125 0.33229,-0.3323 0.36781,-1.1948 0.0789,-1.91667 z m -16.01644,-3.479167 c -1.11666,-1.116658 -0.7486,-2 0.83333,-2 0.825,0 1.5,0.6 1.5,1.333334 0,1.419438 -1.22933,1.770674 -2.33333,0.666666 z M 264.5,91 c -1.92824,-0.828591 -1.92138,-0.861951 0.19098,-0.929715 C 265.89602,90.031628 267.16008,90.45 267.5,91 c 0.731,1.182783 -0.24752,1.182783 -3,0 z m -24.53963,-2.074055 c -0.93974,-1.75592 -0.79175,-2.157279 0.96481,-2.616631 C 242.06633,86.010897 243,85.195976 243,84.498379 c 0,-0.697598 1.10917,-1.995114 2.46482,-2.883369 3.05786,-2.003591 3.63024,-2.026316 2.89681,-0.11501 -0.41669,1.085879 0.11195,1.5 1.9148,1.5 1.85603,0 2.61101,0.630839 2.96383,2.476498 C 253.85118,88.672331 253.44136,89 248.83333,89 246.725,89 245,89.45 245,90 c 0,1.853805 -3.91978,1.018416 -5.03963,-1.074055 z"
           id="path22" />
        <path
           style="fill:#667790"
           d="m 136.28324,304.92713 c -16.88299,-2.23671 -22.52803,-3.99474 -39.905132,-12.4276 -21.203831,-10.28991 -37.11904,-27.35671 -29.375429,-31.50096 1.718113,-0.91951 32.52566,13.87558 39.497321,18.96828 16.479,12.03768 61.93025,12.59618 82.21644,1.01026 5.20792,-2.97436 16.75037,-18.23378 17.74861,-23.4641 0.21131,-1.10716 1.13861,-5.34022 2.06067,-9.40681 7.51053,-33.12388 -15.19063,-54.38844 -49.83456,-46.6809 -17.89558,3.98139 -26.91629,22.27661 -18.26366,37.04121 9.61371,16.40454 35.93002,18.24947 39.40963,2.76285 1.09888,-4.89074 0.16639,-6.04566 -3.05788,-3.78729 -6.20391,4.34538 -14.60462,1.21054 -16.85132,-6.2883 -5.03545,-16.80682 19.86407,-29.14983 30.81864,-15.27719 15.98979,20.24914 -1.02569,50.67824 -28.24657,50.51385 -23.88174,-0.14422 -41.5,-17.92174 -41.5,-41.87513 0,-24.44873 31.24935,-47.58825 59.5,-44.05857 3.77825,0.47206 5.5,1.13423 5.5,2.11523 0,0.78542 0.675,1.42804 1.5,1.42804 0.825,0 1.5,0.3876 1.5,0.86133 0,0.47373 -1.125,0.64627 -2.5,0.38342 -1.38181,-0.26415 -2.5,-0.009 -2.5,0.57129 0,1.48417 3.85835,2.52978 5.29799,1.43574 0.98294,-0.74698 6.06008,-0.88987 12.2678,-0.34528 1.53614,0.13476 10.43421,9.23452 10.43421,10.67072 0,0.66484 0.70603,1.47973 1.56895,1.81087 1.08058,0.41465 1.35851,1.26511 0.89287,2.73221 -0.5012,1.57913 -0.34574,1.92599 0.60098,1.34088 0.91577,-0.56597 1.09078,-0.30378 0.61859,0.92671 -0.36216,0.94379 -0.2962,1.49209 0.14658,1.21843 1.3466,-0.83224 4.19119,5.00895 5.66483,11.63239 0.76619,3.44371 2.074,8.06129 2.90624,10.26129 5.55251,14.67781 -5.51299,56.5 -14.94902,56.5 -0.75881,0 -1.85945,0.89651 -2.44587,1.99224 -2.50258,4.67613 -22.31656,15.35715 -35.06794,18.90391 -9.19271,2.55693 -16.53854,2.56331 -35.65297,0.031 z M 209.68311,200.8125 c -0.31922,-0.79773 -0.55618,-0.56078 -0.60416,0.60417 -0.0434,1.05416 0.19292,1.64479 0.52522,1.3125 0.33229,-0.3323 0.36781,-1.1948 0.0789,-1.91667 z M 205.5,200 c 0.33992,-0.55 0.16803,-1 -0.38197,-1 -0.55,0 -1.27811,0.45 -1.61803,1 -0.33992,0.55 -0.16803,1 0.38197,1 0.55,0 1.27811,-0.45 1.61803,-1 z m -94.97158,-14.95401 c -0.73401,-1.18766 0.29833,-5.64536 2.16516,-9.34928 1.33373,-2.64621 1.67606,-2.76574 6.10966,-2.13314 6.13584,0.87547 7.11821,1.90267 4.22192,4.4146 -2.85286,2.47428 -3.63388,2.51711 -4.95717,0.27183 -0.89955,-1.52629 -1.15961,-1.55825 -2.03438,-0.25 -1.50741,2.25438 -1.23624,4 0.62138,4 1.48832,0 1.47271,0.20141 -0.15499,2 -1.91079,2.1114 -4.98077,2.64914 -5.97158,1.04599 z M 121,178 c 0,-0.55 -0.47656,-1 -1.05902,-1 -0.58246,0 -0.7809,0.45 -0.44098,1 0.33992,0.55 0.81648,1 1.05902,1 0.24254,0 0.44098,-0.45 0.44098,-1 z m 72.66667,-13.66667 c -1.41796,-1.41795 -0.55844,-3.12087 1.80307,-3.5723 1.35835,-0.25966 2.2318,-0.0871 1.94098,0.38343 -0.98111,1.58747 1.65689,0.87046 3.6586,-0.99441 6.3496,-5.91556 21.13833,-5.44481 18.84774,0.59995 C 218.9566,163.28461 215,163.88811 215,161.5 c 0,-0.86088 -0.90185,-1.5 -2.11663,-1.5 -1.6674,0 -1.99841,0.4521 -1.5596,2.1301 0.53763,2.05589 0.31442,2.11275 -6.40587,1.63191 -3.82961,-0.274 -7.20434,-0.10755 -7.49942,0.3699 -0.63561,1.02844 -2.80816,1.14508 -3.75181,0.20142 z m 34.15771,-5.07542 -2.32438,-2.52934 2.36484,1.23236 c 1.30066,0.6778 3.67528,1.04003 5.27692,0.80496 3.59578,-0.52775 3.28798,1.34156 -0.38254,2.32321 -2.04909,0.54802 -3.11031,0.15423 -4.93484,-1.83119 z M 240.92349,157.25 c -0.0421,-0.4125 -0.21841,-1.47719 -0.39185,-2.36598 -0.53657,-2.74973 1.15744,-4.54234 3.13037,-3.31258 2.43482,1.51766 2.67589,2.9478 0.8112,4.81249 -1.70568,1.70568 -3.42136,2.12428 -3.54972,0.86607 z m 5.80984,-1.37409 c 0.67834,-0.68342 1.48524,-0.99067 1.79313,-0.68278 0.30789,0.30789 -0.24711,0.86705 -1.23333,1.24258 -1.4252,0.54268 -1.54006,0.42782 -0.5598,-0.5598 z M 260.75,138.89453 c -0.9625,-0.54665 -1.75,-1.36907 -1.75,-1.82759 0,-1.74932 3.80366,-1.72214 6.10029,0.0436 1.31984,1.01475 2.17471,1.88844 1.89971,1.94154 -3.71391,0.71713 -4.75622,0.69086 -6.25,-0.15754 z M 268,123 c -1.2819,-0.82843 -1.24555,-0.9716 0.25,-0.98469 0.9625,-0.008 1.75,0.43469 1.75,0.98469 0,1.21961 -0.11279,1.21961 -2,0 z m -13.08746,-2.5 c -0.30279,-2.04194 -0.40305,-7.49959 -0.13779,-7.49979 1.08565,-8.3e-4 2.08582,5.41553 1.26102,6.829 -0.53622,0.91893 -1.04168,1.22079 -1.12323,0.67079 z m 12.16641,-6.08333 c 0.048,-1.16495 0.28494,-1.4019 0.60416,-0.60417 0.28887,0.72187 0.25335,1.58437 -0.0789,1.91667 -0.33229,0.33229 -0.56864,-0.25834 -0.52522,-1.3125 z M 269.15789,114 c 0,-1.375 0.22698,-1.9375 0.50439,-1.25 0.27741,0.6875 0.27741,1.8125 0,2.5 -0.27741,0.6875 -0.50439,0.125 -0.50439,-1.25 z"
           id="path21" />
        <path
           style="fill:#55698b"
           d="m 141,305.40438 c -34.30736,-4.12028 -64.698419,-19.48879 -74.436099,-37.64172 -2.999064,-5.59084 1.542674,-9.12151 6.963593,-5.41339 5.92214,4.05099 39.261816,20.92057 46.972506,23.76768 22.58238,8.33836 64.50595,2.40457 75.26953,-10.65352 9.6843,-11.74874 13.63939,-22.97874 13.63445,-38.71343 -0.002,-6.5121 0.32958,-8.75 1.29664,-8.75 0.71466,0 1.29938,-0.675 1.29938,-1.5 0,-0.93333 0.94444,-1.5 2.5,-1.5 1.83333,0 2.5,-0.53333 2.5,-2 0,-1.35244 -0.66667,-2 -2.05902,-2 -1.13246,0 -1.82107,0.38499 -1.53026,0.85554 0.29082,0.47055 -0.5557,0.64824 -1.88114,0.39486 -2.87775,-0.55011 -5.81255,-3.5545 -6.00346,-6.14581 -0.0756,-1.02643 -1.42204,-2.97116 -2.99205,-4.32162 -2.55058,-2.19393 -2.94292,-5.77172 -0.46497,-4.24026 0.51199,0.31643 0.9309,0.0988 0.9309,-0.48369 0,-0.96663 -2.32963,-1.48275 -5.88857,-1.30457 -0.76371,0.0382 -2.51943,-0.97908 -3.90159,-2.2607 -2.97238,-2.75614 -16.59847,-5.11073 -23.16034,-4.00211 -3.31975,0.56087 -4.0495,0.39801 -4.0495,-0.90374 0,-0.97809 0.86408,-1.59043 2.25,-1.59449 1.2375,-0.004 3.6,-0.90066 5.25,-1.99341 3.66499,-2.42723 7.06726,-2.57008 7.92579,-0.33278 0.45061,1.17425 0.95316,1.35383 1.69963,0.60736 0.74648,-0.74648 0.71283,-1.70829 -0.1138,-3.25287 -1.52144,-2.84283 -1.83788,-2.70537 7.79371,-3.38555 4.56793,-0.32259 8.72666,-0.84691 9.24162,-1.16518 0.51496,-0.31826 2.03779,0.52285 3.38406,1.86912 1.34628,1.34628 2.70005,2.19551 3.00838,1.88717 C 206.74773,190.91894 207,191.19167 207,191.83333 207,192.475 206.29844,193 205.44098,193 c -0.92379,0 -1.26829,0.4704 -0.84549,1.15451 0.40023,0.64758 0.27816,0.88543 -0.27801,0.5417 C 203.21561,194.01522 199,196.61838 199,197.97978 199,200.3272 205.30338,205 208.46993,205 c 2.15353,0 3.53714,0.57605 3.94662,1.64313 0.34679,0.90372 0.89851,1.37515 1.22604,1.04762 0.95287,-0.95288 3.14289,1.76707 3.54034,4.39701 0.2005,1.32673 0.91637,2.29974 1.59081,2.16224 0.78239,-0.15951 1.22626,1.01689 1.22626,3.25 0,1.925 -0.45,3.5 -1,3.5 -0.55,0 -1,0.92656 -1,2.05902 0,1.13246 0.4176,1.80092 0.928,1.48548 0.51041,-0.31545 1.22606,0.36554 1.59035,1.5133 0.39047,1.23027 1.2278,1.86985 2.03997,1.5582 1.91812,-0.73606 2.39725,0.39404 2.88449,6.80355 0.4274,5.62226 -0.0527,6.57056 -2.22614,4.39712 -0.65084,-0.65084 -1.47996,-0.88671 -1.8425,-0.52417 -0.90431,0.90431 1.55167,3.7075 3.24827,3.7075 0.9387,0 1.35332,1.19466 1.30148,3.75 -0.0863,4.2513 -2.7194,12.21836 -2.84784,8.61663 -0.0474,-1.33004 -0.92333,-2.36042 -2.32608,-2.73634 -3.71918,-0.9967 -4.31717,-0.71585 -1.97251,0.92641 2.32396,1.62777 3.11307,6.4433 1.05584,6.4433 -0.64166,0 -0.82987,0.33679 -0.41824,0.74843 0.41164,0.41163 1.38664,-0.12438 2.16667,-1.19113 1.36518,-1.867 1.41561,-1.84823 1.34795,0.50157 -0.13344,4.63483 -1.40032,6.70951 -2.68993,4.40511 -1.66731,-2.97931 -2.60797,-1.02794 -2.44735,5.07692 0.11038,4.19536 -0.30387,5.97054 -1.72486,7.39153 -1.02857,1.02857 -2.16257,2.79153 -2.52,3.9177 -0.67412,2.12395 -3.84527,3.70195 -5.44838,2.71117 -1.7984,-1.11147 -4.17892,0.61213 -3.55602,2.57472 0.64268,2.02489 -4.66446,5.1384 -7.13965,4.18858 -0.66067,-0.25352 -1.49511,0.0146 -1.85431,0.59577 -0.39011,0.63121 -0.0592,0.82883 0.82173,0.49078 5.14746,-1.97526 -0.19756,3.56289 -6.95524,7.20655 -16.22159,8.74649 -26.56821,10.41054 -48.4157,7.78668 z M 214.5,233 c -0.33992,-0.55 -1.04148,-1 -1.55902,-1 -0.51754,0 -0.94098,0.45 -0.94098,1 0,0.55 0.70156,1 1.55902,1 0.85746,0 1.2809,-0.45 0.94098,-1 z m 4.15066,34.53203 c -0.30982,-0.80739 -0.13297,-1.73395 0.39301,-2.05902 0.52598,-0.32508 0.95633,0.33551 0.95633,1.46797 0,2.41457 -0.55611,2.65816 -1.34934,0.59105 z M 154.5,265.51456 c -25.20716,-5.57263 -39.87308,-30.93629 -30.75,-53.17993 5.25565,-12.81418 26.67764,-30.20497 36.05791,-29.27252 4.33734,0.43115 7.75231,-0.1782 5.69209,-1.01568 -1.34981,-0.54869 0.54834,-0.93221 5.83879,-1.17971 8.86154,-0.41457 10.32014,0.40635 9.78715,5.5083 -0.42185,4.03809 -1.67249,4.75862 -6.94232,3.99964 C 169.20567,189.65772 164,193.38596 164,197.66804 c 0,1.69621 -0.71649,2.44379 -2.75,2.86933 -7.45834,1.56077 -11.31587,2.83707 -12.35344,4.08727 -1.27048,1.53084 -3.34421,1.90869 -2.43927,0.44446 0.99778,-1.61444 -1.17258,-2.11709 -2.45729,-0.5691 -0.67464,0.81289 -1.69515,1.1884 -2.26782,0.83448 -0.61965,-0.38297 -0.74017,-0.15642 -0.29766,0.55957 0.56934,0.92122 1.07409,0.92873 2.15451,0.0321 2.2342,-1.85422 1.79383,1.31744 -0.60663,4.36913 -10.55306,13.41605 -6.55205,30.81772 8.91992,38.79551 11.51549,5.93773 27.24382,1.71417 28.2676,-7.59075 0.28168,-2.56008 0.79956,-3.04542 3.53166,-3.30975 3.95522,-0.38266 5.44072,-3.60901 2.63912,-5.73189 -2.62824,-1.9915 -5.3407,-1.80993 -5.3407,0.3575 0,5.05935 -13.86731,8.14117 -17.70251,3.93414 -6.08647,-6.67654 -3.36373,-22.75 3.8537,-22.75 0.62058,0 1.70416,-0.7875 2.40796,-1.75 3.91833,-5.35864 21.28625,-0.02 22.29167,6.85213 0.19294,1.31883 0.64294,2.62287 1,2.89787 2.27152,1.74952 3.76285,6.44946 1.8085,5.69951 -0.73738,-0.28296 -1.91054,-0.16228 -2.60702,0.26816 -1.74647,1.07939 -0.32886,5.35243 1.53804,4.63604 1.8667,-0.71632 1.81974,2.08636 -0.0965,5.7606 -1.87835,3.60156 -1.8792,3.59507 0.41484,3.15328 3.71544,-0.71553 -0.12007,7.82386 -6.17076,13.7386 -10.09665,9.86979 -20.48823,13.07699 -33.23792,10.25837 z M 155,200 c 0,-0.55 -0.19844,-1 -0.44098,-1 -0.24254,0 -0.7191,0.45 -1.05902,1 -0.33992,0.55 -0.14148,1 0.44098,1 0.58246,0 1.05902,-0.45 1.05902,-1 z m 8,-11.89301 c 0,-1.2624 -2.71873,-2.15215 -4.49426,-1.47082 -0.82184,0.31537 -1.24528,0.97625 -0.94098,1.46861 0.7199,1.16483 5.43524,1.16674 5.43524,0.002 z M 196.15789,233 c 0,-1.375 0.22698,-1.9375 0.50439,-1.25 0.27741,0.6875 0.27741,1.8125 0,2.5 -0.27741,0.6875 -0.50439,0.125 -0.50439,-1.25 z m 13.4064,-35.70687 c -0.54268,-1.4252 -0.42782,-1.54006 0.5598,-0.5598 0.68342,0.67834 0.99067,1.48524 0.68278,1.79313 -0.30789,0.30789 -0.86705,-0.24711 -1.24258,-1.23333 z M 113.25,184.33772 c -0.6875,-0.27741 -1.21447,-1.47939 -1.17105,-2.67105 0.0547,-1.50015 0.25838,-1.70523 0.66223,-0.66667 0.3208,0.825 1.29778,2.04819 2.17105,2.7182 1.59277,1.22203 0.6769,1.56338 -1.66223,0.61952 z m 8.27565,-7.29622 c -0.35883,-0.5806 0.0705,-1.33304 0.9541,-1.6721 2.19989,-0.84418 2.88424,0.0836 1.13344,1.53666 -0.98557,0.81795 -1.6395,0.86038 -2.08754,0.13544 z M 113,175.58333 C 113,174.7125 113.7125,174 114.58333,174 c 1.76593,0 1.45839,2.15276 -0.39583,2.77083 C 113.53437,176.98854 113,176.45417 113,175.58333 Z M 205.24953,162.75 c 0.62209,-1.86835 3.41283,-2.07227 4.09326,-0.29909 0.44106,1.1494 -0.064,1.54909 -1.95751,1.54909 -1.59686,0 -2.39618,-0.46782 -2.13575,-1.25 z M 216,158.5 c 0,-0.91667 0.48375,-1.50542 1.075,-1.30833 0.59125,0.19708 1.075,0.78583 1.075,1.30833 0,0.5225 -0.48375,1.11125 -1.075,1.30833 C 216.48375,160.00542 216,159.41667 216,158.5 Z"
           id="path20" />
        <path
           style="fill:#53647a"
           d="m 141,305.40438 c -34.30736,-4.12028 -64.698419,-19.48879 -74.436099,-37.64172 -2.999064,-5.59084 1.542674,-9.12151 6.963593,-5.41339 14.76314,10.09859 48.292766,25.07814 60.652556,27.09687 13.47957,2.20164 45.87854,-2.1623 53.59612,-7.21905 1.25744,-0.8239 2.53112,-1.25314 2.8304,-0.95385 0.29928,0.29928 -0.38976,0.84056 -1.53121,1.20284 -1.14145,0.36228 -2.07536,1.0235 -2.07536,1.46937 0,0.44587 1.56771,0.10009 3.48379,-0.76839 2.35514,-1.06749 3.08408,-1.83295 2.25,-2.36275 -0.95678,-0.60773 -0.93989,-0.78712 0.0752,-0.799 0.71996,-0.008 1.05012,-0.43422 0.73369,-0.94621 -0.31644,-0.512 -0.0727,-1.24156 0.54166,-1.62125 C 197.65056,275.24383 208,256.39354 208,252.10217 c 0,-5.10638 1.94753,-9.07093 4.33503,-8.82474 1.56156,0.16102 2.24777,-0.39968 2.48129,-2.02743 0.17753,-1.2375 0.96648,-2.25 1.75323,-2.25 1.65017,0 1.93439,2.57052 0.38977,3.52514 -0.57237,0.35375 -0.76416,1.51439 -0.4262,2.57921 0.48534,1.52917 -0.13657,2.24984 -2.95932,3.42926 -3.20558,1.33938 -3.57052,1.87822 -3.542,5.22981 0.029,3.40054 0.15647,3.57209 1.41805,1.90753 1.13155,-1.493 1.77254,-1.6223 3.48886,-0.70375 1.15644,0.61891 2.58049,0.82995 3.16455,0.46898 0.58407,-0.36097 0.24873,0.85572 -0.74518,2.70376 -0.99391,1.84803 -1.87328,4.22348 -1.95415,5.27878 -0.0809,1.05529 -1.32984,2.78033 -2.77549,3.83341 -2.83178,2.0628 -3.68158,5.36597 -1.12844,4.38624 0.825,-0.31658 1.5,-0.12389 1.5,0.4282 0,0.6358 0.76461,0.59459 2.08565,-0.11241 2.79585,-1.49629 3.50021,-0.53539 2.00808,2.73946 -0.98582,2.16365 -1.41367,2.41357 -2.14712,1.25423 -0.79206,-1.25197 -0.93366,-1.24491 -1.04665,0.0521 -0.0719,0.825 -0.23521,1.95 -0.363,2.5 -0.12778,0.55 -0.30087,1.5625 -0.38465,2.25 -0.30047,2.46594 -4.15231,1.40564 -4.15231,-1.14301 0,-1.31616 -0.675,-2.65203 -1.5,-2.96862 -2.34951,-0.90159 -1.9067,-3.97799 0.48265,-3.35316 1.71835,0.44936 1.83931,0.25064 0.90736,-1.49073 -0.78636,-1.46933 -1.37284,-1.71165 -2.18265,-0.90184 -0.60905,0.60905 -1.86922,1.10736 -2.80037,1.10736 -0.93116,0 -1.94324,0.65208 -2.24907,1.44907 -0.34575,0.901 -0.0754,1.26461 0.71489,0.96136 0.70203,-0.26939 1.81516,0.70671 2.48671,2.1806 1.29117,2.8338 -0.60968,6.40897 -3.40752,6.40897 -0.68091,0 -1.49704,0.675 -1.81363,1.5 -0.75108,1.95731 -3.04955,1.91442 -4.71133,-0.0879 -1.18507,-1.42793 -1.39567,-1.37755 -2.09022,0.5 -0.4912,1.32782 -1.65175,2.08791 -3.18796,2.08791 -3.94141,0 -4.16726,3.63185 -0.27883,4.48373 2.83625,0.62137 2.94229,0.77315 1.12997,1.61747 -1.43909,0.67043 -0.73795,0.7889 2.5,0.42239 4.23892,-0.4798 4.35788,-0.429 2.05038,0.87555 -1.34729,0.76169 -3.10861,1.13201 -3.91404,0.82294 -0.92347,-0.35437 -1.20546,-0.14293 -0.76337,0.57238 0.43482,0.70356 -1.19918,2.09726 -4.30271,3.66994 -6.05619,3.0689 -7.47223,3.18075 -6.78051,0.5356 0.63311,-2.42102 -0.53771,-2.53886 -3.82493,-0.38499 -3.32014,2.17544 -3.16439,3.77739 0.28313,2.91211 5.57777,-1.39993 1.29374,0.60213 -5.3602,2.50498 -7.86279,2.24856 -13.20182,2.31619 -29.38775,0.37228 z m 70.68311,-30.59188 c -0.31922,-0.79773 -0.55618,-0.56078 -0.60416,0.60417 -0.0434,1.05416 0.19292,1.64479 0.52522,1.3125 0.33229,-0.33229 0.36781,-1.1948 0.0789,-1.91667 z m -4.30155,-12.36444 c 0.34149,-0.88992 0.17385,-1.29132 -0.39301,-0.94098 -0.5437,0.33602 -0.98855,1.0344 -0.98855,1.55194 0,1.43843 0.71677,1.12146 1.38156,-0.61096 z M 212,263 c 0,-0.55 -0.47656,-1 -1.05902,-1 -0.58246,0 -0.7809,0.45 -0.44098,1 0.33992,0.55 0.81648,1 1.05902,1 0.24254,0 0.44098,-0.45 0.44098,-1 z m -55.89471,2.97235 c -33.52137,-6.99812 -45.87037,-42.68921 -23.14081,-66.88159 4.38625,-4.66855 5.25013,-5.19906 6.30884,-3.87432 0.67467,0.8442 2.12668,2.03367 3.22668,2.64325 1.96047,1.08644 1.95552,1.12085 -0.25,1.74096 -1.2423,0.34929 -2.25,1.42148 -2.25,2.39401 0,0.96877 -1.0125,2.44837 -2.25,3.28801 -1.68145,1.14086 -1.96591,1.82217 -1.12575,2.69623 1.44997,1.50846 6.37575,2.06234 6.37575,0.71692 0,-0.56603 0.29724,-0.73191 0.66054,-0.36862 0.36329,0.3633 -0.0347,1.4508 -0.88443,2.41667 -0.84974,0.96587 -2.70103,4.00613 -4.11398,6.75613 -1.41295,2.75 -2.58996,4.25 -2.61557,3.33333 -0.0534,-1.91151 -1.75002,-2.71443 -4.3246,-2.04661 -1.23006,0.31907 -1.59071,1.05144 -1.17021,2.37632 0.51322,1.61701 0.23363,1.8212 -1.79616,1.31175 -3.05093,-0.76573 -6.01615,2.115 -3.69129,3.58611 0.78964,0.49966 2.1864,0.91537 3.10391,0.92379 0.91752,0.008 2.34523,0.2751 3.17268,0.59263 0.82746,0.31752 2.43927,-0.35748 3.58179,-1.5 L 137,224 l 0.006,3.25 c 0.0282,16.42659 20.08588,29.62365 35.33808,23.25088 4.77487,-1.99507 7.65634,-5.26535 7.65634,-8.68944 0,-2.91862 1.37995,-3.53125 4,-1.77581 1.28477,0.86079 1.17715,1.27619 -0.75,2.89498 -4.53778,3.81169 -1.34887,6.84573 4.06574,3.86829 1.20134,-0.66061 3.06473,-1.34697 4.14085,-1.52526 1.07613,-0.17828 2.35607,-0.87528 2.84433,-1.54889 0.59038,-0.8145 0.68866,-0.61116 0.29341,0.60704 -0.32688,1.00748 -0.59433,2.22932 -0.59433,2.7152 0,2.83596 -6.03997,7.60592 -9.20706,7.27112 -3.10311,-0.32805 -3.15115,-0.28699 -0.83334,0.7122 l 2.45959,1.06031 -2.95959,2.512 c -7.48034,6.34903 -18.29146,9.26174 -27.35431,7.36973 z M 174.5,258 c -0.33992,-0.55 0.0835,-1 0.94098,-1 0.85746,0 1.55902,-0.49814 1.55902,-1.10699 0,-0.60884 -0.7118,-0.83384 -1.58179,-0.5 -0.86998,0.33385 -2.66998,0.60699 -4,0.60699 -3.31699,0 -3.05984,1.76996 0.33179,2.28375 1.5125,0.22912 2.88906,0.48401 3.05902,0.56642 0.16996,0.0824 0.0309,-0.30017 -0.30902,-0.85017 z m 15,-6.22305 c 0.55,-0.41048 0.002,-0.75322 -1.21862,-0.76164 -1.59181,-0.011 -2.05132,0.42065 -1.62646,1.52782 0.32569,0.84872 0.87406,1.19145 1.21862,0.76163 0.34455,-0.42982 1.07646,-1.11734 1.62646,-1.52781 z M 139.602,240.84216 C 138.7209,239.58422 138,239.12411 138,239.8197 c 0,1.33588 2.2524,4.21386 2.852,3.64411 0.1936,-0.18396 -0.3689,-1.3637 -1.25,-2.62165 z M 128.36163,237.5 c 0.35062,-0.91371 0.002,-1.5 -0.89301,-1.5 -0.80774,0 -1.46862,0.675 -1.46862,1.5 0,0.825 0.40186,1.5 0.89301,1.5 0.49116,0 1.15203,-0.675 1.46862,-1.5 z M 135,236.61663 c 0,-0.21085 -0.90062,-0.61888 -2.00138,-0.90674 -1.10076,-0.28785 -1.7492,-0.11534 -1.44098,0.38337 0.53825,0.87091 3.44236,1.31244 3.44236,0.52337 z M 134,205 c 0,-0.55 -0.47656,-1 -1.05902,-1 -0.58246,0 -0.7809,0.45 -0.44098,1 0.33992,0.55 0.81648,1 1.05902,1 0.24254,0 0.44098,-0.45 0.44098,-1 z m 87.56429,55.70687 c 0.37553,-0.98622 0.93469,-1.54122 1.24258,-1.23333 0.30789,0.30789 6.4e-4,1.11479 -0.68278,1.79313 -0.98762,0.98026 -1.10248,0.8654 -0.5598,-0.5598 z m 2.10733,-11.12023 c -0.37296,-0.97192 -0.44511,-2.14412 -0.16034,-2.60489 0.28477,-0.46076 -0.38877,-1.12548 -1.49676,-1.47714 C 220.90653,245.15295 220,244.25964 220,243.51948 c 0,-1.08025 0.59187,-1.12235 3,-0.21338 3.01496,1.13802 3.50184,2.55403 2.10458,6.12079 -0.70293,1.79434 -0.80149,1.80533 -1.43296,0.15975 z m -60.08604,-12.49208 c -1.91651,-2.11771 -5.06988,-11.51191 -3.54864,-10.57173 0.52968,0.32736 0.96306,1.27579 0.96306,2.10762 0,1.32111 0.19993,1.31248 1.58062,-0.0682 2.84176,-2.84176 4.54602,2.18777 2.08864,6.16389 -0.83171,1.34573 0.89595,2.66062 2.33074,1.77387 0.55,-0.33992 1,-0.21648 1,0.27432 0,0.49079 0.69428,0.89235 1.54285,0.89235 1.15686,0 1.39413,-0.67712 0.94839,-2.70654 -0.65422,-2.97864 1.15686,-4.4292 3.59944,-2.88292 0.77513,0.49069 1.01672,0.89906 0.53688,0.90748 -0.47985,0.008 -0.33445,0.66356 0.32311,1.45587 0.65756,0.79231 1.95016,1.19484 2.87244,0.89452 0.92229,-0.30032 0.32689,0.39847 -1.32311,1.55285 -3.90825,2.73433 -10.53099,2.8403 -12.91442,0.20663 z m 56.10192,-0.74039 c -1.71392,-1.71393 1.60311,-7.17215 4.449,-7.3209 1.51738,-0.0793 1.45277,5.84538 -0.0698,6.39867 -0.86169,0.31314 -2.04485,0.80343 -2.62922,1.08954 -0.58438,0.2861 -1.37188,0.21081 -1.75,-0.16731 z m -23.60855,-3.9375 c 0.048,-1.16495 0.28494,-1.4019 0.60416,-0.60417 0.28887,0.72187 0.25335,1.58437 -0.0789,1.91667 -0.3323,0.33229 -0.56864,-0.25834 -0.52522,-1.3125 z M 161,220.49869 c 0,-0.83505 0.91459,-2.30136 2.03242,-3.25848 2.03026,-1.73836 3.0199,-1.90515 2.90856,-0.49021 -0.0325,0.4125 0.98004,1.02289 2.25,1.35643 2.18435,0.57369 2.14704,0.64445 -0.69098,1.31041 -1.65,0.38718 -3.7875,1.1306 -4.75,1.65204 -1.31454,0.71216 -1.75,0.57027 -1.75,-0.57019 z M 170.5,221 c 0.33992,-0.55 0.81648,-1 1.05902,-1 0.24254,0 0.44098,0.45 0.44098,1 0,0.55 -0.47656,1 -1.05902,1 -0.58246,0 -0.7809,-0.45 -0.44098,-1 z m 19.11436,-3.42361 c 0.58854,-1.5448 0.39305,-1.79321 -0.99269,-1.26145 -0.99809,0.383 -1.47562,0.25776 -1.13271,-0.29708 0.89943,-1.45531 -4.33039,-2.41114 -6.86753,-1.25514 -1.62057,0.73838 -2.90019,0.64598 -4.67626,-0.33765 C 174.60033,213.68026 172.375,213.03898 171,213 l -2.5,-0.0709 2.5,-1.4291 c 6.62049,-3.78461 23.66882,2.256 19.11713,6.77363 -0.97873,0.9714 -1.08326,0.82644 -0.50277,-0.69724 z M 206,215.55902 C 206,214.70156 206.45,214 207,214 c 0.55,0 1,0.42344 1,0.94098 0,0.51754 -0.45,1.2191 -1,1.55902 -0.55,0.33992 -1,-0.0835 -1,-0.94098 z m 0.45888,-4.62555 c -0.36253,-0.58659 -0.44468,-1.281 -0.18255,-1.54313 0.26212,-0.26213 0.74306,0.21781 1.06875,1.06653 0.67618,1.76211 0.0999,2.07206 -0.8862,0.4766 z M 183.25,200.2766 c -1.7875,-0.22182 -3.25,-0.77235 -3.25,-1.22338 0,-1.24896 4.59933,-1.85695 6.40467,-0.84663 1.59922,0.89497 2.25374,2.9339 0.84533,2.63337 -0.4125,-0.088 -2.2125,-0.34153 -4,-0.56336 z m -15.4375,-0.95971 c 0.72187,-0.28887 1.58437,-0.25335 1.91667,0.0789 0.33229,0.33229 -0.25834,0.56864 -1.3125,0.52522 -1.16495,-0.048 -1.4019,-0.28494 -0.60417,-0.60416 z M 188.16342,195.25 c -3.29924,-3.94222 -3.8328,-5.25 -2.14198,-5.25 0.56179,0 1.5477,1.15502 2.19091,2.56671 0.75056,1.64731 1.76661,2.41055 2.83653,2.13076 2.37281,-0.62051 4.9708,1.08768 4.3026,2.82898 -0.97798,2.54858 -3.9333,1.61263 -7.18806,-2.27645 z m -38.72361,-0.54625 c -0.83311,-2.17106 1.40384,-5.97773 3.1247,-5.31737 0.77612,0.29783 3.70372,0.84563 6.50576,1.21733 5.09379,0.67572 5.09431,0.67616 3.09563,2.67483 -2.66184,2.66184 -11.85641,3.69155 -12.72609,1.42521 z m 22.82922,-8.39674 c 0.97297,-0.25354 2.32297,-0.23687 3,0.0371 0.67703,0.27393 -0.11903,0.48137 -1.76903,0.46099 -1.65,-0.0204 -2.20394,-0.2445 -1.23097,-0.49804 z M 113,175 c 0,-0.55 0.45,-1 1,-1 0.55,0 1,0.45 1,1 0,0.55 -0.45,1 -1,1 -0.55,0 -1,-0.45 -1,-1 z"
           id="path19" />
        <path
           style="fill:#4a5c82"
           d="m 134.82657,304.50075 c -27.60771,-3.8411 -57.489565,-19.42118 -66.924471,-34.89371 -4.185177,-6.86337 -1.428411,-10.29676 5.454018,-6.79265 5.533686,2.81741 23.672627,12.50765 31.143883,16.63778 15.04958,8.31945 30.55031,11.89994 47.47941,10.96721 11.75975,-0.64792 13.05443,-0.85905 25.89248,-4.22244 5.0042,-1.31104 8.45686,-1.68664 10.75,-1.16945 1.88803,0.42582 3.37811,0.36724 3.37811,-0.1328 0,-0.49208 -0.5625,-0.91064 -1.25,-0.93013 -0.6875,-0.0195 -0.125,-0.67854 1.25,-1.46456 1.52219,-0.87016 1.91331,-1.45182 1,-1.48715 -1.3264,-0.0513 8.60705,-6.93346 10.08948,-6.99026 0.32422,-0.0124 1.12866,1.16076 1.78765,2.60708 C 206.15027,279.4239 204.22751,283 201.452,283 c -0.68091,0 -1.49704,0.675 -1.81363,1.5 -0.75108,1.95731 -3.04955,1.91442 -4.71133,-0.0879 -1.18507,-1.42793 -1.39567,-1.37755 -2.09022,0.5 -0.4912,1.32782 -1.65175,2.08791 -3.18796,2.08791 -3.96677,0 -4.20242,3.71775 -0.29068,4.58584 2.81233,0.62411 2.93207,0.78806 1.14182,1.56327 -1.57221,0.68079 -1.31614,0.79617 1.19719,0.53941 1.75845,-0.17965 2.96939,0.0419 2.69098,0.49242 -0.27841,0.45048 -1.26715,0.83501 -2.19719,0.8545 -1.81494,0.038 -7.34357,2.86991 -5.71847,2.92912 0.53487,0.0195 -0.0766,0.77026 -1.35883,1.66837 -1.82355,1.27726 -2.50109,1.35826 -3.1107,0.37188 -0.44488,-0.71983 -1.32285,-0.92515 -2.04569,-0.47842 -0.82447,0.50955 -1.01734,0.3798 -0.55278,-0.37188 1.49782,-2.42354 -2.3237,-1.03078 -5.54875,2.02224 -2.63201,2.49161 -4.32629,3.21915 -7.85576,3.37334 -2.475,0.10813 -8.325,0.44408 -13,0.74657 -4.9197,0.31832 -12.57456,-0.0169 -18.17343,-0.79591 z m 47.7202,-10.42507 c -0.31419,-0.50837 0.19529,-1.07194 1.13218,-1.25237 1.30687,-0.25168 1.08523,-0.60973 -0.95204,-1.53797 -3.12113,-1.42208 -4.43022,-0.13151 -2.16467,2.13404 1.73459,1.73459 2.88636,2.11549 1.98453,0.6563 z m 26.8341,-14.59938 c -0.40153,-1.08697 -1.32648,-2.33616 -2.05546,-2.77599 -2.16096,-1.30382 -1.63908,-4.0156 0.65724,-3.4151 1.71835,0.44936 1.83931,0.25064 0.90736,-1.49073 -0.78636,-1.46933 -1.37284,-1.71165 -2.18265,-0.90184 -1.98908,1.98908 -3.20781,1.1688 -3.18378,-2.14285 0.026,-3.58358 1.16567,-6.05988 2.42946,-5.27881 0.44817,0.27698 1.37167,-0.84068 2.05222,-2.48369 0.68056,-1.64301 1.64691,-2.98729 2.14745,-2.98729 1.48341,0 2.33342,3.33796 0.96607,3.79374 -0.90251,0.30084 -0.77292,0.93095 0.47508,2.30997 1.59803,1.76581 1.60224,2.02212 0.0611,3.72503 -2.04188,2.25625 -2.16709,4.58175 -0.20618,3.82928 2.47784,-0.95084 2.89823,3.10406 0.68432,6.6007 -1.85056,2.92276 -2.08419,3.02612 -2.75226,1.21758 z m 2.30224,-4.6638 c -0.31922,-0.79773 -0.55618,-0.56078 -0.60416,0.60417 -0.0434,1.05416 0.19292,1.64479 0.52522,1.3125 0.33229,-0.33229 0.36781,-1.1948 0.0789,-1.91667 z m -58.70147,-9.8492 c -11.66317,-2.77061 -25.62613,-12.98548 -22.29863,-16.31298 0.33179,-0.33178 -0.13616,-0.88698 -1.03988,-1.23377 C 128.73941,247.06976 128,246.15917 128,245.39301 128,244.62686 127.55,244 127,244 c -0.55,0 -0.92856,-0.3375 -0.84124,-0.75 0.0873,-0.4125 -0.13018,-1.425 -0.48333,-2.25 -3.93025,-9.18157 -5.19277,-23.48051 -2.17543,-24.63837 0.825,-0.31659 1.5,-1.4009 1.5,-2.4096 0,-1.0087 0.46193,-2.11949 1.02652,-2.46842 0.56459,-0.34893 0.96127,-1.16299 0.88152,-1.80902 -0.35628,-2.88598 0.28101,-3.67459 2.96952,-3.67459 1.58265,0 3.43775,0.675 4.12244,1.5 0.68469,0.825 2.04712,1.5 3.02762,1.5 1.62138,0 2.02992,3.46536 1.06562,9.03892 -0.0513,0.29641 -1.7496,0.58306 -3.77403,0.63701 -2.02444,0.0539 -4.1723,0.71143 -4.77304,1.46108 -0.60074,0.74964 -1.9551,1.84514 -3.00969,2.43443 -4.59345,2.56677 -1.59455,4.71741 6.71186,4.81338 3.31704,0.0383 3.76058,0.33712 3.82868,2.57926 0.28618,9.42351 2.3214,15.14378 4.83523,13.59015 0.51018,-0.31531 1.86363,0.61669 3.00768,2.0711 1.14404,1.45441 2.08007,2.37727 2.08007,2.0508 0,-0.32648 2.20873,0.51579 4.90829,1.8717 9.28295,4.66256 18.56491,4.03041 26.06779,-1.77534 1.48293,-1.1475 2.61938,-1.48612 2.83333,-0.84425 0.47569,1.42705 3.79714,1.36061 6.50633,-0.13015 3.50949,-1.93112 4.46846,-1.74426 4.32194,0.84217 -0.0989,1.74595 -0.90272,2.63157 -2.8545,3.14503 -2.10649,0.55415 -2.50306,1.05168 -1.76531,2.21471 0.632,0.99632 0.95665,1.08026 0.96682,0.25 0.008,-0.6875 0.52041,-1.25 1.13775,-1.25 0.82041,0 0.82552,0.35778 0.019,1.32959 -0.61738,0.7439 -2.54348,1.20273 -4.37245,1.0416 -1.79794,-0.1584 -2.48148,-0.0487 -1.51898,0.24373 0.9625,0.29245 1.75,1.02373 1.75,1.62507 0,0.60134 -0.29301,0.80034 -0.65112,0.44222 -0.35812,-0.35812 -1.18071,0.0731 -1.82799,0.95833 -1.35267,1.84989 -6.13337,2.14698 -7.79589,0.48446 -0.83333,-0.83333 -0.68426,-1.125 0.575,-1.125 0.935,0 1.7,-0.49814 1.7,-1.10699 0,-0.60884 -0.7118,-0.83384 -1.58179,-0.5 -0.86998,0.33385 -2.66998,0.60699 -4,0.60699 -1.33001,0 -2.41821,0.45 -2.41821,1 0,0.55 1.0699,1 2.37756,1 2.40076,0 4.18044,1.41621 4.79025,3.81191 0.823,3.23325 -14.22932,5.27911 -23.18617,3.15139 z M 128.36163,237.5 c 0.35062,-0.91371 0.002,-1.5 -0.89301,-1.5 -0.80774,0 -1.46862,0.675 -1.46862,1.5 0,0.825 0.40186,1.5 0.89301,1.5 0.49116,0 1.15203,-0.675 1.46862,-1.5 z M 135,236.61663 c 0,-0.21085 -0.90062,-0.61888 -2.00138,-0.90674 -1.10076,-0.28785 -1.7492,-0.11534 -1.44098,0.38337 0.53825,0.87091 3.44236,1.31244 3.44236,0.52337 z m 72.04584,21.29772 c 0.61391,-1.1471 1.31533,-1.88651 1.55872,-1.64312 0.6999,0.69989 -0.71897,3.72877 -1.74673,3.72877 -0.51083,0 -0.42629,-0.93781 0.18801,-2.08565 z m 4.51295,-10.49502 c -1.05204,-0.76927 -1.72064,-1.51581 -1.48579,-1.659 0.23485,-0.14318 1.327,-0.75629 2.427,-1.36246 1.1,-0.60617 2.1438,-2.06867 2.31955,-3.25 0.17575,-1.18133 0.96325,-2.14787 1.75,-2.14787 1.65017,0 1.93439,2.57052 0.38977,3.52514 -0.57237,0.35375 -0.77574,1.4779 -0.45194,2.49811 0.84323,2.65678 -2.42676,4.24009 -4.94859,2.39608 z M 221.25,245.33772 C 220.5625,245.06031 220,244.18 220,243.38148 c 0,-1.14197 0.42687,-1.22339 2,-0.38148 3.19407,1.70941 2.56353,3.67476 -0.75,2.33772 z m -40.69423,-2.24748 c -0.64282,-1.04011 0.33362,-4.09797 1.30122,-4.07493 2.2692,0.054 3.46149,1.89602 2.20626,3.40847 -1.47603,1.77852 -2.67893,2.00708 -3.50748,0.66646 z m -10.09539,-8.21509 c -0.71731,-2.26003 0.95826,-4.03547 3.05069,-3.23253 1.57893,0.60589 0.63858,5.35738 -1.06026,5.35738 -0.72382,0 -1.61951,-0.95618 -1.99043,-2.12485 z m 49.20629,1.45818 c -1.20893,-1.20893 -0.69422,-4.10878 0.83333,-4.69496 1.12574,-0.43198 1.5,0.16509 1.5,2.39301 0,2.83949 -0.90398,3.73131 -2.33333,2.30195 z M 163.25,232.77951 c -2.66406,-1.28483 -2.79251,-2.09414 -0.66938,-4.21727 2.12563,-2.12563 3.37843,-1.13658 3.12657,2.46833 -0.11396,1.631 -0.20719,2.93589 -0.20719,2.89976 0,-0.0361 -1.0125,-0.554 -2.25,-1.15082 z M 170.5,221 c 0.33992,-0.55 0.81648,-1 1.05902,-1 0.24254,0 0.44098,0.45 0.44098,1 0,0.55 -0.47656,1 -1.05902,1 -0.58246,0 -0.7809,-0.45 -0.44098,-1 z M 167,218.96862 C 167,218.43588 167.675,218 168.5,218 c 0.825,0 1.5,0.17686 1.5,0.39301 0,0.21616 -0.675,0.65203 -1.5,0.96862 -0.825,0.31658 -1.5,0.13972 -1.5,-0.39301 z m 7.90365,-5.14784 c -2.02381,-1.12349 -2.4915,-1.64554 -1.15365,-1.28775 1.30387,0.34871 2.25,0.15291 2.25,-0.46564 0,-1.44693 2.23948,-1.34335 5.30139,0.24519 l 2.53001,1.31259 -2.76205,1.04255 c -2.2099,0.83414 -3.44245,0.66484 -6.1657,-0.84694 z m 31.55523,-2.88731 c -0.36253,-0.58659 -0.44468,-1.281 -0.18255,-1.54313 0.26212,-0.26213 0.74306,0.21781 1.06875,1.06653 0.67618,1.76211 0.0999,2.07206 -0.8862,0.4766 z M 133.75,204.32824 c -0.9625,-0.26119 -1.75,-0.83679 -1.75,-1.27912 0,-1.38724 2.8632,-3.2517 3.9562,-2.57619 0.5889,0.36396 1.0438,-0.2056 1.0438,-1.30692 0,-2.61128 2.05673,-3.25446 5.05038,-1.57936 l 2.44962,1.37069 -2.19381,0.62327 c -1.22003,0.34661 -2.32972,1.57673 -2.5,2.77133 -0.30944,2.17087 -2.59306,2.91608 -6.05619,1.9763 z m 49.4,-5.27824 c 0.42971,-1.28914 1.80131,-1.5207 1.925,-0.325 0.0413,0.39875 -0.465,0.905 -1.125,1.125 -0.66,0.22 -1.02,-0.14 -0.8,-0.8 z M 190.5,198 c -0.33992,-0.55 -0.14148,-1 0.44098,-1 0.58246,0 1.05902,-0.69083 1.05902,-1.53518 0,-1.2156 0.4086,-1.31651 1.96276,-0.48475 1.15373,0.61746 1.72792,1.66244 1.39301,2.53518 -0.64406,1.67842 -3.91616,2.00507 -4.85577,0.48475 z m -41.06019,-3.29625 c -0.83311,-2.17106 1.40384,-5.97773 3.1247,-5.31737 0.77612,0.29783 3.70372,0.84563 6.50576,1.21733 5.09379,0.67572 5.09431,0.67616 3.09563,2.67483 -2.66184,2.66184 -11.85641,3.69155 -12.72609,1.42521 z m 36.73145,-1.80113 c -1.69576,-2.71534 -0.45019,-4.00456 1.4105,-1.45992 0.78003,1.06676 1.41824,2.30355 1.41824,2.74843 0,1.50785 -1.5127,0.81881 -2.82874,-1.28851 z m -13.90223,-6.59561 c 0.97297,-0.25354 2.32297,-0.23687 3,0.0371 0.67703,0.27393 -0.11903,0.48137 -1.76903,0.46099 -1.65,-0.0204 -2.20394,-0.2445 -1.23097,-0.49804 z"
           id="path18" />
        <path
           style="fill:#465775"
           d="m 134.82657,304.50223 c -27.61486,-3.84631 -57.490153,-19.42363 -66.924471,-34.89519 -4.185177,-6.86337 -1.428411,-10.29676 5.454018,-6.79265 5.719154,2.91184 23.884923,12.62274 31.143883,16.64862 19.38142,10.74911 50.33511,14.47457 68,8.1842 2.2,-0.78341 6.025,-1.69521 8.5,-2.02623 l 4.5,-0.60186 -3.43963,1.30934 c -4.35686,1.65848 -4.74393,2.90282 -2.07075,6.65696 L 182.13619,296 h -2.0681 C 178.93064,296 178,295.53417 178,294.96482 c 0,-0.71358 -0.60093,-0.71358 -1.93426,0 -4.39188,2.35046 -13.74256,-0.51844 -10.06087,-3.08679 1.08329,-0.75571 0.12899,-0.87992 -3.46447,-0.45092 -7.69473,0.91861 -8.80944,4.51447 -1.41284,4.55758 1.44515,0.008 3.18775,0.69031 3.87244,1.51531 0.68469,0.825 1.98154,1.5 2.8819,1.5 2.41811,0 4.72978,3.99719 2.96027,5.11871 -2.17855,1.38076 -2.59366,1.03214 -2.06486,-1.73412 l 0.49997,-2.61542 -7.03432,0.70643 c -7.11026,0.71406 -9.86573,0.0445 -13.09137,-3.18115 -0.76433,-0.76433 -1.61974,-1.15963 -1.90092,-0.87846 -0.80088,0.80088 5.08281,7.43113 6.666,7.51181 0.77916,0.0397 1.10111,0.38775 0.71544,0.77342 -1.26165,1.26165 -9.94508,1.17441 -19.80554,-0.19899 z m -17.39295,-9.40001 c 1.0635,-0.41647 1.50785,-1.02036 0.98745,-1.34198 -0.52039,-0.32162 -2.06552,0.0348 -3.43362,0.79206 -2.61764,1.44889 -0.85902,1.84424 2.44617,0.54992 z M 136.36163,294.5 c 0.38326,-0.99877 -0.0822,-1.55012 -1.39301,-1.65 -1.08274,-0.0825 -2.49362,-0.195 -3.13529,-0.25 -2.25048,-0.1929 -1.92396,2.2505 0.35904,2.68671 1.2692,0.24251 2.59699,0.50221 2.95064,0.57711 0.35366,0.0749 0.90203,-0.53882 1.21862,-1.36382 z M 127.5,294 c -0.33992,-0.55 -1.04148,-1 -1.55902,-1 -0.51754,0 -0.94098,0.45 -0.94098,1 0,0.55 0.70156,1 1.55902,1 0.85746,0 1.2809,-0.45 0.94098,-1 z m 29.3125,10.31689 c 0.72187,-0.28887 1.58437,-0.25335 1.91667,0.0789 0.33229,0.33229 -0.25834,0.56864 -1.3125,0.52522 -1.16495,-0.048 -1.4019,-0.28494 -0.60417,-0.60416 z m 24.86193,-4.72293 c -1.04095,-2.71267 4.38547,-5.92408 5.89178,-3.48683 0.46419,0.75107 -0.0797,0.89652 -1.69098,0.45225 -2.07777,-0.57286 -2.14733,-0.51255 -0.55546,0.48161 1.7597,1.09897 1.7597,1.18202 0,2.51594 -2.32654,1.76361 -2.98024,1.77025 -3.64534,0.037 z m 3.05474,-1.19813 c -0.3323,-0.33229 -1.1948,-0.36781 -1.91667,-0.0789 -0.79773,0.31922 -0.56078,0.55618 0.60417,0.60416 1.05416,0.0434 1.64479,-0.19293 1.3125,-0.52522 z m 18.84107,-31.07337 c -0.36417,-0.94904 0.0236,-2.3449 0.89302,-3.21429 1.38232,-1.38232 1.53674,-1.21376 1.53674,1.67754 0,3.43586 -1.36879,4.30157 -2.42976,1.53675 z M 154.5,265.31884 c -6.22453,-1.39791 -8.5,-2.57484 -8.5,-4.39639 0,-1.99736 -1.46323,-2.59997 -2.44721,-1.00786 -0.31089,0.50302 5e-5,1.1425 0.69098,1.42105 0.69093,0.27856 0.78183,0.54199 0.20201,0.58541 -3.82919,0.28676 -15.35673,-10.63808 -13.83057,-13.10746 0.28135,-0.45524 -0.19197,-1.09768 -1.05183,-1.42764 C 128.70352,247.05599 128,246.15917 128,245.39301 128,244.62686 127.52344,244 126.94098,244 c -0.58246,0 -0.75121,-0.49804 -0.375,-1.10676 0.4865,-0.78718 0.90496,-0.74927 1.44916,0.13126 0.42083,0.68092 1.82708,1.29146 3.125,1.35677 1.29792,0.0653 2.36675,0.56873 2.37517,1.11873 0.0737,4.81488 9.38461,3.95704 9.46938,-0.87244 0.008,-0.47985 -0.77219,-0.25485 -1.73469,0.5 -1.60806,1.26112 -1.63155,1.2219 -0.28957,-0.48358 1.40212,-1.78191 1.55185,-1.74973 3.75,0.80577 1.25926,1.46398 2.28957,2.43025 2.28957,2.14728 0,-0.28297 2.24354,0.61237 4.98565,1.98965 6.66716,3.34873 13.44757,4.0948 18.40175,2.02481 5.06463,-2.11613 6.52005,-2.03293 6.33961,0.36243 -0.18847,2.50198 -2.28681,3.33204 -4.8948,1.93628 -1.64891,-0.88247 -2.40413,-0.67344 -4.08487,1.13063 l -2.06196,2.21325 2.1984,1.65825 c 1.20911,0.91204 3.39753,1.7575 4.86314,1.8788 3.4684,0.28705 5.15304,1.92629 2.87717,2.79963 -0.94069,0.36097 -1.96951,0.39715 -2.28627,0.0804 -0.31675,-0.31676 -1.22949,0.0777 -2.0283,0.87646 -1.40994,1.40994 -11.83559,1.88826 -16.80952,0.77122 z m 7.84934,-3.78681 c 0.30982,-0.80739 0.13297,-1.73395 -0.39301,-2.05902 C 161.43035,259.14793 161,259.35852 161,259.94098 c 0,0.58246 -0.7875,1.06591 -1.75,1.07433 -1.49555,0.0131 -1.5319,0.15626 -0.25,0.98469 2.05835,1.33021 2.69336,1.24149 3.34934,-0.46797 z m 44.6965,-3.61768 c 0.61391,-1.1471 1.31533,-1.88651 1.55872,-1.64312 0.6999,0.69989 -0.71897,3.72877 -1.74673,3.72877 -0.51083,0 -0.42629,-0.93781 0.18801,-2.08565 z M 210,245.94098 c 0,-0.58246 0.45,-0.7809 1,-0.44098 0.55,0.33992 1,0.81648 1,1.05902 0,0.24254 -0.45,0.44098 -1,0.44098 -0.55,0 -1,-0.47656 -1,-1.05902 z M 180.01531,242.25 c 0.0189,-0.92503 1.91864,-3.94289 2.04589,-3.25 0.0505,0.275 0.24257,1.2875 0.42683,2.25 0.19111,0.99836 -0.27126,1.75 -1.07651,1.75 -0.77634,0 -1.40463,-0.3375 -1.39621,-0.75 z m -57.38797,-9.51125 c -0.33001,-1.23131 -0.60618,-3.34125 -0.61369,-4.68875 -0.0188,-3.37403 1.96527,-1.29084 2.59873,2.72855 0.56404,3.57886 -1.10852,5.2305 -1.98504,1.9602 z M 133.75,232.42803 c -3.51181,-1.90519 -3.47364,-2.98012 0.15071,-4.24357 2.79762,-0.97526 2.91487,-0.88988 3.2992,2.40217 0.44953,3.8506 0.35078,3.9033 -3.44991,1.8414 z m -11.74384,-11.61901 c -0.003,-2.03004 0.44702,-3.97107 1.0009,-4.31339 1.78098,-1.1007 2.11311,2.04459 0.53539,5.07012 L 122.01232,224.5 Z m 15.02425,-2.61804 C 137.01368,217.47102 136.55,217.16008 136,217.5 c -0.55,0.33992 -1,0.12735 -1,-0.47237 0,-1.23502 2.79743,-2.56353 3.63479,-1.72617 0.3017,0.30169 0.071,1.36979 -0.51272,2.37354 -0.6277,1.07943 -1.07368,1.29023 -1.09166,0.51598 z m -5.81428,-2.03624 c -0.7659,-0.48598 -1.0091,-1.58928 -0.60282,-2.73469 0.55847,-1.57446 0.43857,-1.69507 -0.66613,-0.67005 -1.59643,1.48127 -3.32574,1.67155 -2.45995,0.27067 0.33289,-0.53864 0.19526,-1.77614 -0.30586,-2.75 -2.30981,-4.4889 2.00805,-5.73213 6.49721,-1.87072 l 2.79011,2.39995 -2.48435,2.06678 c -1.36639,1.13673 -1.92184,2.08175 -1.23434,2.10005 0.6875,0.0183 1.25,0.48327 1.25,1.03327 0,1.20259 -1.04123,1.26047 -2.78387,0.15474 z M 177,212 c -1.21296,-0.78387 -1.06944,-0.9723 0.75,-0.98469 1.2375,-0.008 2.25,0.43469 2.25,0.98469 0,1.25292 -1.06124,1.25292 -3,0 z"
           id="path17" />
        <path
           style="fill:#3b4e69"
           d="m 139.61009,304.17813 c -0.27937,-0.45203 -2.21843,-0.67335 -4.30902,-0.49184 -5.49049,0.47673 -18.20585,-2.28177 -25.50479,-5.53307 -3.46296,-1.54256 -7.72633,-3.42857 -9.47416,-4.19113 -1.747831,-0.76255 -2.915802,-1.81051 -2.59549,-2.32879 0.320313,-0.51827 0.07683,-0.62987 -0.541065,-0.24799 -1.059989,0.65511 -9.134818,-2.7889 -8.28883,-3.53529 C 89.633234,287.20024 87.873898,283 86.865225,283 c -0.553827,0 -0.723745,1.00389 -0.380834,2.25 0.570643,2.07367 0.508507,2.11285 -0.792855,0.5 -0.776612,-0.9625 -1.856058,-1.75 -2.398769,-1.75 -0.542711,0 -1.927099,-0.81556 -3.076418,-1.81236 -1.149319,-0.9968 -3.255409,-2.6843 -4.680202,-3.75 -3.524638,-2.63632 -7.807959,-9.28693 -7.125934,-11.06426 0.305838,-0.797 -0.111344,-1.7052 -0.927072,-2.01822 -1.800619,-0.69097 -1.976295,-3.30842 -0.233141,-3.47364 2.703967,-0.2563 4.484403,0.32 10.5,3.39871 5.856865,2.99747 8.579098,6.1416 4.362859,5.03903 -1.037928,-0.27142 -2.168645,-0.038 -2.512704,0.51869 -0.970363,1.57008 1.574343,6.30907 3.077965,5.73207 0.727034,-0.27899 1.32188,-0.0714 1.32188,0.46136 0,1.9832 1.555093,0.87076 2.839706,-2.03138 1.688651,-3.81493 2.232154,-3.77024 10.580855,0.87003 C 103.36956,279.17653 106.85036,283 103.91152,283 103.41018,283 103,282.49752 103,281.88337 c 0,-0.61415 -0.86633,-0.89008 -1.92518,-0.61319 -1.350555,0.35318 -1.766341,0.0895 -1.393013,-0.88336 0.292694,-0.76275 0.371523,-1.37999 0.175182,-1.37164 -1.031486,0.0439 -9.223692,2.86125 -8.484544,2.91792 0.479844,0.0368 0.405611,0.6294 -0.164963,1.3169 -0.773183,0.93163 -0.485997,1.27831 1.127555,1.36115 9.213583,0.47302 11.267253,1.45535 12.078053,5.77727 0.70882,3.77835 4.58691,4.19681 4.58691,0.49495 0,-1.03585 0.5051,-1.88337 1.12244,-1.88337 0.82145,0 0.82599,-0.35721 0.017,-1.33204 -3.23357,-3.89622 1.06477,-4.61782 8.86061,-1.48752 4.125,1.65633 8.85,3.3759 10.5,3.82127 2.11997,0.57222 1.05578,0.71185 -3.62775,0.47599 -6.07006,-0.30569 -22.51572,5.18576 -16.87225,5.63389 0.825,0.0655 1.95,0.22366 2.5,0.35145 0.55,0.12778 3.4375,0.30087 6.41667,0.38465 2.97916,0.0838 5.11933,0.44964 4.75592,0.81305 -0.59077,0.59078 1.14079,1.90622 5.20988,3.95786 0.76035,0.38337 2.171,0.20459 3.13477,-0.39729 2.02767,-1.26631 6.25786,-0.47545 5.34628,0.99951 -0.37899,0.61323 0.21528,0.73025 1.55271,0.30577 5.28286,-1.67672 8.78209,-1.51743 10.59167,0.48214 1.77704,1.96361 1.73129,1.99127 -3.2939,1.99127 -2.80278,0 -5.32454,-0.36984 -5.60391,-0.82187 z M 102.5,292 c -0.33992,-0.55 -1.06803,-1 -1.61803,-1 -0.55,0 -0.72189,0.45 -0.38197,1 0.33992,0.55 1.06803,1 1.61803,1 0.55,0 0.72189,-0.45 0.38197,-1 z m 54.5,7.263 c -2.37581,-0.44155 -3.95116,-1.84058 -3.98469,-3.53868 -0.008,-0.42662 1.22219,-0.15087 2.73469,0.61279 1.5125,0.76367 3.3125,1.18772 4,0.94235 0.6875,-0.24537 1.25,0.26637 1.25,1.13721 0,0.87083 -0.3375,1.52205 -0.75,1.44715 -0.4125,-0.0749 -1.875,-0.34527 -3.25,-0.60082 z m 11.74657,-4.84977 C 167.76468,293.43135 169.08992,291 170.60699,291 171.37314,291 172,290.37314 172,289.60699 c 0,-0.76616 0.7118,-1.66616 1.58179,-2 2.41635,-0.92724 2.77213,-0.73837 1.49892,0.79576 -0.89415,1.07738 -0.86456,1.51348 0.12755,1.88011 1.0133,0.37445 0.96841,0.80338 -0.20826,1.98992 -1.75915,1.77389 -5.38047,3.01342 -6.25343,2.14045 z m -25.08915,-1.86359 C 143.16438,291.26479 144.01145,291 148.61472,291 c 3.99436,0 5.4365,0.35069 5.14044,1.25 -0.64152,1.94872 -9.36558,2.2076 -10.09774,0.29964 z M 135.75525,254.5 C 136.14004,252.48707 139,251.31186 139,253.16667 139,253.625 138.56412,254 138.03138,254 c -0.53273,0 -0.73837,0.6 -0.45696,1.33333 0.2814,0.73334 -0.10598,1.33334 -0.86085,1.33334 -0.86847,0 -1.2204,-0.79568 -0.95832,-2.16667 z M 132.5,253 c -0.33992,-0.55 0.0835,-1 0.94098,-1 0.85746,0 1.55902,0.45 1.55902,1 0,0.55 -0.42344,1 -0.94098,1 -0.51754,0 -1.2191,-0.45 -1.55902,-1 z m 2.16667,-20.66667 c -1.00268,-1.00268 -0.80132,-2.53458 0.24792,-1.88612 0.50302,0.31089 1.1425,-5e-5 1.42105,-0.69098 0.27856,-0.69093 0.54199,-0.24373 0.58541,0.99377 0.0773,2.20328 -0.92822,2.9095 -2.25438,1.58333 z m -12.58772,-2.91666 c 0.048,-1.16495 0.28494,-1.4019 0.60416,-0.60417 0.28887,0.72187 0.25335,1.58437 -0.0789,1.91667 -0.3323,0.33229 -0.56864,-0.25834 -0.52522,-1.3125 z"
           id="path16" />
      </g>
    </g>
  </g>
</svg>
