<?xml version="1.0" encoding="UTF-8" standalone="no"?>
<!-- Created with Inkscape (http://www.inkscape.org/) -->

<svg
   version="1.1"
   id="svg1"
   width="329"
   height="329"
   viewBox="0 0 329 329"
   sodipodi:docname="fire_icon.svg"
   inkscape:version="1.3.2 (091e20e, 2023-11-25, custom)"
   xmlns:inkscape="http://www.inkscape.org/namespaces/inkscape"
   xmlns:sodipodi="http://sodipodi.sourceforge.net/DTD/sodipodi-0.dtd"
   xmlns="http://www.w3.org/2000/svg"
   xmlns:svg="http://www.w3.org/2000/svg">
  <defs
     id="defs1" />
  <sodipodi:namedview
     id="namedview1"
     pagecolor="#505050"
     bordercolor="#eeeeee"
     borderopacity="1"
     inkscape:showpageshadow="0"
     inkscape:pageopacity="0"
     inkscape:pagecheckerboard="0"
     inkscape:deskcolor="#505050"
     showgrid="false"
     inkscape:zoom="1.28"
     inkscape:cx="118.75"
     inkscape:cy="156.64063"
     inkscape:window-width="1600"
     inkscape:window-height="829"
     inkscape:window-x="-8"
     inkscape:window-y="-8"
     inkscape:window-maximized="1"
     inkscape:current-layer="g3717" />
  <g
     inkscape:groupmode="layer"
     inkscape:label="Image"
     id="g1">
    <g
       id="g3703">
      <g
         id="g3717"
         transform="translate(12.853004,3.8463551)">
        <path
           style="fill:#c88c74"
           d="M 156.5,302.40681 C 126.84469,297.83229 98.084428,272.59573 88.021721,242.31845 68.951404,184.93853 93.716275,145.78815 178,100.07325 205.62454,85.089897 215,74.503124 215,58.292835 215,47.028456 209.29104,33.3588 201.54905,26.085579 c -6.52588,-6.130748 -2.57434,-7.343335 11.62879,-3.568462 13.6033,3.615454 17.39557,10.42946 17.26517,31.022377 -0.16567,26.164357 -9.89699,37.673073 -54.97616,65.017336 -46.05441,27.93584 -62.676,46.52878 -72.84332,81.48266 -3.238864,11.13477 5.80089,41.22306 16.70938,55.61618 17.81912,23.5113 60.71894,33.01216 87.61481,19.40372 34.73199,-17.57326 37.68746,-77.24322 4.55228,-91.90903 -21.7124,-9.61002 -40.07469,-8.77445 -50.96799,2.31927 -20.73403,21.11551 -5.82956,57.56986 23.53762,57.56986 8.89894,0 20.27916,-5.02935 15.22831,-6.72997 -6.54941,-2.20518 -14.26512,-13.56374 -14.28602,-21.03092 -0.0628,-22.43576 33.10019,-26.82286 41.34028,-5.46887 8.20921,21.27396 -18.04137,50.70206 -43.66106,48.94605 -29.92574,-2.05116 -49.13107,-21.02851 -48.89834,-48.31788 0.31366,-36.77794 20.09734,-55.0103 55.74968,-51.37809 20.33577,2.07177 52.93253,21.00086 59.48955,34.54585 8.78317,18.1436 7.44931,43.92353 -3.44166,66.51818 -4.59136,9.52535 -6.13787,11.44282 -18.80858,23.32017 -5.75379,5.39352 -21.85218,14.59548 -25.53409,14.59548 -1.06403,0 -4.59255,0.94343 -7.84115,2.09651 -5.86685,2.08241 -28.92902,3.50139 -36.90655,2.27081 z M 58.835857,215.29814 c -1.914877,-0.42831 -4.268393,-5.79039 -5.324706,-12.13143 -0.596318,-3.57969 -1.788941,-5.39338 -6.575651,-10 C 40.277878,186.75958 39,184.08853 39,176.57973 c 0,-6.43341 3.377679,-17.91791 6.058137,-20.59837 4.554478,-4.55448 10.037445,-0.9044 8.047166,5.3571 -1.701134,5.35184 0.01362,14.88719 3.449304,19.18076 1.619966,2.02447 3.834718,4.78843 4.92167,6.14212 1.613245,2.00915 2.047274,4.37923 2.362775,12.90231 0.526678,14.22792 -0.287756,16.78923 -5.003195,15.73449 z M 242.26363,163.08563 c -3.79307,-0.9235 -9.63017,-5.14972 -11.90249,-8.61773 -2.83082,-4.32036 -0.62103,-5.42841 10.82592,-5.42841 7.90541,0 10.94918,-0.4332 14.85771,-2.1146 8.50557,-3.659 10.67788,0.086 4.45499,7.6802 -5.88725,7.18461 -11.95987,10.00863 -18.23613,8.48054 z m -169.596963,-1.7128 c -1.162004,-1.16201 -0.69865,-8.63327 0.888925,-14.33334 0.942975,-3.38567 1.447807,-8.76759 1.313222,-14 -0.455969,-17.72718 -0.341349,-19.5712 1.515775,-24.38585 5.095231,-13.209522 22.715707,-31.265576 27.022911,-27.690913 2.30662,1.914324 1.98351,3.332716 -1.5125,6.639676 -10.599555,10.026359 -13.495476,19.145647 -10.440491,32.877217 2.142149,9.62855 1.523191,11.70215 -7.480236,25.05987 -3.707132,5.5 -7.479454,11.4625 -8.382937,13.25 -1.758767,3.47965 -1.901918,3.60609 -2.924669,2.58334 z M 198.51277,136.06016 c -1.80605,-2.92225 4.04486,-7.83071 16.78017,-14.0773 11.20483,-5.49589 15.7906,-10.25017 17.57075,-18.21642 3.48745,-15.606431 14.14693,-19.594406 14.12851,-5.285816 -0.0274,21.303586 -5.14186,27.347456 -27.56653,32.576206 -4.53592,1.05763 -10.6498,2.83618 -13.5864,3.95232 -6.12003,2.32609 -6.50438,2.38122 -7.3265,1.05101 z M 122,103.23584 c 0,-11.477543 14.00418,-26.546194 35.06601,-37.731402 6.49508,-3.44931 11.77977,-7.284515 17.50405,-12.703016 10.67076,-10.100763 13.50675,-10.206283 14.94329,-0.556 1.52622,10.252774 -5.17364,21.597749 -15.35702,26.004279 -16.1973,7.008861 -33.64131,16.387923 -41.31742,22.214999 C 122.75378,108.12052 122,108.31323 122,103.23584 Z"
           id="path3713" />
        <path
           style="fill:#b5896f"
           d="m 152.63996,301.48829 c -7.8281,-1.55565 -17.75249,-5.92364 -24.51258,-10.78865 C 125.58232,288.86805 120.8,285.74784 117.5,283.76585 96.365171,271.07219 82.147059,238.97961 82.020926,203.68384 81.905023,171.25084 112.36802,136.66808 168.02337,106.05058 194.08892,91.711213 198.42858,88.81783 207,80.063659 219.19682,67.60679 217.63428,43.971443 203.58057,28.34033 c -4.87931,-5.426964 -5.8036,-8.300836 -2.6697,-8.300836 3.28006,0 21.52231,5.11562 22.87967,6.416076 5.52411,5.292512 8.47773,29.749502 4.9728,41.176433 C 222.95629,86.564431 212.52365,96.288261 172,120.53878 c -33.10129,19.80876 -53.35631,39.13365 -61.73287,58.89802 -10.10714,23.84767 -10.16321,24.37903 -4.83193,45.79285 9.41427,37.81371 35.32208,56.64035 76.5648,55.63796 l 13.5,-0.32812 9.62092,-4.7095 c 25.89489,-12.67572 38.91907,-53.66398 24.11942,-75.90601 -0.95719,-1.43854 -2.93755,-4.40327 -4.40081,-6.58831 -8.04041,-12.00646 -35.83892,-20.20565 -51.99103,-15.33478 -27.61077,8.32636 -29.19284,50.1901 -2.36878,62.68127 9.30633,4.33369 23.82242,3.1009 28.84567,-2.44972 1.77158,-1.95757 1.75803,-2.03127 -0.50236,-2.73358 -9.72623,-3.02192 -16.43984,-17.95221 -12.40969,-27.59771 6.6339,-15.87715 30.76655,-16.1795 38.78035,-0.48586 11.02415,21.5889 -15.96206,53.47779 -43.34823,51.22343 -35.54491,-2.92596 -54.77778,-30.5631 -46.29975,-66.53155 7.7942,-33.06729 50.32147,-44.23577 84.78304,-22.26565 3.39419,2.16388 9.01926,5.65453 12.50017,7.757 22.92317,13.84561 28.77189,47.1486 14.00956,79.77134 -3.30114,7.29506 -11.36167,19.66963 -12.81237,19.66963 -0.43909,0 -3.54785,2.64895 -6.90836,5.88656 -16.32172,15.72479 -48.45551,23.73355 -74.47779,18.56224 z M 58.889332,215.30844 c -2.040924,-0.45861 -3.344835,-3.32915 -4.887352,-10.75941 -1.090566,-5.25323 -1.905588,-6.55894 -7.546416,-12.08978 -9.553819,-9.36754 -9.981614,-27.90641 -0.834637,-36.16976 4.750795,-4.29185 9.549938,-1.4598 7.346623,4.33535 -2.431893,6.39637 0.198517,16.74712 5.726669,22.53463 4.095157,4.28729 5.254461,8.55194 5.26827,19.38002 0.01474,11.55707 -0.844293,13.71922 -5.073157,12.76895 z M 238,161.29767 c -12.6712,-8.29669 -11.42826,-12.24259 3.87244,-12.29361 7.32314,-0.0244 11.40488,-0.47979 13.12756,-1.46457 7.09682,-4.0569 11.63117,-0.23909 6.71404,5.65307 -7.77198,9.3131 -17.03426,12.47881 -23.71404,8.10511 z m -165.333333,0.0752 c -1.205577,-1.20558 -0.699551,-7.12752 1.440559,-16.85864 1.847789,-8.40193 1.972371,-10.52918 1.011893,-17.27814 -2.024838,-14.22788 2.506603,-25.21245 16.340148,-39.609798 8.887593,-9.249818 18.531533,-9.198706 9.966963,0.05282 -11.287862,12.193252 -13.196879,17.789128 -10.5271,30.857918 2.42592,11.87508 2.112993,13.11645 -6.554756,26.0025 -3.329595,4.95 -7.028333,10.9125 -8.219416,13.25 -2.294555,4.50307 -2.414392,4.62724 -3.458291,3.58334 z M 198.50108,136.04125 c -1.59517,-2.58105 3.59243,-6.85975 15.98763,-13.18652 13.73437,-7.0103 16.4596,-9.87673 18.55395,-19.51526 1.39751,-6.431539 7.2904,-14.535218 10.2623,-14.112324 3.74623,0.533079 4.46894,9.161619 1.78829,21.350574 -3.05681,13.89939 -4.08103,14.77363 -22.93052,19.57274 -6.4145,1.63315 -14.04211,3.85129 -16.95024,4.9292 -6.16281,2.28426 -5.91582,2.24888 -6.71141,0.96159 z m -76.27762,-33.29193 c 1.40882,-12.499041 14.82974,-26.181897 37.54886,-38.281696 4.19425,-2.233788 10.8233,-7.164993 15.66199,-11.650619 C 186.6117,42.455188 189.2,42.856882 189.2,54.95339 c 0,13.324579 -4.15014,17.589853 -28.79006,29.588726 -13.27029,6.462219 -21.72734,11.308502 -27.74088,15.896824 -10.3129,7.86872 -11.09152,8.04094 -10.4456,2.31038 z"
           id="path3712" />
        <path
           style="fill:#c56b52"
           d="m 154.5,301.56345 c -13.89484,-2.67753 -39.4949,-17.26716 -49.49239,-28.206 C 89.519444,256.41092 78.024652,213.77323 83.378516,193.12852 92.50367,157.94157 117.54084,133.57184 179,100.05612 c 13.63614,-7.436247 18.92155,-11.069176 26.85592,-18.459424 12.67137,-11.80241 12.58961,-35.015024 -0.17855,-50.689658 -6.80377,-8.35255 -7.0966,-8.848314 -5.92079,-10.024121 1.38261,-1.38261 20.9086,3.547254 23.58165,5.953824 6.19834,5.580428 8.74961,27.44395 4.83282,41.415582 -5.00309,17.846543 -15.84497,27.954779 -55.59909,51.836827 -31.83175,19.12272 -51.99602,37.53396 -60.48228,55.22408 -7.54503,15.72807 -11.36831,27.35952 -10.6861,32.50999 6.46779,48.82982 31.49656,72.57809 76.59642,72.67764 30.29654,0.0669 44.07266,-9.06578 53.18747,-35.2598 13.28896,-38.18966 -10.35544,-71.24338 -49.34801,-68.98613 -42.91001,2.48402 -40.34286,67.3464 2.66054,67.22194 11.49501,-0.0333 20.03066,-5.93533 12.89538,-8.91664 -12.89624,-5.38839 -16.06616,-24.88842 -5.49221,-33.78581 8.30544,-6.98856 24.9613,-5.37527 30.8943,2.99244 11.37902,16.04862 3.27517,35.48613 -20.95031,50.25036 L 194.5,258.49495 185,258.35622 c -31.87006,-0.4654 -51.86742,-20.50637 -50.70617,-50.81673 1.27125,-33.18146 16.76476,-48.54243 48.90358,-48.48521 22.97347,0.0409 58.71124,19.3452 65.95766,35.62804 16.45532,36.9754 -8.59787,93.16539 -45.65507,102.39645 -2.2,0.54803 -7.2866,1.93191 -11.30356,3.0753 -9.26663,2.63765 -27.73851,3.32828 -37.69644,1.40938 z M 57.231664,213.81863 c -0.601329,-0.72455 -1.868974,-4.45877 -2.816989,-8.29825 -1.54075,-6.24008 -2.327864,-7.56716 -7.417238,-12.50551 -6.816092,-6.61384 -8.504435,-10.85058 -7.63579,-19.16133 1.415562,-13.54336 8.304051,-23.30288 12.684474,-17.97119 1.552355,1.88948 1.708953,2.74628 0.809206,4.42747 -0.692596,1.29413 -0.89592,4.70548 -0.536197,8.99626 0.59146,7.05493 0.494482,6.85919 7.997252,16.1411 3.266569,4.04117 4.852738,19.14348 2.792943,26.59231 -0.776189,2.80694 -4.171673,3.83473 -5.877661,1.77914 z M 236.94578,160.21029 C 225.63073,153.00961 226.93264,149.56184 241,149.47372 c 7.86871,-0.0493 11.42138,-0.50768 14.1767,-1.82916 8.79024,-4.21588 11.14792,-0.005 4.17243,7.45278 -8.24487,8.81442 -14.38492,10.21572 -22.40335,5.11295 z M 72,158.02891 c 0,-1.65583 0.93338,-7.16833 2.074178,-12.25 1.553784,-6.92133 1.906315,-10.84331 1.405115,-15.63219 -1.752321,-16.74315 -0.618938,-20.98659 9.078213,-33.989261 9.591027,-12.86037 16.155894,-17.578071 19.258484,-13.839685 0.79403,0.956751 -0.31833,2.906128 -4.422354,7.75 -3.015777,3.559446 -6.6489,8.850614 -8.073608,11.758146 l -2.590376,5.28644 1.885174,10.21356 c 2.498284,13.5353 2.382718,14.05458 -5.934351,26.66496 -3.949261,5.9879 -7.947045,12.27343 -8.883965,13.96785 C 73.632631,161.87211 72,161.90229 72,158.02891 Z m 127,-23.38582 c 0,-2.39432 6.52725,-7.27294 16.7699,-12.53423 12.13024,-6.23088 14.47528,-8.64114 17.10918,-17.58506 6.61588,-22.465544 17.05476,-18.699405 12.51646,4.51569 -3.02995,15.49935 -4.58117,16.78618 -26.39554,21.89674 -4.675,1.09524 -10.46908,2.69152 -12.87573,3.5473 C 200.71855,136.40575 199,136.44424 199,134.64309 Z m -76.681,-29.21467 c -3.65989,-9.537521 13.59065,-28.416399 37.23692,-40.751855 4.18693,-2.18418 10.55521,-6.924794 15.66199,-11.658952 4.73334,-4.387965 9.07016,-7.978119 9.63738,-7.978119 3.93228,0 5.58574,12.609259 2.59403,19.782119 -2.89899,6.950545 -7.06705,9.963342 -27.94932,20.202592 -12.93656,6.343211 -22.29562,11.644073 -26.5,15.009285 -8.62943,6.90706 -9.86186,7.52956 -10.681,5.39493 z"
           id="path3711" />
        <path
           style="fill:#ab6b4f"
           d="m 154.5,301.56345 c -13.89484,-2.67753 -39.4949,-17.26716 -49.49239,-28.206 -15.488166,-16.94653 -26.982958,-59.58422 -21.629094,-80.22893 5.513584,-21.2606 23.201764,-46.46833 40.507074,-57.72734 3.08793,-2.00904 6.96441,-4.89122 8.61441,-6.40486 3.27294,-3.00245 15.9609,-10.95683 17.47714,-10.95683 0.51806,0 1.97263,-1.05799 3.23239,-2.35109 3.4452,-3.53639 14.60472,-9.88174 15.93406,-9.06017 0.72596,0.44868 0.89637,0.28493 0.4519,-0.43423 -0.6036,-0.97665 0.73275,-1.67699 1.72594,-0.90451 0.17678,0.1375 1.04658,-0.47515 1.93289,-1.36146 0.8863,-0.8863 3.41583,-1.89999 5.62118,-2.25264 2.20535,-0.35265 4.33437,-1.16646 4.73116,-1.808476 0.49791,-0.805628 0.12839,-0.958967 -1.19262,-0.494905 -1.85565,0.651881 -1.85483,0.626561 0.0271,-0.830061 1.06762,-0.826349 2.50895,-1.502454 3.20295,-1.502454 2.38021,0 6.29323,-2.292412 5.66052,-3.316166 -0.38289,-0.619527 0.0196,-0.773413 1.01936,-0.38976 0.94915,0.364224 1.55078,0.173945 1.41404,-0.447225 -0.1309,-0.594647 0.60831,-1.222266 1.6427,-1.394711 1.03438,-0.172444 2.38438,-0.860737 3,-1.529541 0.85004,-0.92348 0.75846,-1.041025 -0.3807,-0.488627 -0.825,0.400059 -0.22993,-0.440354 1.32237,-1.867583 1.55231,-1.427229 3.23981,-2.336975 3.75,-2.021657 0.5102,0.315317 0.92763,0.03457 0.92763,-0.623882 0,-0.658452 1.77737,-3.125404 3.94971,-5.482114 9.26812,-10.054721 9.44836,-36.524553 0.31526,-46.297389 -9.42044,-10.080304 -10.29851,-11.384548 -8.43847,-12.534115 1.0945,-0.676442 13.39814,2.217411 14.61921,3.438484 0.52486,0.524858 2.36085,0.954286 4.07998,0.954286 3.2113,0 8.18505,3.955924 6.76242,5.37856 -0.40161,0.401603 -0.15914,1.083112 0.5388,1.514465 8.66593,5.355838 4.02664,42.275145 -6.76242,53.815162 C 217.92902,86.962184 217,88.363483 217,88.86168 c 0,0.498197 -1.9125,2.181017 -4.25,3.739601 -2.3375,1.558583 -4.7233,3.383804 -5.30178,4.056047 -2.81765,3.274356 -25.97412,18.394342 -27.35793,17.863322 -0.84113,-0.32277 -1.20835,-0.26588 -0.81605,0.12642 0.68957,0.68956 -9.63518,7.46944 -11.88368,7.80357 -0.61018,0.0907 -1.91264,0.96807 -2.89433,1.94977 -0.9817,0.9817 -4.09668,3.08959 -6.92217,4.6842 -2.82549,1.59461 -6.0277,3.6993 -7.11602,4.67709 -1.08831,0.97778 -4.22409,3.54284 -6.9684,5.70012 -6.98477,5.49068 -23.60998,22.42672 -27.17935,27.6875 -6.76167,9.96583 -15.8432,35.1386 -14.87685,41.23659 7.90417,49.87739 31.4086,72.01527 76.56656,72.11495 30.29654,0.0669 44.07266,-9.06578 53.18747,-35.2598 13.28896,-38.18966 -10.35544,-71.24338 -49.34801,-68.98613 -42.91001,2.48402 -40.34286,67.3464 2.66054,67.22194 11.49501,-0.0333 20.03066,-5.93533 12.89538,-8.91664 -12.89624,-5.38839 -16.06616,-24.88842 -5.49221,-33.78581 8.30544,-6.98856 24.9613,-5.37527 30.8943,2.99244 11.37902,16.04862 3.27517,35.48613 -20.95031,50.25036 L 194.5,258.49495 185,258.35622 c -31.87006,-0.4654 -51.86742,-20.50637 -50.70617,-50.81673 1.27125,-33.18146 16.76476,-48.54243 48.90358,-48.48521 22.87504,0.0407 58.81298,19.40144 65.86871,35.48521 16.44591,37.48902 -8.34019,93.26619 -45.56612,102.53928 -2.2,0.54803 -7.2866,1.93191 -11.30356,3.0753 -9.26663,2.63765 -27.73851,3.32828 -37.69644,1.40938 z M 110.38156,175.48756 c 0.34149,-0.88993 0.17385,-1.29133 -0.39301,-0.94099 -0.5437,0.33603 -0.98855,1.0344 -0.98855,1.55194 0,1.43843 0.71677,1.12146 1.38156,-0.61095 z M 202,23.039494 c 0,-0.55 -0.47656,-1 -1.05902,-1 -0.58246,0 -0.7809,0.45 -0.44098,1 0.33992,0.55 0.81648,1 1.05902,1 0.24254,0 0.44098,-0.45 0.44098,-1 z M 57.231664,213.81863 c -0.601329,-0.72455 -1.868974,-4.45877 -2.816989,-8.29825 -1.54075,-6.24008 -2.327864,-7.56716 -7.417238,-12.50551 -6.816092,-6.61384 -8.504435,-10.85058 -7.63579,-19.16133 1.415562,-13.54336 8.304051,-23.30288 12.684474,-17.97119 1.552355,1.88948 1.708953,2.74628 0.809206,4.42747 -0.692596,1.29413 -0.89592,4.70548 -0.536197,8.99626 0.59146,7.05493 0.494482,6.85919 7.997252,16.1411 3.266569,4.04117 4.852738,19.14348 2.792943,26.59231 -0.776189,2.80694 -4.171673,3.83473 -5.877661,1.77914 z M 236.94578,160.21029 C 225.63073,153.00961 226.93264,149.56184 241,149.47372 c 7.93872,-0.0497 11.41288,-0.50353 14.24237,-1.86033 8.77754,-4.20901 11.0564,0.0542 4.03911,7.55627 -8.17343,8.73805 -14.33911,10.1295 -22.3357,5.04063 z m -164.938774,-2.4208 c 0.0039,-1.7875 0.930431,-7.075 2.059062,-11.75 1.748692,-7.2434 1.950472,-10.23604 1.364911,-20.2432 -0.431483,-7.37398 -0.315939,-12.21082 0.310548,-13 0.548731,-0.69124 1.303655,-2.9544 1.677608,-5.02925 0.377541,-2.09475 1.547341,-4.31417 2.630391,-4.99055 C 81.122287,102.10654 82,101.04653 82,100.42092 c 0,-0.625615 1.0125,-1.888209 2.25,-2.805765 1.2375,-0.917557 1.575,-1.377482 0.75,-1.022058 -0.825,0.355425 0.152421,-0.861234 2.172047,-2.703688 2.019626,-1.842453 3.975489,-4.403495 4.346362,-5.691204 0.396224,-1.375729 2.077993,-2.927783 4.077953,-3.76342 C 97.468363,83.652613 99,82.568693 99,82.026074 c 0,-1.651838 3.66899,-1.100391 5.07933,0.76342 1.12655,1.488775 1.11497,1.563411 -0.0776,0.5 -2.65145,-2.364372 -3.91363,-1.481682 -3.29881,2.306986 0.48938,3.015686 0.26207,3.639399 -1.493695,4.098541 -1.139004,0.297856 -2.32653,1.207679 -2.638949,2.021828 -0.312418,0.814149 -2.159118,3.877342 -4.103778,6.807097 -3.940198,5.936154 -4.560584,10.662634 -2.430307,18.515544 3.281345,12.09614 2.833514,14.38306 -5.218018,26.64663 -4.025017,6.13065 -8.084783,12.54315 -9.021703,14.25 -2.204367,4.01586 -3.798344,3.95418 -3.789504,-0.14663 z M 199,134.72659 c 0,-2.28301 5.19558,-6.23881 14.83204,-11.29278 13.81909,-7.24761 16.38477,-9.76231 18.94892,-18.57242 4.27596,-14.691665 11.90904,-20.545438 13.45933,-10.321896 0.75292,4.965228 -0.88133,18.499996 -2.23378,18.499996 -0.37025,0 -0.67318,1.31453 -0.67318,2.92117 0,7.14931 -5.80643,10.72989 -24.33333,15.00536 -4.675,1.07885 -10.46908,2.66173 -12.87573,3.51751 C 200.7808,136.38362 199,136.44437 199,134.72659 Z m -76.69792,-29.34228 c -0.96984,-2.52736 2.71358,-12.215011 4.90935,-12.911922 1.04427,-0.331436 1.72638,-1.119465 1.51581,-1.751175 -0.21057,-0.631711 1.33966,-2.396347 3.44495,-3.921414 C 134.27749,85.274732 136,83.403556 136,82.64163 c 0,-0.761926 1.125,-1.667677 2.5,-2.01278 1.375,-0.345103 2.5,-1.284784 2.5,-2.08818 0,-0.803395 2.3625,-2.784614 5.25,-4.402707 2.8875,-1.618093 6.2625,-3.980231 7.5,-5.249196 1.2375,-1.268965 2.25689,-1.866674 2.26531,-1.328241 0.009,0.600047 0.29968,0.582967 0.75,-0.04413 1.14119,-1.589169 6.0089,-4.476902 7.5465,-4.476902 1.88083,0 5.68463,-3.412837 5.7035,-5.117295 0.0122,-1.098509 0.21456,-1.074401 0.98469,0.117295 0.81102,1.254971 0.97188,1.186907 0.98469,-0.416666 0.008,-1.054167 0.27781,-1.654167 0.59864,-1.333334 C 173.15082,56.856976 177,53.565575 177,52.512845 c 0,-3.655369 8.03269,-8.343811 10.0764,-5.881293 4.58244,5.521498 -2.55798,26.043021 -10.34275,29.725006 -3.77041,1.783301 -16.16992,7.491137 -22.92879,10.554755 -2.58232,1.1705 -5.16982,2.128181 -5.75,2.128181 -0.58017,0 -1.98331,0.928453 -3.11809,2.063227 -1.13477,1.134775 -4.17227,3.31838 -6.75,4.852455 -8.95739,5.330794 -12.10236,7.590854 -12.14444,8.727334 -0.0707,1.90975 -3.06138,2.47091 -3.74025,0.7018 z"
           id="path3710" />
        <path
           style="fill:#cb5128"
           d="M 156.87604,301.50193 C 143.03823,299.34561 133.5266,294.64288 111.98972,279.30929 94.816827,267.08272 83.035061,236.7756 83.008205,204.75795 c -0.01973,-23.5265 17.960275,-53.20336 42.918755,-70.83947 16.34108,-11.54689 22.64693,-15.80259 23.46953,-15.83915 0.84816,-0.0377 8.78664,-4.94816 14.90377,-9.21897 1.54014,-1.07528 3.74808,-2.13759 4.90652,-2.36069 1.15844,-0.22309 3.04832,-1.2623 4.19974,-2.30935 1.15141,-1.04705 3.80463,-2.20915 5.89604,-2.58245 2.0914,-0.3733 4.04695,-1.31561 4.34566,-2.094038 0.29871,-0.778424 2.86256,-2.483384 5.69744,-3.788798 2.83489,-1.305415 6.62842,-3.760053 8.43007,-5.454753 1.80165,-1.694699 3.61035,-3.227412 4.01933,-3.406029 13.734,-5.998118 18.57064,-41.459062 7.20494,-52.824758 -4.55558,-4.55558 -8.98569,-13 -6.82006,-13 6.00148,0 22.82006,6.47375 22.82006,8.783822 0,0.998898 0.41505,2.243678 0.92233,2.766178 3.27732,3.375655 5.01153,25.114163 2.54883,31.95 -0.79257,2.2 -1.44782,4.678581 -1.4561,5.507957 -0.0317,3.171265 -7.8259,15.993618 -12.45636,20.492043 -5.61494,5.454834 -31.46461,23.499996 -33.66372,23.499996 -0.69634,0 -2.19508,0.86661 -3.33053,1.9258 -1.13545,1.05919 -4.39324,3.19669 -7.23953,4.75 -15.81962,8.63326 -40.76885,28.80125 -49.47894,39.99686 -0.90971,1.1693 -3.94721,5.04404 -6.75,8.61052 -3.95,5.02628 -5.09598,7.28165 -5.09598,10.02924 0,1.9496 -0.5625,4.13937 -1.25,4.86616 -2.75524,2.91267 -7.0568,18.58482 -6.4637,23.54956 5.75171,48.14598 32.28288,73.23174 77.7137,73.47988 34.71746,0.18963 54.31731,-19.41521 55.69385,-55.70802 1.1667,-30.76072 -20.37076,-50.93008 -52.63526,-49.29174 -17.65273,0.89637 -25.51142,7.6751 -31.34072,27.03381 -5.09935,16.93455 11.65926,38.98662 30.78177,40.50465 13.5611,1.07654 24.72111,-6.04577 15.52457,-9.90777 -7.59506,-3.18948 -13.27102,-15.31414 -10.98736,-23.47057 3.98769,-14.24264 25.14542,-18.91375 34.96315,-7.71902 12.57015,14.3332 6.48342,33.59999 -15.16673,48.00842 l -10.28115,6.84222 -11.02606,-0.038 c -37.23158,-0.12841 -58.49257,-29.81219 -48.10903,-67.16795 8.60499,-30.95726 51.35841,-41.50954 82.79099,-20.43424 2.36059,1.58275 7.51248,4.76305 11.44865,7.06732 17.77274,10.40433 26.01591,29.26782 23.19238,53.0729 -1.96371,16.55598 -15.43154,47 -20.79187,47 -0.48385,0 -3.38896,2.44979 -6.45579,5.44398 -15.47459,15.10803 -44.32316,22.97684 -69.72535,19.01846 z M 56.60635,211.86177 c -0.743599,-1.82725 -1.927524,-5.78237 -2.630944,-8.78916 -1.09067,-4.66209 -2.197115,-6.35503 -7.515976,-11.5 -6.87077,-6.64614 -8.302031,-10.52662 -6.927894,-18.78312 2.850745,-17.1287 13.374266,-25.53514 12.617229,-10.07894 -0.538202,10.98831 0.363148,14.30534 5.475228,20.14921 3.823315,4.37063 4.649731,6.0948 5.47087,11.41403 2.261625,14.65048 -2.467396,27.46912 -6.488513,17.58798 z M 241.2733,162.33681 c -3.53485,-0.68311 -11.74593,-8.62328 -10.98043,-10.61813 0.54426,-1.41832 2.20775,-1.67919 10.70786,-1.67919 6.68312,0 11.26941,-0.50385 13.65351,-1.5 9.37038,-3.91519 11.06645,-0.12544 3.38266,7.55835 -6.51512,6.51511 -9.52949,7.63698 -16.7636,6.23897 z M 73,156.43384 c 0,-2.53311 0.723204,-7.37061 1.607119,-10.75 1.261653,-4.82356 1.468969,-8.72386 0.964441,-18.14435 -0.793672,-14.81934 0.557846,-19.23718 9.114048,-29.791953 3.197916,-3.944891 6.265401,-8.055886 6.816633,-9.135544 1.245824,-2.440101 7.082523,-5.947163 8.470278,-5.089483 1.622291,1.002632 1.198691,4.276913 -0.738756,5.71028 -7.690141,5.68935 -11.604706,17.61333 -9.292903,28.3067 2.984797,13.80634 3.110166,13.19841 -5.274621,25.57742 -3.51026,5.18242 -7.355325,11.33508 -8.544589,13.67258 C 73.389666,162.15921 73,162.11482 73,156.43384 Z m 126,-21.1914 c 0,-1.89167 8.08522,-8.19354 15,-11.69148 9.95459,-5.03567 15.30625,-8.78163 16.64872,-11.65348 2.38994,-5.11264 3.35128,-8.05032 3.35128,-10.24093 0,-2.952979 6.73224,-11.617056 9.02679,-11.617056 3.44543,0 4.07231,9.649196 1.35364,20.835866 -3.11339,12.81081 -5.19525,14.60821 -21.49627,18.5591 -6.241,1.51263 -13.81497,3.61757 -16.83106,4.67764 -6.08705,2.13943 -7.0531,2.29425 -7.0531,1.13034 z m -75.99626,-33.45295 c 0.004,-3.409892 3.24327,-9.749996 4.98156,-9.749996 0.55809,0 1.0147,-0.62159 1.0147,-1.381311 0,-0.759721 1.575,-2.582622 3.5,-4.050891 1.925,-1.468269 3.5,-3.272895 3.5,-4.010281 0,-0.737385 1.125,-1.623058 2.5,-1.968161 1.375,-0.345103 2.5,-1.284784 2.5,-2.08818 0,-0.803395 2.3625,-2.790145 5.25,-4.414998 2.8875,-1.624854 5.90945,-3.54226 6.71544,-4.260904 1.90125,-1.695213 8.77289,-5.58297 12.28456,-6.950224 1.5125,-0.588885 2.75,-1.446354 2.75,-1.905487 0,-0.459133 0.9,-1.120436 2,-1.469563 1.1,-0.349126 2,-1.35445 2,-2.234054 0,-0.879603 0.26173,-1.337549 0.58162,-1.017657 0.31989,0.319892 3.00083,-1.967608 5.95763,-5.083333 7.20376,-7.590953 8.96075,-6.798414 8.96075,4.041997 0,14.735906 -7.22277,20.964476 -39.5,34.062904 -1.925,0.781184 -4.1176,2.165042 -4.87244,3.075239 -0.75485,0.910198 -1.83896,1.654904 -2.40914,1.654904 -0.57017,0 -3.32757,1.700794 -6.12755,3.779541 -10.98124,8.152645 -11.59218,8.361995 -11.58713,3.970455 z"
           id="path3709" />
        <path
           style="fill:#b1512b"
           d="m 156.87604,301.50193 c -16.84544,-2.625 -45.41693,-19.03189 -54.31986,-31.19264 -20.186109,-27.57274 -25.326131,-66.61011 -12.402723,-94.19602 9.118028,-19.46307 36.634323,-48.46798 36.831233,-38.82378 0.008,0.4125 -0.62937,0.75 -1.4173,0.75 -1.64326,0 -3.02463,3.45115 -2.02729,5.06488 0.36805,0.59553 -0.29163,0.48705 -1.46597,-0.24105 -1.75083,-1.08554 -2.2811,-1.08942 -2.94597,-0.0215 -0.44594,0.71625 -3.00995,2.74125 -5.69778,4.5 -4.54064,2.9711 -6.08846,5.56178 -2.94021,4.9212 0.74746,-0.15208 1.64451,0.18542 1.99344,0.75 0.34893,0.56459 1.70631,1.02652 3.01639,1.02652 2.85969,0 4.30196,1.87795 2.37812,3.0965 -1.02923,0.65189 -0.82344,0.87676 0.81286,0.88819 2.92592,0.0205 3.68738,-1.46347 1.74678,-3.40407 -0.86934,-0.86934 -1.1126,-1.58062 -0.54057,-1.58062 0.57202,0 0.78102,-0.675 0.46444,-1.5 -0.6378,-1.66207 1.16032,-2.08251 2.13837,-0.5 1.02245,1.65437 3.4989,1.12601 3.51531,-0.75 0.0123,-1.401 0.19159,-1.4716 0.89925,-0.35401 0.7005,1.10631 1.63114,0.67031 4.48468,-2.10101 4.07418,-3.9568 4.55869,-5.79498 1.52744,-5.79498 -1.44536,0 -1.96406,-0.53004 -1.71258,-1.75 0.29416,-1.42696 1.27071,-1.70122 5.29029,-1.48576 5.09431,0.27307 11.99561,-4.72122 11.99561,-8.6809 0,-2.23923 2.25895,-2.40227 3.41277,-0.24632 0.87251,1.63029 0.59055,2.25644 -1.68229,3.73592 -5.08873,3.31245 -25.73488,22.34699 -29.23222,26.95039 -4.69018,6.17348 -9.65833,12.07908 -10.74826,12.77636 -0.68794,0.44012 -1.25,2.76864 -1.25,5.17858 0,2.40838 -0.5625,4.97352 -1.25,5.70031 -2.75524,2.91267 -7.0568,18.58482 -6.4637,23.54956 5.75171,48.14598 32.28288,73.23174 77.7137,73.47988 34.71746,0.18963 54.31731,-19.41521 55.69385,-55.70802 1.1667,-30.76072 -20.37076,-50.93008 -52.63526,-49.29174 -17.65273,0.89637 -25.51142,7.6751 -31.34072,27.03381 -5.09935,16.93455 11.65926,38.98662 30.78177,40.50465 13.5611,1.07654 24.72111,-6.04577 15.52457,-9.90777 -7.59506,-3.18948 -13.27102,-15.31414 -10.98736,-23.47057 3.98769,-14.24264 25.14542,-18.91375 34.96315,-7.71902 12.57015,14.3332 6.48342,33.59999 -15.16673,48.00842 l -10.28115,6.84222 -11.02606,-0.038 c -37.23158,-0.12841 -58.49257,-29.81219 -48.10903,-67.16795 8.60499,-30.95726 51.35841,-41.50954 82.79099,-20.43424 2.36059,1.58275 7.51248,4.76305 11.44865,7.06732 17.77274,10.40433 26.01591,29.26782 23.19238,53.0729 -1.96371,16.55598 -15.43154,47 -20.79187,47 -0.48385,0 -3.38896,2.44979 -6.45579,5.44398 -15.47459,15.10803 -44.32316,22.97684 -69.72535,19.01846 z M 104.47293,173.99569 c -0.35481,-0.57409 -0.0439,-1.81159 0.69098,-2.75 1.20343,-1.53679 1.16233,-1.56992 -0.41391,-0.33375 -1.92509,1.50976 -2.36333,4.12755 -0.69098,4.12755 0.58246,0 0.76872,-0.46971 0.41391,-1.0438 z M 216,173.03949 c 0,-0.55 -0.47656,-1 -1.05902,-1 -0.58246,0 -0.7809,0.45 -0.44098,1 0.33992,0.55 0.81648,1 1.05902,1 0.24254,0 0.44098,-0.45 0.44098,-1 z m -110,-4.83333 c 0,-1.30207 -1.18877,-2.16803 -2.15579,-1.57038 -1.03422,0.63918 -0.14245,2.40371 1.21481,2.40371 0.51754,0 0.94098,-0.375 0.94098,-0.83333 z m 9,-8.05968 c 0,-0.49115 -0.73865,-1.17645 -1.64144,-1.52289 -1.37248,-0.52667 -1.43434,-0.38033 -0.37756,0.89301 1.44013,1.73525 2.019,1.91584 2.019,0.62988 z m -58.39365,51.71529 c -0.743599,-1.82725 -1.927524,-5.78237 -2.630944,-8.78916 -1.09067,-4.66209 -2.197115,-6.35503 -7.515976,-11.5 -6.87077,-6.64614 -8.302031,-10.52662 -6.927894,-18.78312 2.850745,-17.1287 13.374266,-25.53514 12.617229,-10.07894 -0.538202,10.98831 0.363148,14.30534 5.475228,20.14921 3.823315,4.37063 4.649731,6.0948 5.47087,11.41403 2.261625,14.65048 -2.467396,27.46912 -6.488513,17.58798 z M 241.2733,162.33681 c -3.53485,-0.68311 -11.74593,-8.62328 -10.98043,-10.61813 0.54426,-1.41832 2.20775,-1.67919 10.70786,-1.67919 6.68312,0 11.26941,-0.50385 13.65351,-1.5 9.37038,-3.91519 11.06645,-0.12544 3.38266,7.55835 -6.51512,6.51511 -9.52949,7.63698 -16.7636,6.23897 z M 256,153.99989 c 0,-1.13262 -3.74879,-2.23368 -4.99105,-1.46593 -1.5601,0.9642 -1.1951,2.31753 0.74105,2.74765 2.13527,0.47435 4.25,-0.16341 4.25,-1.28172 z m -183,2.43395 c 0,-2.53311 0.721655,-7.37061 1.603678,-10.75 1.242611,-4.76095 1.483424,-9.07129 1.069571,-19.14435 -0.412867,-10.04905 -0.324652,-11.63802 0.38862,-7 1.194796,7.76912 1.785799,9.36452 2.838214,7.66167 0.435872,-0.70525 0.677668,1.44486 0.537325,4.77803 -0.196497,4.66681 0.06878,6.0603 1.153711,6.0603 0.774885,0 1.408881,-0.93214 1.408881,-2.07142 0,-3.01455 2.58893,-5.44219 3.439617,-3.22534 0.714412,1.86173 3.921751,-0.44139 4.146955,-2.97784 0.05984,-0.67397 0.208969,-3.0254 0.331399,-5.2254 0.269395,-4.84088 1.895662,-2.16048 2.011744,3.31575 0.08472,3.99659 -0.545596,5.28535 -7.915437,16.18425 -3.161237,4.675 -6.716828,10.4125 -7.901314,12.75 C 73.391583,162.15995 73,162.11521 73,156.43384 Z m 126,-21.1914 c 0,-1.89167 8.08522,-8.19354 15,-11.69148 9.95459,-5.03567 15.30625,-8.78163 16.64872,-11.65348 2.38994,-5.11264 3.35128,-8.05032 3.35128,-10.24093 0,-2.952979 6.73224,-11.617056 9.02679,-11.617056 3.19721,0 4.1121,9.591401 1.7933,18.800226 -1.15492,4.58658 -1.19632,4.62453 -1.95406,1.79123 -0.42578,-1.59205 -0.35472,-3.67832 0.1579,-4.63617 0.67634,-1.26375 0.37155,-2.45409 -1.11093,-4.33876 -1.12363,-1.42847 -1.78139,-3.020465 -1.46167,-3.537771 0.31971,-0.517307 0.16886,-1.195454 -0.33522,-1.506995 -0.50408,-0.31154 -0.82633,0.736264 -0.7161,2.328454 0.17421,2.516272 -0.10042,2.840342 -2.09979,2.477782 -2.06677,-0.37478 -2.3006,-0.0345 -2.30396,3.35245 -0.004,3.86897 -3.13595,10.26955 -5.0254,10.26955 -0.58219,0 -0.96783,0.5625 -0.85698,1.25 0.31777,1.97072 -1.2026,4.75 -2.59842,4.75 -0.69882,0 -1.83077,0.675 -2.51546,1.5 -0.68469,0.825 -2.13793,1.5 -3.22943,1.5 -1.39881,0 -1.80539,0.46687 -1.37756,1.58179 0.33385,0.86998 0.60699,1.72786 0.60699,1.90638 0,0.17853 0.86886,0.0974 1.9308,-0.18032 1.06195,-0.27771 1.71404,-1.0698 1.4491,-1.76022 -0.36159,-0.94229 0.89963,-1.15394 5.05801,-0.84883 4.58374,0.33633 5.44173,0.15113 4.97191,-1.0732 -0.40252,-1.04894 -0.0354,-1.35157 1.26119,-1.03963 3.16789,0.76217 5.202,-1.33895 2.957,-3.05441 -1.68645,-1.28867 -1.71919,-1.58323 -0.33035,-2.97207 1.14725,-1.14725 1.64849,-1.22414 1.95936,-0.30056 0.32338,0.96075 0.79328,0.93108 2.08036,-0.13137 2.50245,-2.0657 2.22331,1.27629 -0.41622,4.98316 -2.86037,4.01703 -5.47029,5.15777 -20.30523,8.87499 -7.08625,1.77561 -14.38429,3.85522 -16.21789,4.62134 -3.77566,1.57758 -5.39804,1.75667 -5.39804,0.5959 z m 10,-4.26196 c 0,-0.58246 0.43678,-0.78907 0.97063,-0.45914 0.9324,0.57626 7.02937,-2.03235 7.02937,-3.00753 0,-0.84641 -8.45802,-0.47027 -9.89572,0.44007 -0.76764,0.48607 -1.11926,1.60418 -0.78138,2.48469 0.68572,1.78697 2.6771,2.19007 2.6771,0.54191 z m -54.01028,-1.92178 c 0.62761,-1.1727 1.89917,-2.40386 2.82569,-2.73591 3.40488,-1.22027 16.75243,-9.5757 18.93983,-11.85615 l 2.25525,-2.35117 -2.25525,-1.18397 c -1.24038,-0.65119 -2.6151,-1.79328 -3.05493,-2.53799 -0.43983,-0.74471 -1.56483,-1.36091 -2.5,-1.36933 -1.43319,-0.0129 -1.46993,-0.16102 -0.23385,-0.9428 0.91806,-0.58063 1.91908,-0.55184 2.67677,0.077 0.66567,0.55245 3.04326,1.02976 5.28354,1.06068 2.75825,0.0381 4.07323,0.49925 4.07323,1.42854 0,1.04883 0.4724,0.96785 2.00396,-0.34351 1.10217,-0.94371 3.91467,-2.17681 6.25,-2.74021 2.67343,-0.64498 4.58022,-1.78474 5.14834,-3.07735 0.49626,-1.12914 2.52126,-2.555401 4.5,-3.169472 l 3.5977,-1.116492 -3,2.452724 c -5.47427,4.47563 -19.28631,13.38621 -20.74958,13.38621 -0.79225,0 -2.2238,0.86561 -3.18124,1.92356 -0.95744,1.05796 -4.06468,3.09218 -6.90499,4.5205 -2.8403,1.42832 -6.96419,3.94409 -9.16419,5.5906 -6.60356,4.94221 -7.86829,5.52201 -6.51028,2.98455 z M 133,128.79217 c 0.275,-0.3113 2.85149,-2.14516 5.72554,-4.07525 l 5.22554,-3.50925 -2.72554,3.41588 c -1.49905,1.87874 -3.25124,3.4159 -3.89375,3.41591 -0.64252,2e-5 -1.99252,0.29673 -3,0.65936 -1.00749,0.36264 -1.60679,0.40464 -1.33179,0.0933 z m -44.303083,-11.1458 c -0.409197,-1.04122 -0.508402,-2.12872 -0.220456,-2.41667 0.91206,-0.91206 1.714561,0.58256 1.332392,2.48153 -0.350243,1.74032 -0.403729,1.7372 -1.111936,-0.0649 z m 80.909393,-1.02332 c 0.43914,-1.14438 0.007,-1.58356 -1.55834,-1.58356 -1.46666,0 -1.92353,0.4036 -1.41503,1.25 0.57188,0.9519 0.37209,0.94313 -0.83775,-0.0368 -0.90624,-0.734 -1.36818,-2.13014 -1.07532,-3.25 0.57152,-2.1855 -0.80535,-2.52304 -3.78561,-0.92805 -1.06384,0.56935 -1.93426,0.8388 -1.93426,0.59877 0,-0.37746 1.88988,-1.64276 9,-6.02563 0.88976,-0.54847 0.725,-0.0466 -0.40499,1.23352 -1.91541,2.16996 -1.76704,2.36905 1.90499,2.55621 2.31494,0.118 2.97662,6.61059 0.74932,7.35248 -0.79391,0.26444 -1.02875,-0.16175 -0.64301,-1.16698 z M 154,115.60986 c 0,-0.275 0.9,-0.98166 2,-1.57037 1.1,-0.5887 2,-0.84536 2,-0.57036 0,0.275 -0.9,0.98166 -2,1.57036 -1.1,0.58871 -2,0.84537 -2,0.57037 z m -75.444429,-9.57037 c 1.066357,-2.1124 1.947949,-2.96313 2.223683,-2.14583 0.251271,0.74479 -0.5438,2.31979 -1.766825,3.5 l -2.223683,2.14583 z m 44.560429,-4.75 c 0.0678,-2.191472 0.32367,-2.918783 0.61568,-1.749996 0.27483,1.099996 0.95528,2.287186 1.51212,2.638196 1.13345,0.71448 0.1559,2.8618 -1.30282,2.8618 -0.51754,0 -0.88878,-1.6875 -0.82498,-3.75 z M 82,100.66194 c 0,-0.20766 0.7875,-0.995156 1.75,-1.750001 1.586056,-1.243871 1.621426,-1.2085 0.377555,0.377555 C 82.821186,100.95524 82,101.48497 82,100.66194 Z m 8.877727,-1.820946 c 0.447303,-1.209176 1.377512,-2.386579 2.067131,-2.616452 0.804967,-0.268323 0.640102,0.51875 -0.460513,2.198501 -2.092675,3.193827 -2.691066,3.349497 -1.606618,0.417951 z m 93.855603,-0.925587 c 0.67834,-0.683419 1.48524,-0.990672 1.79313,-0.682785 0.30789,0.307888 -0.24711,0.867048 -1.23333,1.242579 -1.4252,0.542685 -1.54006,0.427822 -0.5598,-0.559794 z M 137,94.987591 c 3.24295,-2.207966 7.18697,-4.059643 6.59018,-3.094017 -0.62299,1.008032 -6.3417,4.160191 -7.49382,4.130608 -0.328,-0.0084 0.0786,-0.474888 0.90364,-1.036591 z m 74.64903,-3.475877 c 0.32245,-0.840279 1.40374,-1.965279 2.40288,-2.5 3.19225,-1.708444 3.50876,-1.047424 0.73152,1.52778 -3.098,2.872623 -3.96709,3.142198 -3.1344,0.97222 z M 91,89.765911 c 0,-1.41518 2.169124,-3.691115 5,-5.246206 1.384229,-0.760402 -0.15788,1.423262 -3.75,5.310092 C 91.201731,90.964069 91,90.953759 91,89.765911 Z m 7,-0.481527 c 0,-0.55 0.675,-1.5602 1.5,-2.24489 0.83674,-0.694432 1.5,-0.802716 1.5,-0.244889 0,0.55 -0.675,1.5602 -1.5,2.244889 -0.83674,0.694433 -1.5,0.802717 -1.5,0.24489 z m 102,-1.24489 c 0,-0.55 0.45,-1 1,-1 0.55,0 1,0.45 1,1 0,0.55 -0.45,1 -1,1 -0.55,0 -1,-0.45 -1,-1 z m -43.26667,-3.124087 c 0.67834,-0.683419 1.48524,-0.990672 1.79313,-0.682785 0.30789,0.307888 -0.24711,0.867048 -1.23333,1.242579 -1.4252,0.542685 -1.54006,0.427822 -0.5598,-0.559794 z M 98,84.039494 c 0,-0.55 0.476558,-1 1.059017,-1 0.582459,0 0.780902,0.45 0.440983,1 -0.339919,0.55 -0.816476,1 -1.059017,1 -0.242541,0 -0.440983,-0.45 -0.440983,-1 z m 109.66134,-3.122611 c 9.13951,-9.614008 10.85173,-28.09906 3.87898,-41.877389 l -1.77124,-3.5 2.11546,2.208187 C 213.04804,38.962184 214,40.242717 214,40.59331 c 0,0.350594 0.90325,1.905934 2.00721,3.456312 2.52352,3.543948 2.74555,20.176257 0.33833,25.343914 -3.29751,7.078884 -6.93171,12.157053 -10.16502,14.203864 -1.98247,1.254981 -1.59685,0.556935 1.48082,-2.680517 z m 12.5248,1.115912 c 0.84762,-1.378685 1.54113,-4.386964 1.54113,-6.685065 0,-2.298101 0.62387,-4.802202 1.38637,-5.564668 0.79079,-0.790756 1.37603,-3.37149 1.36231,-6.00739 -0.0187,-3.59643 0.36931,-4.723956 1.75,-5.085013 C 227.59653,58.332244 228,57.19271 228,53.680167 c 0,-6.768909 -2.84814,-12.084761 -4.36163,-8.140673 -0.37112,0.967142 0.0222,1.5 1.1073,1.5 1.57421,0 1.57373,0.109177 -0.008,1.690477 -0.92977,0.929761 -2.0387,1.341354 -2.46429,0.91465 -0.8754,-0.877679 -0.78569,-14.429514 0.11939,-18.035641 0.505,-2.012073 0.0392,-2.58545 -3.15028,-3.877575 -2.85946,-1.158436 -3.35116,-1.672163 -2.08318,-2.176483 2.28863,-0.910264 7.84026,2.141794 7.84026,4.310253 0,0.975875 0.41505,2.201819 0.92233,2.724319 3.27732,3.375655 5.01153,25.114163 2.54883,31.95 -0.79257,2.2 -1.44782,4.678581 -1.4561,5.507957 -0.0196,1.962486 -4.78252,11.059257 -6.80243,12.992043 -1.42275,1.361382 -1.4252,1.268351 -0.0265,-1.006699 z m -44.26838,-6.384177 c 0.77976,-0.945074 2.35476,-2.217422 3.5,-2.82744 1.8947,-1.00923 1.95455,-0.954363 0.66448,0.609193 -0.77976,0.945074 -2.35476,2.217422 -3.5,2.82744 -1.8947,1.009229 -1.95455,0.954362 -0.66448,-0.609193 z M 157,67.702255 c 0,-0.676898 7.18517,-4.810929 7.61484,-4.381249 0.19953,0.19953 -1.43218,1.371608 -3.62603,2.60462 C 158.79497,67.158637 157,67.95812 157,67.702255 Z m 28.84516,-17.776847 c -1.43079,-1.77949 -1.97235,-1.89139 -4,-0.826516 -2.33853,1.228138 -2.33977,1.225553 -0.44017,-0.913888 2.91844,-3.286919 7.30503,-1.731943 6.42759,2.278476 -0.26845,1.226969 -0.65166,1.123218 -1.98742,-0.538072 z M 205.5,29.679037 c -3.57987,-4.939678 -4.5102,-7.156405 -1.52746,-3.639543 3.18655,3.757178 5.34568,7.018445 4.91292,7.420752 -0.212,0.197084 -1.73546,-1.50446 -3.38546,-3.781209 z m 8.5,1.860457 c 0,-0.825 0.45,-1.5 1,-1.5 0.55,0 1,0.675 1,1.5 0,0.825 -0.45,1.5 -1,1.5 -0.55,0 -1,-0.675 -1,-1.5 z m -9,-8.549305 c -5.90536,-2.417165 -3.11835,-2.43471 4.5,-0.02833 4.51903,1.42741 5.25952,1.89212 3,1.882727 -1.65,-0.0069 -5.025,-0.841339 -7.5,-1.854399 z"
           id="path3708" />
        <path
           style="fill:#92502b"
           d="m 156.87604,301.50193 c -13.83781,-2.15632 -23.34944,-6.85905 -44.88632,-22.19264 -20.783541,-14.79724 -35.591001,-64.65163 -26.884474,-90.51581 3.190841,-9.47893 8.786606,-20.93886 9.890955,-20.25633 0.558299,0.34504 0.72432,-0.0624 0.385356,-0.94572 -0.359612,-0.93713 -0.05286,-1.55194 0.774326,-1.55194 0.753423,0 1.814068,-1.0125 2.356989,-2.25 0.54292,-1.2375 1.469271,-2.25 2.058558,-2.25 1.47757,0 4.47422,-3.12101 3.72042,-3.87482 -1.94331,-1.9433 2.94914,-4.30973 7.97852,-3.85913 5.8444,0.52362 8.05626,1.78406 5.72127,3.26028 -1.15439,0.72984 -1.18484,0.94651 -0.13465,0.95836 0.79296,0.009 1.11774,0.63878 0.78138,1.51531 -0.69966,1.82329 0.49992,1.95832 2.22088,0.25 1.00876,-1.00136 1.13862,-0.95163 0.65283,0.25 -0.99339,2.45724 -12.34448,13.50094 -13.10008,12.74534 -0.38335,-0.38335 -0.12778,-1.38288 0.56794,-2.22117 0.7202,-0.86778 0.82764,-1.52417 0.24949,-1.52417 -0.5585,0 -1.31281,0.77489 -1.67624,1.72198 -0.4992,1.3009 -0.85261,1.41159 -1.44526,0.45266 -0.61505,-0.99518 -1.05984,-0.93751 -2.05951,0.26702 -0.70127,0.84498 -1.57762,1.34932 -1.94744,1.12075 -0.36983,-0.22856 -0.67241,0.45139 -0.67241,1.51101 0,2.21251 5.49436,2.8677 5.67379,0.67658 0.0563,-0.6875 0.49939,0.325 0.98464,2.25 1.14251,4.53233 0.32861,8.58982 -1.43024,7.13011 -2.96296,-2.45904 -5.9591,0.48337 -4.74009,4.65508 0.0458,0.15685 0.98333,-0.19648 2.08333,-0.78519 2.49999,-1.33795 2.51909,-1.55821 -0.61913,7.14166 -3.882423,10.76297 -0.59892,30.05124 8.29112,48.70447 20.5286,43.07345 91.18329,52.2772 113.69851,14.8108 17.06323,-28.39403 11.23957,-63.41189 -12.56259,-75.53926 -3.13064,-1.59509 -5.44863,-3.14361 -5.15108,-3.44116 0.29755,-0.29755 -0.47388,-0.2756 -1.71429,0.0488 -1.69389,0.44296 -2.05344,0.26318 -1.4444,-0.72226 0.51818,-0.83844 0.41977,-1.07031 -0.27265,-0.64238 C 202.22339,179.6375 194,176.78817 194,174.85709 c 0,-1.77366 -5.70564,-1.61386 -7,0.19606 -0.275,0.38453 -3.425,0.96969 -7,1.30034 -9.00278,0.83267 -9.20419,0.89235 -14.84595,4.39946 C 160.32563,183.75446 154,191.0189 154,193.56241 c 0,0.67257 -0.9574,3.38721 -2.12756,6.03254 -6.49362,14.67993 5.5542,38.18778 21.87756,42.68773 2.3375,0.64439 4.25,1.43709 4.25,1.76156 0,1.15332 14.78935,-0.84445 17.80822,-2.40557 5.75033,-2.97361 6.75884,-5.76207 2.60098,-7.19147 -4.91102,-1.68833 -6.93717,-3.77548 -10.4081,-10.72142 -11.97232,-23.95873 23.60585,-39.07394 36.92235,-15.68629 3.19025,5.60301 1.81273,25.84528 -1.68523,24.76394 -1.60627,-0.49655 -5.34182,3.67355 -3.78114,4.22101 2.67702,0.93905 -2.94889,6.5686 -13.74388,13.75276 l -10.16108,6.76229 -11.02606,-0.038 c -23.89802,-0.0824 -41.73632,-12.00143 -48.58345,-32.46197 -3.18956,-9.53104 -1.98482,-34 1.67402,-34 1.69648,0 1.83647,-1.6823 0.18578,-2.23253 -1.61731,-0.5391 0.55434,-5.78134 3.88277,-9.37278 1.35585,-1.46299 2.84854,-3.66827 3.31708,-4.90063 2.2858,-6.0121 16.61551,-13.65137 24.99154,-13.32317 2.24159,0.0878 4.59999,-0.36468 5.24091,-1.00559 1.68651,-1.68651 13.69356,-1.45116 17.11937,0.33556 1.56974,0.81869 3.28644,1.22132 3.81488,0.89472 1.80479,-1.11542 7.58337,0.64555 10.26078,3.12689 2.62227,2.43024 5.26417,3.40932 4.09503,1.51762 -0.96658,-1.56396 5.21525,0.94063 6.66718,2.70122 1.16346,1.41081 1.06183,1.45494 -0.91944,0.39927 -1.76877,-0.94243 -2.12548,-0.92467 -1.73211,0.0863 0.27247,0.70022 1.72484,1.8704 3.2275,2.60039 5.05499,2.45571 5.61202,2.59649 4.74909,1.20023 -0.44611,-0.72181 1.576,-0.0132 4.49357,1.57478 2.91757,1.58794 5.50308,3.64591 5.7456,4.57327 0.47184,1.80434 2.90684,3.15078 4.2249,2.33617 1.43872,-0.88918 8.89837,7.53814 11.35126,12.82374 2.69922,5.81638 4.1955,12.1088 2.65262,11.15525 -0.54736,-0.33829 -0.98494,0.51422 -0.98494,1.9189 0,1.75611 0.42747,2.3636 1.40048,1.99022 1.85439,-0.7116 3.29183,7.06108 1.66774,9.01799 -0.84572,1.01902 -0.76265,1.48547 0.33987,1.90855 1.60184,0.61469 1.16745,11.27138 -0.53495,13.12364 -0.48023,0.5225 -0.87314,2.60643 -0.87314,4.63095 0,8.66411 -14.72579,38.91905 -18.94282,38.91905 -0.48385,0 -3.38896,2.44979 -6.45579,5.44398 -15.47459,15.10803 -44.32316,22.97684 -69.72535,19.01846 z m 88.66508,-61.52897 c 0.82906,-1.34144 0.28566,-1.88908 -2.38479,-2.40336 -2.27619,-0.43835 -3.65906,0.84745 -2.65633,2.46989 0.81918,1.32546 4.20847,1.28073 5.04112,-0.0665 z M 239,238.48048 c 0,-0.85746 -0.45734,-1.27637 -1.01631,-0.9309 -0.55897,0.34546 -0.75742,1.04702 -0.44098,1.55901 C 238.39994,240.49564 239,240.237 239,238.48048 Z m -90.31689,-28.62849 c -0.31922,-0.79773 -0.55618,-0.56077 -0.60416,0.60417 -0.0434,1.05417 0.19292,1.64479 0.52522,1.3125 0.33229,-0.33229 0.36781,-1.19479 0.0789,-1.91667 z m -46.39336,-15.8125 c 0.28766,-1.1 0.35597,-2 0.15181,-2 -0.20415,0 -0.85286,0.9 -1.44156,2 -0.59134,1.10493 -0.65928,2 -0.15182,2 0.50521,0 1.15391,-0.9 1.44157,-2 z m -4.346884,-3.46468 c 1.194964,-0.73853 1.462473,-5.54465 0.307134,-5.51804 -0.785309,0.0181 -4.417792,3.68401 -5.541141,5.59215 -0.693838,1.17857 3.298603,1.12203 5.234007,-0.0741 z m 132.375324,-6.92213 c 0.37864,-0.98672 -0.0476,-1.23519 -1.47754,-0.86126 -1.53776,0.40213 -1.69632,0.72421 -0.67518,1.3715 1.69109,1.07197 1.53101,1.10991 2.15272,-0.51024 z M 216,173.03949 c 0,-0.55 -0.47656,-1 -1.05902,-1 -0.58246,0 -0.7809,0.45 -0.44098,1 0.33992,0.55 0.81648,1 1.05902,1 0.24254,0 0.44098,-0.45 0.44098,-1 z m -110,-4.83333 c 0,-1.30207 -1.18877,-2.16803 -2.15579,-1.57038 -1.03422,0.63918 -0.14245,2.40371 1.21481,2.40371 0.51754,0 0.94098,-0.375 0.94098,-0.83333 z m 9,-8.05968 c 0,-0.49115 -0.73865,-1.17645 -1.64144,-1.52289 -1.37248,-0.52667 -1.43434,-0.38033 -0.37756,0.89301 1.44013,1.73525 2.019,1.91584 2.019,0.62988 z m -58.39365,51.71529 c -0.743599,-1.82725 -1.927524,-5.78237 -2.630944,-8.78916 -1.092654,-4.67057 -2.190494,-6.34567 -7.53694,-11.5 -7.143126,-6.88644 -8.529356,-11.21923 -6.546921,-20.46301 3.672414,-17.12388 13.691075,-23.55934 12.338229,-7.92543 -0.836692,9.66906 0.308701,13.86208 5.365845,19.64316 3.85329,4.40489 4.676848,6.11909 5.499244,11.44646 2.261625,14.65048 -2.467396,27.46912 -6.488513,17.58798 z m 189.97646,-49.57228 c -0.41278,-0.4125 -2.40028,-0.75 -4.41666,-0.75 -2.51432,0 -3.57982,-0.41607 -3.39137,-1.32433 0.15267,-0.73582 -0.20862,-1.02557 -0.81302,-0.65203 -1.58591,0.98014 -4.96176,-2.4639 -4.96176,-5.06199 0,-2.47789 2.23369,-3.4258 8.125,-3.44799 6.01905,-0.0227 9.79069,1.04249 9.19432,2.59661 -0.47349,1.23388 1.31694,1.92085 3.93068,1.50816 1.28145,-0.20234 0.82417,1.57513 -0.73899,2.87244 -0.81894,0.67966 -1.24187,1.6356 -0.93983,2.12431 0.30204,0.48872 -0.6322,1.33773 -2.07611,1.8867 -3.14064,1.19407 -2.9761,1.18363 -3.91226,0.24812 z m 1.41719,-8.25 c 0,-0.55 -0.19844,-1 -0.44098,-1 -0.24254,0 -0.7191,0.45 -1.05902,1 -0.33992,0.55 -0.14148,1 0.44098,1 0.58246,0 1.05902,-0.45 1.05902,-1 z m -174.814743,0.43155 c 0.230036,-3.61266 0.844959,-6.87516 1.366495,-7.25 0.521537,-0.37485 1.081354,-2.70465 1.244039,-5.17734 0.299813,-4.55691 2.026244,-7.67138 2.912542,-5.25421 C 79.459945,138.83935 82,138.20548 82,135.96807 c 0,-1.13929 0.675,-2.74643 1.5,-3.57143 2.56429,-2.56429 2.049177,7.67497 -0.552502,10.98247 -1.128876,1.43513 -2.243342,3.60029 -2.476591,4.81145 -0.233248,1.21116 -0.95064,2.68515 -1.594202,3.27553 -0.844698,0.77488 -0.985725,0.74499 -0.507098,-0.1075 0.364659,-0.64949 0.134791,-1.50736 -0.510819,-1.90637 -0.823132,-0.50872 -0.993823,-0.0371 -0.571318,1.57856 0.564329,2.158 -2.513839,10.00871 -3.92429,10.00871 -0.327894,0 -0.40796,-2.9558 -0.177923,-6.56845 z m 185.334773,0.27942 1.76114,-2.78903 -2.89059,0.50639 c -1.58982,0.27852 -3.56558,0.078 -4.39058,-0.44565 -1.33333,-0.84627 -1.33333,-0.95545 0,-0.98268 1.33333,-0.0272 1.33333,-0.13833 0,-1 -1.33333,-0.86166 -1.33333,-0.96937 0,-0.96937 0.825,0 2.16312,0.41936 2.97361,0.9319 0.94933,0.60036 1.71158,0.54684 2.14251,-0.15041 0.40883,-0.6615 1.13854,-0.20479 1.87678,1.17462 1.03727,1.93815 0.89417,2.55753 -1.01307,4.3851 l -2.22094,2.12816 z m -138.30946,-0.249 c -1.06534,-1.2079 -1.0219,-1.46197 0.25,-1.46197 0.84669,0 1.53943,-0.43587 1.53943,-0.96861 0,-0.53274 0.675,-0.70959 1.5,-0.39301 0.825,0.31658 1.5,1.0256 1.5,1.5756 0,0.55 -0.65208,0.74977 -1.44907,0.44394 -0.96852,-0.37166 -1.26467,-0.0755 -0.89301,0.89301 0.71387,1.86032 -0.77587,1.80617 -2.44735,-0.089 z M 230,152.78964 c 0,-0.89766 0.47994,-1.92873 1.06653,-2.29126 1.71501,-1.05994 1.88329,-0.11075 0.35171,1.98382 -1.1861,1.62208 -1.41824,1.67241 -1.41824,0.30744 z m -118,-5.60797 c 0,-1.02776 3.02888,-2.44663 3.72877,-1.74673 0.24339,0.24338 -0.49602,0.94481 -1.64312,1.55872 C 112.93781,147.60796 112,147.6925 112,147.18167 Z m 22.25,-4.86064 c -1.72456,-0.61836 -1.58064,-4.28154 0.16821,-4.28154 2.13875,0 4.58179,1.1047 4.58179,2.07181 0,1.22259 -3.26586,2.74189 -4.75,2.20973 z M 199,135.09851 c 0,-1.67642 1.77354,-2.09153 2.36383,-0.55327 0.3483,0.90766 -0.003,1.49425 -0.89521,1.49425 -0.80774,0 -1.46862,-0.42344 -1.46862,-0.94098 z M 148.21817,129.885 c 0.51903,-1.55711 2.75625,-1.82979 2.83465,-0.34551 0.0291,0.55 -0.69777,1.15548 -1.61517,1.34551 -1.04271,0.21598 -1.49986,-0.15888 -1.21948,-1 z m 68.70112,-2.24826 c 0.89398,-1.07717 0.86437,-1.52305 -0.12755,-1.92105 -0.8657,-0.34736 -0.74985,-0.54434 0.35127,-0.59725 0.90366,-0.0434 1.91616,0.63286 2.25,1.50284 0.88466,2.30537 0.81394,2.41821 -1.51545,2.41821 -1.70784,0 -1.89503,-0.27401 -0.95827,-1.40275 z M 225.5,126.03949 c 0.33992,-0.55 2.27898,-0.96837 4.30902,-0.92971 2.97467,0.0566 3.30284,0.23707 1.69098,0.92971 -2.80808,1.20668 -6.74576,1.20668 -6,0 z M 225,120.6545 c 0,-0.21174 1.14242,-1.13353 2.53871,-2.04841 2.47908,-1.62436 2.50866,-1.61532 1.25945,0.38499 C 227.72197,120.71434 225,121.90644 225,120.6545 Z m -55.39369,-4.03145 c 0.43914,-1.14438 0.007,-1.58356 -1.55834,-1.58356 -1.46666,0 -1.92353,0.4036 -1.41503,1.25 0.54482,0.90685 0.30282,0.88678 -0.88154,-0.0731 -1.75192,-1.41988 -1.24902,-4.53332 0.62181,-3.84964 0.61973,0.22648 1.90491,-0.26576 2.85594,-1.09385 1.47911,-1.28791 1.80822,-1.29958 2.27595,-0.0807 0.81032,2.11164 -0.0177,6.18483 -1.34737,6.62805 -0.70132,0.23378 -0.9191,-0.23904 -0.55142,-1.1972 z m 9.14369,-6.24584 c 0.6875,-0.27741 1.25,-1.14188 1.25,-1.92105 0,-0.77917 0.675,-1.41667 1.5,-1.41667 0.825,0 1.5,0.62686 1.5,1.39302 0,1.40496 -2.17423,2.67384 -4.33179,2.52804 -0.80461,-0.0544 -0.77916,-0.23594 0.0818,-0.58334 z m 5.25,-1.33772 c 0,-0.55 0.45,-1 1,-1 0.55,0 1,0.45 1,1 0,0.55 -0.45,1 -1,1 -0.55,0 -1,-0.45 -1,-1 z m 4,0.11547 c 0,-0.89778 3.00488,-2.44392 3.59765,-1.85115 0.17127,0.17127 -0.56814,0.86067 -1.64313,1.53201 C 188.87953,109.50716 188,109.65077 188,109.15496 Z m 49.17398,-8.03213 c 0.30494,-2.829629 -0.33886,-3.449439 -1.70578,-1.642206 -0.80751,1.067626 -1.4682,1.491126 -1.4682,0.941126 0,-3.458246 2.54915,-4.415491 4.22111,-1.585088 1.37222,2.322988 1.42794,2.869498 0.29253,2.869498 -0.77139,0 -1.37424,-0.2625 -1.33966,-0.58333 z M 241.5,100.67559 c -2.7908,-3.243417 -3.89434,-4.956535 -2.75,-4.269037 0.73707,0.442816 1.29362,0.213826 1.3563,-0.558042 0.0585,-0.719959 0.17096,-2.209017 0.25,-3.309017 0.093,-1.294031 0.9876,-2.119307 2.53446,-2.337996 1.88668,-0.266732 2.25565,0.01407 1.75,1.331788 C 244.28834,92.451667 244,93.810941 244,94.553894 c 0,0.742954 -0.93286,1.646904 -2.07303,2.008778 -1.97646,0.627304 -1.99227,0.747186 -0.33946,2.573519 0.95346,1.053559 1.54882,2.092419 1.32303,2.308579 -0.2258,0.21615 -0.86054,-0.12998 -1.41054,-0.76918 z M 224.31433,62.793978 c 0.11044,-2.227838 0.69217,-3.747332 1.43567,-3.75 1.68818,-0.0061 1.58221,3.16409 -0.18567,5.554387 -1.33152,1.80031 -1.4222,1.669411 -1.25,-1.804387 z m 3.75596,-2.445467 c 0.22552,-2.595886 1.7895,-4.797928 1.85942,-2.618034 0.0387,1.205041 -0.37971,2.469099 -0.92971,2.809017 -0.55,0.339919 -0.96837,0.253977 -0.92971,-0.190983 z m -6.22651,-12.059017 c -0.8323,-9.323256 -0.31539,-12.39995 2.01912,-12.017909 1.66466,0.272419 2.8175,3.254019 3.00347,7.767909 0.0813,1.974058 -0.10415,2.184435 -0.88168,1 -0.87528,-1.333333 -1.09288,-1.333333 -1.95836,0 -0.70577,1.087296 -0.55359,1.591772 0.55311,1.833551 1.19852,0.261839 1.27403,0.638082 0.35122,1.75 -1.59564,1.922632 -2.89804,1.781903 -3.08688,-0.333551 z M 214,31.539494 c 0,-0.825 0.45,-1.5 1,-1.5 0.55,0 1,0.675 1,1.5 0,0.825 -0.45,1.5 -1,1.5 -0.55,0 -1,-0.675 -1,-1.5 z"
           id="path3707" />
        <path
           style="fill:#ab4612"
           d="m 156.5,300.05883 c -1.65,-1.08525 -4.125,-2.75575 -5.5,-3.71223 -2.48272,-1.72702 -2.48791,-1.72491 -0.75,0.30567 5.60748,6.55181 -10.84712,1.05785 -22.75,-7.5959 -2.75,-1.99933 -7.77793,-5.30762 -11.17318,-7.35175 -7.17092,-4.3173 -15.25122,-12.74111 -18.109082,-18.87894 -1.09764,-2.3574 -3.620665,-7.73853 -5.606723,-11.95805 C 90.624957,246.6481 89,242.54055 89,241.73975 c 0,-0.8008 -0.676307,-3.07464 -1.502905,-5.05297 -1.650388,-3.94993 -2.060857,-6.31333 -3.976734,-22.89729 -0.443285,-3.8371 -0.307658,-5.75 0.407683,-5.75 0.589576,0 1.071956,-0.70155 1.071956,-1.55901 0,-0.85746 -0.442842,-1.28533 -0.984094,-0.95082 -2.699518,1.6684 1.885184,-18.85257 5.71001,-25.55781 1.119288,-1.9622 2.356281,-5.03011 2.748872,-6.81757 0.392592,-1.78746 1.346371,-3.49266 2.119508,-3.78934 C 95.367433,169.06826 96,168.19866 96,167.43251 c 0,-0.76616 0.343292,-1.39302 0.762872,-1.39302 0.419579,0 1.207079,-1.0125 1.75,-2.25 0.54292,-1.2375 1.469271,-2.25 2.058558,-2.25 1.47757,0 4.47422,-3.12101 3.72042,-3.87482 -1.94331,-1.9433 2.94914,-4.30973 7.97852,-3.85913 5.8444,0.52362 8.05626,1.78406 5.72127,3.26028 -0.89477,0.56569 -1.01543,0.94918 -0.30155,0.95836 1.94508,0.025 0.98763,4.66813 -1.48105,7.18222 -1.26002,1.2832 -3.35924,3.68309 -4.66492,5.33309 -1.30569,1.65 -2.70138,2.67338 -3.10155,2.27417 -0.40016,-0.39921 -0.15835,-1.41171 0.53737,-2.25 0.7202,-0.86778 0.82764,-1.52417 0.24949,-1.52417 -0.5585,0 -1.31281,0.77489 -1.67624,1.72198 -0.4992,1.3009 -0.85261,1.41159 -1.44526,0.45266 -0.61505,-0.99518 -1.05984,-0.93751 -2.05951,0.26702 -0.70127,0.84498 -1.57762,1.34932 -1.94744,1.12075 -0.36983,-0.22856 -0.67241,0.45139 -0.67241,1.51101 0,2.2318 5.04837,2.80982 5.90915,0.67658 0.27741,-0.6875 0.53302,0.325 0.56802,2.25 0.0792,4.3546 -0.72862,5.66646 -3.99383,6.48598 -2.541,0.63775 -3.15635,2.69147 -1.5737,5.25224 0.40894,0.66168 0.0169,2.60808 -0.87108,4.32535 -0.88803,1.71726 -1.37225,3.36464 -1.07605,3.66085 0.2962,0.2962 0.0221,1.49188 -0.609093,2.65707 -1.441225,2.66045 -1.16041,6.98604 0.685233,10.55512 0.82243,1.59041 1.2263,4.31852 0.9587,6.47602 -0.28659,2.3106 -0.0864,3.49558 0.52653,3.11676 0.5439,-0.33615 1.24757,0.64472 1.5637,2.17972 8.2419,40.01905 35.68312,61.24466 77.68146,60.08611 16.0138,-0.44174 21.83236,-2.13701 33.73159,-9.82785 5.77694,-3.73382 6.55457,-4.74695 14.80606,-19.29022 0.67939,-1.19743 1.24357,-3.07715 1.25374,-4.17715 0.0102,-1.1 0.85458,-3.37107 1.87648,-5.04682 4.05094,-6.64288 4.48415,-28.54242 0.71607,-36.19827 C 232.1617,204.40959 231,201.54488 231,200.92837 c 0,-1.53752 -6.11411,-9.69562 -10.16993,-13.56981 -3.6198,-3.45769 -14.23784,-8.69811 -19.83007,-9.78693 -5.99888,-1.16798 -7,-1.62091 -7,-3.16691 0,-1.01413 -0.61024,-1.30632 -1.88395,-0.90206 -1.03617,0.32887 -5.42367,1.0119 -9.75,1.51784 C 163.14444,177.26836 150,189.47817 150,205.08516 c 0,1.40488 -0.48925,3.04358 -1.08722,3.64155 -0.78296,0.78296 -0.34404,3.14771 1.5684,8.45 7.03913,19.5162 16.51389,27.02215 33.89915,26.85508 13.32614,-0.12807 22.61305,-6.82336 14.36967,-10.35966 -13.00989,-5.58107 -16.74967,-27.05079 -5.69982,-32.72209 10.52672,-5.40279 21.60222,-4.49889 27.50121,2.24444 5.52232,6.31275 8.52359,21.02474 4.83516,23.7016 -0.4876,0.35388 -1.73069,2.3045 -2.76241,4.33472 -1.03173,2.03022 -2.59412,3.96693 -3.47198,4.3038 -1.16418,0.44674 -1.26959,0.81428 -0.38954,1.35818 2.63483,1.62842 -9.7707,11.98344 -21.78787,18.18656 C 188.60176,259.40138 154,253.63399 154,247.91635 c 0,-0.48227 -0.52434,-0.87686 -1.16521,-0.87686 -2.3808,0 -11.09121,-10.74023 -14.45344,-17.82159 -4.79586,-10.10077 -5.2928,-32.30381 -0.83331,-37.23149 0.8251,-0.91172 1.22719,-2.36907 0.89354,-3.23855 -0.76045,-1.98171 6.36558,-14.07879 10.80053,-18.33485 6.6397,-6.37189 26.18302,-11.29576 38.73623,-9.75946 3.58691,0.43898 6.97166,0.84773 7.52166,0.90833 3.59283,0.3959 8.45614,1.97024 11.16427,3.61406 1.74035,1.05639 3.54035,1.85456 4,1.77371 2.05532,-0.36151 3.24262,0.21778 3.77089,1.83984 0.55507,1.70436 3.16034,3.17003 12.7233,7.15785 2.56216,1.06843 5.03716,2.59029 5.5,3.3819 0.46285,0.79161 2.28964,2.17937 4.05954,3.08391 7.30454,3.7331 13.282,13.72415 13.282,22.20024 0,3.47953 0.51361,5.60747 1.5638,6.47906 1.00188,0.83148 1.47034,2.59233 1.3037,4.90031 -0.14306,1.98136 -0.008,4.03993 0.30091,4.5746 1.5922,2.75902 -2.73219,26.47213 -4.82754,26.47213 -0.84506,0 -1.34276,1.20175 -1.34599,3.25 -0.003,1.7875 -1.11378,5.05 -2.46879,7.25 -1.35502,2.2 -2.47772,4.68711 -2.49488,5.52692 -0.0431,2.10716 -7.83239,12.31884 -10.03292,13.15301 -0.9865,0.37395 -2.09578,1.16879 -2.46506,1.76631 -0.36929,0.59751 -1.07714,0.83564 -1.57301,0.52918 -0.49587,-0.30647 -1.18779,0.58311 -1.53759,1.97683 -3.11059,12.39359 -57.63218,27.65087 -69.92263,19.56709 z m 89.04112,-60.08587 c 0.82906,-1.34144 0.28566,-1.88908 -2.38479,-2.40336 -2.27619,-0.43835 -3.65906,0.84745 -2.65633,2.46989 0.81918,1.32546 4.20847,1.28073 5.04112,-0.0665 z M 239,238.48048 c 0,-0.85746 -0.45734,-1.27637 -1.01631,-0.9309 -0.55897,0.34546 -0.75742,1.04702 -0.44098,1.55901 C 238.39994,240.49564 239,240.237 239,238.48048 Z M 97.065741,191.00431 c 1.832513,-0.98073 2.829035,-5.98543 1.184259,-5.94754 -0.810505,0.0187 -4.424662,3.70007 -5.628019,5.73272 -0.915722,1.5468 1.717119,1.67408 4.44376,0.21482 z m 133.252449,-7.35163 c 0.37864,-0.98672 -0.0476,-1.23519 -1.47754,-0.86126 -1.53776,0.40213 -1.69632,0.72421 -0.67518,1.3715 1.69109,1.07197 1.53101,1.10991 2.15272,-0.51024 z M 216,173.03949 c 0,-0.55 -0.47656,-1 -1.05902,-1 -0.58246,0 -0.7809,0.45 -0.44098,1 0.33992,0.55 0.81648,1 1.05902,1 0.24254,0 0.44098,-0.45 0.44098,-1 z m -110,-4.83333 c 0,-1.30207 -1.18877,-2.16803 -2.15579,-1.57038 -1.03422,0.63918 -0.14245,2.40371 1.21481,2.40371 0.51754,0 0.94098,-0.375 0.94098,-0.83333 z m 9,-8.05968 c 0,-0.49115 -0.73865,-1.17645 -1.64144,-1.52289 -1.37248,-0.52667 -1.43434,-0.38033 -0.37756,0.89301 1.44013,1.73525 2.019,1.91584 2.019,0.62988 z M 58.867554,214.31612 C 57.290236,213.95089 54,204.67612 54,200.59509 c 0,-0.99726 -1.575,-3.55653 -3.5,-5.68728 -1.925,-2.13074 -3.5,-4.29246 -3.5,-4.80381 0,-0.51135 -0.831709,-1.1937 -1.848243,-1.51634 -7.13923,-2.2659 -5.99984,-23.43963 1.627334,-30.24136 3.938835,-3.51256 7.444013,-2.4631 5.28162,1.58133 -1.952718,3.65227 -0.298086,18.33643 2.342024,20.78448 7.169338,6.64779 7.885675,8.51225 7.995453,20.81035 0.102525,11.48551 -0.455019,13.50583 -3.530634,12.79366 z m 178.353356,-55.7275 c -6.55312,-4.82711 -5.16764,-7.5013 3.90409,-7.53547 6.01905,-0.0227 9.79069,1.04249 9.19432,2.59661 -0.48147,1.25466 1.39506,1.94332 4.02443,1.47691 1.58088,-0.28043 0.0375,2.28565 -2.52574,4.19938 -4.16441,3.10918 -9.75874,2.82656 -14.5971,-0.73743 z M 248,154.03949 c 0,-0.55 -0.19844,-1 -0.44098,-1 -0.24254,0 -0.7191,0.45 -1.05902,1 -0.33992,0.55 -0.14148,1 0.44098,1 0.58246,0 1.05902,-0.45 1.05902,-1 z M 74.035435,153.45616 c -0.01949,-2.79583 0.276161,-5.39493 0.657001,-5.77577 0.38084,-0.38084 0.82365,-1.69334 0.984022,-2.91667 0.808474,-6.16707 1.502809,-8.72423 2.368855,-8.72423 0.525078,0 0.954687,0.45 0.954687,1 0,0.55 0.675,1 1.5,1 0.850575,0 1.5,-0.89682 1.5,-2.07142 0,-1.13929 0.675,-2.74643 1.5,-3.57143 1.333333,-1.33334 1.5,-0.9787 1.5,3.19169 0,4.94576 -4.224265,13.34088 -6.75,13.41465 -0.6875,0.0201 -1.265946,1.04901 -1.285435,2.28651 -0.087,5.52437 -2.891264,7.59867 -2.92913,2.16667 z m 46.175135,1.0453 c -1.06534,-1.2079 -1.0219,-1.46197 0.25,-1.46197 0.84669,0 1.53943,-0.43587 1.53943,-0.96861 0,-0.53274 0.675,-0.70959 1.5,-0.39301 0.825,0.31658 1.5,1.0256 1.5,1.5756 0,0.55 -0.65208,0.74977 -1.44907,0.44394 -0.96852,-0.37166 -1.26467,-0.0755 -0.89301,0.89301 0.71387,1.86032 -0.77587,1.80617 -2.44735,-0.089 z m 132.9073,-2.38299 c -1.0827,-0.67395 -0.92216,-1.00632 0.74105,-1.5342 1.16775,-0.37063 2.57721,-0.39327 3.13213,-0.0503 0.55492,0.34296 1.00895,0.057 1.00895,-0.63545 0,-0.96938 0.27222,-0.98679 1.18333,-0.0757 2.04433,2.04432 -3.25005,4.04812 -6.06546,2.29564 z M 112,147.18167 c 0,-1.02776 3.02888,-2.44663 3.72877,-1.74673 0.24339,0.24338 -0.49602,0.94481 -1.64312,1.55872 C 112.93781,147.60796 112,147.6925 112,147.18167 Z m 22.25,-4.86064 c -1.72456,-0.61836 -1.58064,-4.28154 0.16821,-4.28154 2.13875,0 4.58179,1.1047 4.58179,2.07181 0,1.22259 -3.26586,2.74189 -4.75,2.20973 z M 148.21817,129.885 c 0.51903,-1.55711 2.75625,-1.82979 2.83465,-0.34551 0.0291,0.55 -0.69777,1.15548 -1.61517,1.34551 -1.04271,0.21598 -1.49986,-0.15888 -1.21948,-1 z m 68.70112,-2.24826 c 0.89398,-1.07717 0.86437,-1.52305 -0.12755,-1.92105 -0.8657,-0.34736 -0.74985,-0.54434 0.35127,-0.59725 0.90366,-0.0434 1.91616,0.63286 2.25,1.50284 0.88466,2.30537 0.81394,2.41821 -1.51545,2.41821 -1.70784,0 -1.89503,-0.27401 -0.95827,-1.40275 z M 225.5,126.03949 c 0.33992,-0.55 2.27898,-0.96837 4.30902,-0.92971 2.97467,0.0566 3.30284,0.23707 1.69098,0.92971 -2.80808,1.20668 -6.74576,1.20668 -6,0 z M 225,120.6545 c 0,-0.21174 1.14242,-1.13353 2.53871,-2.04841 2.47908,-1.62436 2.50866,-1.61532 1.25945,0.38499 C 227.72197,120.71434 225,121.90644 225,120.6545 Z m -55.39369,-4.03145 c 0.43914,-1.14438 0.007,-1.58356 -1.55834,-1.58356 -1.46666,0 -1.92353,0.4036 -1.41503,1.25 0.54482,0.90685 0.30282,0.88678 -0.88154,-0.0731 -1.75192,-1.41988 -1.24902,-4.53332 0.62181,-3.84964 0.61973,0.22648 1.90491,-0.26576 2.85594,-1.09385 1.47911,-1.28791 1.80822,-1.29958 2.27595,-0.0807 0.81032,2.11164 -0.0177,6.18483 -1.34737,6.62805 -0.70132,0.23378 -0.9191,-0.23904 -0.55142,-1.1972 z m 9.14369,-6.24584 c 0.6875,-0.27741 1.25,-1.14188 1.25,-1.92105 0,-0.77917 0.675,-1.41667 1.5,-1.41667 0.825,0 1.5,0.62686 1.5,1.39302 0,1.40496 -2.17423,2.67384 -4.33179,2.52804 -0.80461,-0.0544 -0.77916,-0.23594 0.0818,-0.58334 z m 5.25,-1.33772 c 0,-0.55 0.45,-1 1,-1 0.55,0 1,0.45 1,1 0,0.55 -0.45,1 -1,1 -0.55,0 -1,-0.45 -1,-1 z m 53.2624,-9.166662 c -0.076,-1.008334 0.0431,-1.833334 0.26457,-1.833334 0.22146,0 0.84419,0.825 1.38383,1.833334 0.70737,1.321732 0.63355,1.833332 -0.26456,1.833332 -0.68516,0 -1.30789,-0.825 -1.38384,-1.833332 z m 4.2376,0.802762 c -2.7908,-3.243417 -3.89434,-4.956535 -2.75,-4.269037 1.21193,0.728102 1.68072,-0.375014 1.32465,-3.117059 -0.0893,-0.6875 0.7574,-1.25 1.88151,-1.25 2.75434,0 2.7308,3.647192 -0.0292,4.523178 -1.97646,0.627304 -1.99227,0.747186 -0.33946,2.573519 0.95346,1.053559 1.54882,2.092419 1.32303,2.308579 -0.2258,0.21615 -0.86054,-0.12998 -1.41054,-0.76918 z M 224.31433,62.793978 c 0.11044,-2.227838 0.69217,-3.747332 1.43567,-3.75 1.68818,-0.0061 1.58221,3.16409 -0.18567,5.554387 -1.33152,1.80031 -1.4222,1.669411 -1.25,-1.804387 z m -2.47055,-14.504484 c -0.8323,-9.323256 -0.31539,-12.39995 2.01912,-12.017909 1.66466,0.272419 2.8175,3.254019 3.00347,7.767909 0.0813,1.974058 -0.10415,2.184435 -0.88168,1 -0.87528,-1.333333 -1.09288,-1.333333 -1.95836,0 -0.70577,1.087296 -0.55359,1.591772 0.55311,1.833551 1.19852,0.261839 1.27403,0.638082 0.35122,1.75 -1.59564,1.922632 -2.89804,1.781903 -3.08688,-0.333551 z M 214,31.539494 c 0,-0.825 0.45,-1.5 1,-1.5 0.55,0 1,0.675 1,1.5 0,0.825 -0.45,1.5 -1,1.5 -0.55,0 -1,-0.675 -1,-1.5 z"
           id="path3706" />
        <path
           style="fill:#964311"
           d="m 156.5,300.05883 c -1.65,-1.08525 -4.125,-2.75575 -5.5,-3.71223 -2.48272,-1.72702 -2.48791,-1.72491 -0.75,0.30567 5.60748,6.55181 -10.84712,1.05785 -22.75,-7.5959 -2.75,-1.99933 -7.77793,-5.30762 -11.17318,-7.35175 -7.17092,-4.3173 -15.25122,-12.74111 -18.109082,-18.87894 -1.09764,-2.3574 -3.620665,-7.73853 -5.606723,-11.95805 C 90.624957,246.6481 89,242.54055 89,241.73975 c 0,-0.8008 -0.676307,-3.07464 -1.502905,-5.05297 -1.650388,-3.94993 -2.060857,-6.31333 -3.976734,-22.89729 -0.443285,-3.8371 -0.307658,-5.75 0.407683,-5.75 0.589576,0 1.071956,-0.70155 1.071956,-1.55901 0,-0.85746 -0.420133,-1.29936 -0.933629,-0.98201 -0.978,0.60444 -1.244679,-4.66041 -0.393147,-7.76163 0.335088,-1.22036 0.871579,-1.49982 1.660874,-0.86516 1.597526,1.28455 5.289144,-0.25969 6.635714,-2.77578 1.432801,-2.67721 2.060653,-2.6004 5.762952,0.70501 2.805796,2.50501 2.974586,2.98263 1.817885,5.14395 -1.322629,2.47135 -0.814114,6.86531 1.238361,10.7004 0.60599,1.1323 0.89316,3.74084 0.63816,5.79676 -0.28745,2.31761 -0.0879,3.5058 0.52528,3.12686 0.5439,-0.33615 1.24757,0.64472 1.5637,2.17972 8.2419,40.01905 35.68312,61.24466 77.68146,60.08611 16.0138,-0.44174 21.83236,-2.13701 33.73159,-9.82785 5.77694,-3.73382 6.55457,-4.74695 14.80606,-19.29022 0.67939,-1.19743 1.25784,-3.07715 1.28543,-4.17715 0.0276,-1.1 0.7026,-3.125 1.49999,-4.5 l 1.44982,-2.5 -0.23525,3.39119 c -0.25933,3.73834 1.69621,5.39092 2.54381,2.14971 0.84311,-3.22407 3.72094,-2.56613 3.72094,0.8507 0,2.90709 3.64375,5.06465 6.04599,3.57998 1.2902,-0.79739 1.20155,0.89103 -0.20938,3.98769 -0.63987,1.40435 -1.86106,2.43802 -2.71375,2.29705 -0.8527,-0.14097 -1.72243,0.58448 -1.93274,1.61211 -0.22524,1.1006 0.0417,1.60636 0.64948,1.23071 1.55271,-0.95963 -0.49849,5.48833 -2.32789,7.31773 C 238.16276,269.3053 238,269.28984 238,267.8128 c 0,-0.9104 -0.46804,-1.94453 -1.04008,-2.29808 -0.68026,-0.42042 -0.80441,0.29618 -0.35887,2.07136 0.51015,2.03262 0.34396,2.60175 -0.66185,2.26648 -1.43277,-0.47759 -4.9392,2.02958 -4.9392,3.53162 0,0.49511 0.7204,0.30233 1.60088,-0.42841 2.92639,-2.42869 4.52272,-2.03454 2.74547,0.67788 -0.867,1.32321 -2.14452,2.40584 -2.83892,2.40584 -0.6944,0 -1.81863,0.67005 -2.49829,1.48899 -0.67967,0.81895 -1.62157,1.25054 -2.09313,0.95911 -0.47156,-0.29144 -1.14358,0.61043 -1.49338,2.00415 -3.11059,12.39359 -57.63218,27.65087 -69.92263,19.56709 z M 218,279.92146 c 0,-0.55 -0.45,-0.72188 -1,-0.38197 -0.55,0.33992 -1,1.06804 -1,1.61804 0,0.55 0.45,0.72188 1,0.38196 0.55,-0.33991 1,-1.06803 1,-1.61803 z m 7,-4.88197 c 0,-0.55 -0.45,-1 -1,-1 -0.55,0 -1,0.45 -1,1 0,0.55 0.45,1 1,1 0.55,0 1,-0.45 1,-1 z m 0.70932,-5.8075 c 1.49865,-1.20587 3.10928,-2.1925 3.57917,-2.1925 0.4699,0 1.5335,-0.67913 2.36356,-1.50919 0.83005,-0.83005 1.99244,-1.21052 2.58308,-0.84549 0.65601,0.40544 0.7814,0.19046 0.32224,-0.55249 -2.28032,-3.68963 -5.61572,-3.21634 -10.14006,1.43887 -6.1231,6.3002 -5.20856,8.89144 1.29201,3.6608 z M 178.3602,256.58471 C 167.87968,254.65094 154,249.77843 154,248.03298 c 0,-0.41812 -0.90298,-0.99636 -2.00662,-1.28497 -1.25542,-0.3283 -2.23812,-1.68223 -2.625,-3.61663 -0.59963,-2.99813 -2.36331,-4.36688 -2.37335,-1.84189 -0.009,2.33116 -4.98008,-4.7142 -8.59844,-12.18694 -6.73905,-13.91771 -4.71375,-40.86477 2.72231,-36.22088 2.79887,1.74793 3.8811,1.40781 3.8811,-1.21973 0,-1.30766 0.675,-2.93776 1.5,-3.62245 1.65268,-1.3716 1.7848,-1.09524 1.91237,4 0.0714,2.85089 0.43643,3.43994 1.96832,3.17615 1.59825,-0.27521 1.77688,0.10024 1.18941,2.5 -0.38021,1.55312 -0.92244,4.17385 -1.20494,5.82385 -0.99658,5.82063 -1.33522,6.19115 -3.28999,3.59966 C 144.9944,204.38061 143,205.06594 143,208.53949 c 0,1.31009 -0.43035,2.64794 -0.95633,2.97301 -1.31636,0.81356 -0.14072,3.52699 1.52814,3.52699 0.7468,0 1.83949,0.9 2.42819,2 1.5189,2.8381 2.99097,2.47636 3.0521,-0.75 0.0398,-2.1015 0.58318,-1.3351 2.30418,3.25 4.49841,11.9847 11.39895,19.9501 19.30171,22.28026 2.38811,0.70415 4.34201,1.76479 4.34201,2.35699 0,0.5922 -0.675,0.81771 -1.5,0.50113 -1.75154,-0.67213 -1.86273,-0.18466 -0.5271,2.31099 0.5351,0.99984 2.52994,2.10999 4.43298,2.467 2.05013,0.38461 3.64387,1.34888 3.9111,2.36637 0.38869,1.47994 0.46705,1.49269 0.56702,0.0923 0.0742,-1.03918 1.024,-1.625 2.6347,-1.625 2.0448,0 2.30022,0.26327 1.3575,1.39917 -1.85681,2.23732 -0.45015,2.61146 7.00391,1.86287 8.12573,-0.81603 11.2513,-2.44384 9.27192,-4.82885 -0.69987,-0.84329 -1.38606,-2.59852 -1.52488,-3.90052 -0.13881,-1.302 -0.56905,-2.87964 -0.95608,-3.50587 -0.8714,-1.40995 0.85652,-2.54813 4.2523,-2.80101 1.41715,-0.10553 3.96482,-0.77636 5.6615,-1.49074 5.71739,-2.40727 11.14612,1.12795 7.16513,4.66596 -14.47312,12.86265 -25.73011,17.23006 -38.3898,14.89421 z m 31.14145,-10.79522 c 4.34183,-2.81239 4.56629,-4.86314 0.49835,-4.55317 -2.12906,0.16223 -3,0.74747 -3,2.01588 0,0.98301 -0.675,1.78729 -1.5,1.78729 -1.56157,0 -1.98397,1.1827 -0.83333,2.33334 0.93382,0.93382 0.9644,0.92381 4.83498,-1.58334 z m -58.37756,-14.01666 c -0.98762,-0.98027 -1.10248,-0.86541 -0.5598,0.55979 0.37553,0.98622 0.93469,1.54122 1.24258,1.23334 0.30789,-0.30789 6.4e-4,-1.1148 -0.68278,-1.79313 z M 139,211.02404 c 0,-0.42381 -0.675,-1.02959 -1.5,-1.34617 -1.09549,-0.42038 -1.5,0.12313 -1.5,2.01545 0,2.18979 0.23231,2.39827 1.5,1.34617 0.825,-0.68468 1.5,-1.59164 1.5,-2.01545 z m 53.38595,35.57884 c -0.68266,-1.77898 -4.03265,-2.12328 -4.58339,-0.47106 -0.24765,0.74295 -1.47371,0.60912 -3.83333,-0.41843 l -3.46923,-1.51075 5.79966,-0.0816 c 3.18981,-0.0449 7.15124,-0.78051 8.80318,-1.63476 l 3.00352,-1.55318 -1.54607,2.98977 c -1.94268,3.75673 -3.4017,4.69344 -4.17434,2.67998 z m 53.12682,-0.54272 c -1.00009,-1.61818 1.17203,-4.57131 3.49083,-4.74598 1.56545,-0.11792 2.00494,0.26067 1.58201,1.3628 -0.32208,0.83935 -0.58561,2.16428 -0.58561,2.9443 0,1.59858 -3.55557,1.94634 -4.48723,0.43888 z M 235,235.09851 c 0,-2.41456 0.55611,-2.65815 1.34934,-0.59104 0.30982,0.80739 0.13297,1.73394 -0.39301,2.05902 C 235.43035,236.89156 235,236.23097 235,235.09851 Z m -39.34043,-3.11216 c -2.23254,-1.75611 -2.43571,-2.33245 -1.40441,-3.98383 0.98953,-1.58448 0.8901,-2.24634 -0.5545,-3.69094 -1.68032,-1.68032 -1.78675,-1.65887 -2.34414,0.47259 -0.74432,2.84629 -1.99362,2.05963 -3.87324,-2.43893 -2.66432,-6.37663 0.57706,-18.83418 5.5669,-21.3952 10.52672,-5.40279 21.60222,-4.49889 27.50121,2.24444 5.63717,6.44404 8.6991,22.26152 4.57544,23.63607 -0.61976,0.20659 -1.12683,1.01311 -1.12683,1.79228 0,0.77916 -0.48575,1.41666 -1.07946,1.41666 -0.67223,0 -0.83785,-1.10001 -0.43901,-2.91591 1.24136,-5.65188 -6.16894,-9.99668 -10.19065,-5.97497 -0.61001,0.61002 -2.38751,1.23131 -3.95,1.38066 -1.56248,0.14935 -3.6738,0.61581 -4.6918,1.0366 -1.19118,0.49236 -2.17817,0.26756 -2.76901,-0.63066 -0.7559,-1.14917 -1.17969,-1.05282 -2.39907,0.54541 -2.2665,2.97068 -1.92403,6.55887 0.62599,6.55887 1.51045,0 1.93514,0.44784 1.5,1.58179 -0.33385,0.86998 -0.60699,1.76998 -0.60699,2 0,0.99203 -1.92042,0.26865 -4.34043,-1.63493 z m 0.87802,-13.82843 c -0.3832,-1.20733 -0.0263,-2.10065 0.99599,-2.49294 0.87625,-0.33625 1.3506,-1.00387 1.05411,-1.4836 -1.39034,-2.24962 10.86719,-2.28064 12.69519,-0.0321 1.57202,1.93366 2.06493,2.04206 4.16782,0.91663 1.31172,-0.70201 3.55513,-1.27639 4.98536,-1.27639 1.43023,0 2.82292,-0.36002 3.09488,-0.80006 0.69326,-1.12171 -1.74813,-6.20772 -2.45438,-5.11309 -2.14253,3.32067 -4.95213,2.17569 -5.62197,-2.29108 -0.47464,-3.16517 -1.17869,-4.59073 -2.31813,-4.69383 -0.90005,-0.0814 -2.31146,-0.19393 -3.13646,-0.25 -0.825,-0.0561 -1.95,-0.38876 -2.5,-0.73932 -5.24068,-3.34035 -13.95157,1.82619 -13.13413,7.79002 0.58931,4.29955 0.56274,4.34736 -2.41639,4.34736 -1.79248,0 -3.25203,0.62487 -3.6044,1.54313 -0.8082,2.10614 0.54254,3.25363 1.68083,1.42791 1.30525,-2.0935 4.54963,0.14336 4.23588,2.92046 -0.15174,1.34314 0.32646,2.1085 1.31739,2.1085 1.06788,0 1.36836,-0.58991 0.95841,-1.88157 z m 9.50362,13.42544 c -2.35736,-2.5093 -2.27688,-8.42559 0.0947,-6.95988 0.5925,0.36618 2.83154,0.0868 4.97566,-0.6208 4.47761,-1.47775 4.43278,-1.50037 5.32996,2.69061 0.65294,3.05009 0.56821,3.14873 -2.57683,3 -2.45172,-0.11595 -3.53319,0.39705 -4.3948,2.08471 l -1.14285,2.23851 z m 46.21097,-2.04387 c 0.0111,-2.2 0.21589,-2.98225 0.45508,-1.73834 0.23919,1.24392 0.23011,3.04392 -0.0202,4 -0.25029,0.95609 -0.446,-0.0617 -0.4349,-2.26166 z m 0.24782,-7.5 c -0.33992,-0.55 -0.14148,-1 0.44098,-1 0.58246,0 1.05902,0.45 1.05902,1 0,0.55 -0.19844,1 -0.44098,1 -0.24254,0 -0.7191,-0.45 -1.05902,-1 z m -2.16777,-5.5766 c -0.33275,-0.86713 -1.66863,-1.98099 -2.96861,-2.47525 C 246.06363,213.49339 245,212.62786 245,212.06425 c 0,-1.33694 1.69891,-1.32095 2.53001,0.0238 0.44549,0.72082 1.07538,0.69391 2.01521,-0.0861 1.96847,-1.63368 3.45478,-0.30149 3.45478,3.09655 0,3.13526 -1.66204,3.98528 -2.66777,1.36438 z m -11.30946,-0.64201 c -0.0147,-1.11269 -0.55162,-1.51568 -1.52277,-1.14301 -0.89929,0.34509 -1.5,0.007 -1.5,-0.84423 0,-0.78091 -1.125,-3.75185 -2.5,-6.60209 -1.375,-2.85024 -2.5,-5.70448 -2.5,-6.34276 0,-0.63828 -1.14215,-2.65795 -2.53811,-4.48814 -1.65979,-2.17611 -2.00144,-3.12169 -0.98726,-2.73252 2.3178,0.88943 4.85182,-1.53037 3.41526,-3.26131 -1.49474,-1.80106 -3.58357,-1.73711 -4.63511,0.14188 -0.6899,1.23279 -1.47743,0.84717 -4.29969,-2.10533 l -3.45509,-3.61454 4,0.60353 c 2.2,0.33194 5.8,0.68363 8,0.78154 4.37072,0.19452 8.62077,3.18154 5.97266,4.19771 -1.66809,0.64011 -0.9224,6.45941 1.04152,8.12788 2.15888,1.83411 3.88925,7.49657 2.66498,8.72084 -0.81275,0.81276 -0.66774,1.43264 0.54209,2.31729 1.53506,1.12246 1.53422,1.44609 -0.012,4.58479 -0.9547,1.93793 -1.67338,2.64469 -1.68645,1.65847 z M 58.867554,214.31612 C 57.276177,213.94763 54,204.66296 54,200.5215 c 0,-1.03774 -1.424128,-3.35612 -3.164729,-5.15196 -1.740602,-1.79585 -3.238505,-4.26657 -3.328674,-5.4905 -0.09017,-1.22393 -0.803541,-2.39779 -1.585271,-2.60857 -1.12698,-0.30387 -1.110687,-0.16355 0.07867,0.67758 1.6675,1.17928 0.14277,1.49001 -1.600296,0.32613 -4.653618,-3.1073 -4.94729,-27.23469 -0.331493,-27.23469 1.209507,0 1.175206,0.67666 -0.160852,3.17311 -0.790187,1.47647 -0.790187,2.34407 0,3.13425 0.790188,0.79019 1.134803,0.69127 1.244955,-0.35736 0.08377,-0.7975 0.256866,-1.9 0.384651,-2.45 0.127784,-0.55 0.284243,-1.49026 0.347685,-2.08948 0.06344,-0.59922 1.289501,-1.62446 2.724574,-2.27833 2.009135,-0.91542 2.480549,-1.6998 2.049737,-3.41051 -0.533338,-2.11784 -0.493515,-2.13343 0.852029,-0.33354 0.99586,1.33213 1.125166,2.4232 0.439108,3.70511 -0.534824,0.99932 -0.738723,5.09966 -0.453108,9.11186 0.285615,4.01219 0.253135,6.73239 -0.07218,6.04489 -0.808466,-1.70856 -2.913895,-1.57054 -4.459986,0.29239 -0.888072,1.07006 -1.599269,1.22317 -2.322444,0.5 C 42.912346,174.35184 42,174.89539 42,177.65613 c 0,2.17648 0.357831,2.52305 2.12727,2.06033 2.61288,-0.68328 7.165514,2.11767 6.454341,3.97095 -0.607627,1.58346 2.959281,1.90395 3.918389,0.35208 0.339919,-0.55 0.141476,-1 -0.440983,-1 -0.582459,0 -1.059017,-0.66087 -1.059017,-1.46861 0,-2.33811 2.228071,-0.80766 5.898236,4.05144 5.345026,7.07654 5.320586,29.93291 -0.03068,28.6938 z M 50,168.03949 c 0,-0.55 -0.45,-1 -1,-1 -0.55,0 -1,0.45 -1,1 0,0.55 0.45,1 1,1 0.55,0 1,-0.45 1,-1 z m 197.14758,32.75 c 0.41249,-3.19252 -0.73589,-4.55135 -3.41382,-4.03943 -2.66479,0.5094 -6.42266,-4.63866 -3.98376,-5.45754 1.76425,-0.59236 1.55977,-3.25303 -0.25,-3.25303 -1.68674,0 -1.87323,-0.86274 -0.61547,-2.8474 1.15389,-1.82076 5.32206,2.66264 8.6403,9.29375 2.84834,5.69209 3.15064,8.55365 0.9036,8.55365 -1.04924,0 -1.47494,-0.7478 -1.28085,-2.25 z M 85.078947,192.45616 c 0.04798,-1.16494 0.284941,-1.4019 0.604167,-0.60417 0.288871,0.72188 0.253344,1.58438 -0.07895,1.91667 -0.332292,0.33229 -0.568641,-0.25833 -0.52522,-1.3125 z m 65.976583,-0.84975 c -1.22619,-1.47748 2.03167,-6.14639 3.36114,-4.81692 0.32083,0.32084 0.58333,-0.11418 0.58333,-0.9667 0,-0.85252 -1.0125,-1.83471 -2.25,-2.18265 -2.18017,-0.61298 -2.18958,-0.66811 -0.30326,-1.77642 1.46371,-0.86 2.042,-0.85802 2.33067,0.008 0.28915,0.86746 0.91945,0.8652 2.55326,-0.009 1.19313,-0.63855 2.31933,-1.04745 2.50266,-0.90868 0.18334,0.13877 0.58524,4e-4 0.89313,-0.30748 0.30789,-0.30789 -0.17961,-0.84354 -1.08333,-1.19033 C 158.73941,179.10925 158,178.45399 158,177.99989 c 0,-1.67537 3.78337,-1.95395 6.59849,-0.48586 1.59583,0.83223 2.33932,1.51592 1.6522,1.5193 -1.86962,0.009 -12.25069,10.49699 -12.25069,12.3766 0,2.01262 -1.36179,2.10349 -2.94447,0.19648 z m -13.04894,-4.31692 c 0.0244,-2.77835 3.74033,-6.32577 4.31686,-4.12111 0.32607,1.24687 0.10658,2.85296 -0.48775,3.56908 -1.16194,1.40005 -3.83995,1.78614 -3.82911,0.55203 z M 87,186.04096 c 0,-0.61412 1.071838,-3.03642 2.381862,-5.3829 1.310024,-2.34648 2.694645,-5.69041 3.076936,-7.43098 C 93.19622,169.86962 95,167.88665 95,170.43342 c 0,1.65837 -2.089483,6.81044 -3.084734,7.60607 -0.343993,0.275 -1.173482,2.18124 -1.843309,4.23608 C 88.877113,185.94101 87,188.24184 87,186.04096 Z m 11.72557,-1.68632 c -0.260142,-0.44833 -0.382059,-1.94015 -0.270926,-3.31515 C 98.708922,177.89341 103,176.73737 103,179.81496 c 0,2.1059 -3.518394,5.84263 -4.27443,4.53968 z M 222.25,179.37721 c -1.78133,-0.71878 -1.55066,-1.66885 0.75475,-3.10861 1.62842,-1.01696 2.66086,-0.97784 5.5,0.20843 4.0279,1.68297 4.2614,2.12885 1.49387,2.85257 -1.10076,0.28786 -1.7492,0.11534 -1.44098,-0.38336 0.30822,-0.49871 0.0838,-0.90675 -0.49862,-0.90675 -0.58246,0 -1.05902,0.45 -1.05902,1 0,1.03594 -2.56729,1.21847 -4.75,0.33772 z m -24.65044,-3.73656 c 0.29523,-0.76937 0.0561,-1.69593 -0.53139,-2.05902 -1.76345,-1.08987 -1.21717,-2.51712 1.42401,-3.72053 1.934,-0.88119 2.24254,-1.43632 1.37756,-2.47856 -0.8203,-0.98839 -0.81823,-1.34305 0.008,-1.34305 0.61734,0 1.12244,-0.675 1.12244,-1.5 0,-0.825 0.7875,-1.4931 1.75,-1.48468 1.35415,0.0119 1.44517,0.20849 0.40236,0.86936 -1.10017,0.69721 -1.04544,1.10759 0.29801,2.23469 7.23956,6.07372 6.48446,11.24539 -1.34305,9.19845 -1.21396,-0.31746 -2.10732,-0.0777 -2.10732,0.56555 0,0.61415 -0.66088,1.11663 -1.46862,1.11663 -0.84739,0 -1.24155,-0.5917 -0.93182,-1.39884 z m -22.78706,-0.28427 c 0.72187,-0.28887 1.58437,-0.25334 1.91667,0.0789 0.33229,0.33229 -0.25834,0.56864 -1.3125,0.52522 -1.16495,-0.048 -1.4019,-0.28494 -0.60417,-0.60417 z m -7.04405,-1.48534 c 0.5811,-0.5811 1.64682,-0.85979 2.36826,-0.61931 0.74895,0.24965 0.29565,0.70294 -1.05655,1.05655 -1.66335,0.43498 -2.05378,0.30483 -1.31171,-0.43724 z m 16.04405,0.48534 c 0.72187,-0.28887 1.58437,-0.25334 1.91667,0.0789 0.33229,0.33229 -0.25834,0.56864 -1.3125,0.52522 -1.16495,-0.048 -1.4019,-0.28494 -0.60417,-0.60417 z m -28.30542,-3.30543 c -0.35034,-0.56686 0.0511,-0.73451 0.94098,-0.39301 1.73242,0.66479 2.04939,1.38155 0.61096,1.38155 -0.51754,0 -1.21592,-0.44484 -1.55194,-0.98854 z M 111,169.66194 c 0,-0.20766 0.6853,-0.94631 1.52289,-1.64144 1.27335,-1.05679 1.41968,-0.99492 0.89301,0.37755 -0.53789,1.40174 -2.4159,2.38422 -2.4159,1.26389 z m 47.88158,-0.30506 c -0.0651,-0.44956 -0.0651,-1.15489 0,-1.56739 0.0651,-0.4125 -0.33158,-0.75 -0.88158,-0.75 -2.03401,0 -0.91285,-1.79022 1.75,-2.79432 4.11176,-1.55047 10.10667,-2.43669 8.25,-1.21959 -0.825,0.54081 -2.3426,0.99018 -3.37244,0.9986 -1.41009,0.0115 -1.60941,0.33225 -0.80721,1.29885 0.58589,0.70595 0.75349,1.7703 0.37245,2.36522 -0.89558,1.39829 -5.15645,2.73693 -5.31122,1.66863 z m -42.24321,-5.81739 c 0.31659,-0.825 1.03256,-1.5 1.59106,-1.5 0.58531,0 0.48812,0.63541 -0.22943,1.5 -0.68469,0.825 -1.40067,1.5 -1.59106,1.5 -0.19039,0 -0.0872,-0.675 0.22943,-1.5 z m 65.07188,-1.5 c -0.44214,-1.69076 -0.0307,-2 2.66113,-2 1.94665,0 3.84967,0.77728 4.89659,2 1.67493,1.95617 1.61661,2 -2.66113,2 -3.53257,0 -4.47415,-0.38458 -4.89659,-2 z M 45,160.06713 c 0,-1.35556 1.777097,-2.19732 2.425158,-1.14873 0.309845,0.50134 -0.109061,1.16955 -0.930902,1.48492 C 45.672415,160.71869 45,160.56741 45,160.06713 Z m 29.116001,-5.61097 c 0.0638,-2.15417 0.322858,-3.12366 0.575682,-2.15442 0.252825,0.96923 0.92052,1.47743 1.483767,1.12932 0.563248,-0.34811 0.468236,0.43388 -0.211137,1.73776 -1.85947,3.56875 -1.97381,3.52466 -1.848312,-0.71266 z M 235.5,157.03949 c -0.33992,-0.55 -0.14148,-1 0.44098,-1 0.58246,0 1.05902,0.45 1.05902,1 0,0.55 -0.19844,1 -0.44098,1 -0.24254,0 -0.7191,-0.45 -1.05902,-1 z m 6.481,-0.52289 c -1.05678,-1.27334 -0.99492,-1.41968 0.37756,-0.89301 0.90279,0.34644 1.64144,1.03174 1.64144,1.52289 0,1.28596 -0.57887,1.10537 -2.019,-0.62988 z M 77.458881,147.97296 c -0.362533,-0.58659 -0.41903,-1.30665 -0.125548,-1.60013 C 78.049646,145.65652 80,146.91865 80,148.09851 c 0,1.27797 -1.726411,1.19268 -2.541119,-0.12555 z"
           id="path3705" />
        <path
           style="fill:#90380a"
           d="m 157.5,300.82222 c -1.1,-0.63605 -3.33371,-2.40115 -4.9638,-3.92246 -3.21345,-2.999 -4.90293,-3.02797 -2.19674,-0.0377 2.41351,2.6669 2.04762,3.50481 -1.24308,2.84667 -9.15899,-1.8318 -32.02809,-16.20559 -29.79226,-18.72517 0.99742,-1.124 0.91014,-1.13178 -0.52588,-0.0469 -4.4816,3.38582 -17.90525,-10.58599 -23.217311,-24.16539 -0.810724,-2.07248 -1.543058,-4.09748 -1.627408,-4.5 -0.08435,-0.40251 -1.112402,-2.07869 -2.284559,-3.72483 -1.472661,-2.06817 -2.080286,-4.30839 -1.966441,-7.25 0.115321,-2.97974 -0.238556,-4.25702 -1.179429,-4.25702 -1.625247,0 -2.531708,-3.37249 -3.89732,-14.5 -0.337491,-2.75 -0.879384,-7.13969 -1.204205,-9.75488 -0.498339,-4.01219 -0.350463,-4.66274 0.946737,-4.16495 1.224153,0.46975 1.413616,1.64208 0.930058,5.75488 -0.540263,4.59509 -0.435544,5.02342 0.949122,3.8822 1.980547,-1.63235 2.893375,-5.02452 1.571873,-5.84125 -0.632279,-0.39077 -0.503062,-0.94903 0.34388,-1.48568 C 90.261719,209.58747 91,209.87425 91,212.03949 c 0,1.1 0.392317,2 0.871816,2 0.479498,0 0.824618,-1.8 0.766931,-4 -0.08765,-3.34268 -0.444543,-4 -2.171815,-4 -5.004369,0 -6.196017,-5.37784 -1.268604,-5.72514 1.756894,-0.12384 3.583657,-0.9208 4.059473,-1.77104 1.16328,-2.07866 2.977953,-0.82197 2.227477,1.54257 -0.327842,1.03294 -0.124742,2.75877 0.451333,3.83517 0.576076,1.07641 0.713505,2.14465 0.305399,2.37388 -0.408105,0.22923 -0.213472,0.29268 0.43252,0.14101 1.628519,-0.38234 4.56546,4.37706 4.9701,8.05422 0.22467,2.04164 0.0445,2.59259 -0.54521,1.66721 -0.69274,-1.08707 -1.02524,-0.92695 -1.557484,0.75 -0.372191,1.17267 -1.096387,2.13212 -1.609324,2.13212 -1.347696,0 -1.148739,-0.92673 0.567388,-2.64285 1.6767,-1.6767 1.97384,-3.35715 0.59362,-3.35715 -0.49851,0 -0.659589,-0.94373 -0.357955,-2.09718 0.49498,-1.8928 0.3494,-1.97289 -1.49384,-0.82176 -1.137495,0.71037 -1.800403,1.9057 -1.496328,2.6981 0.300265,0.78248 -0.07837,1.80854 -0.841421,2.28013 -1.075725,0.66483 -1.11897,1.12582 -0.192521,2.05227 0.860227,0.86023 0.901954,1.74209 0.149,3.149 -1.229832,2.29796 0.630405,5.18112 1.957479,3.03387 0.473469,-0.76609 1.254592,-0.86757 2.196589,-0.28539 1.051517,0.64987 1.806057,0.2842 2.688167,-1.30278 1.21245,-2.18127 1.22674,-2.17578 1.26177,0.48473 0.0195,1.48004 -0.41456,2.9691 -0.96456,3.30901 -1.57182,0.97145 -1.25468,5.81171 0.34068,5.19951 2.26938,-0.87084 3.26609,0.48269 7.21684,9.80049 10.42532,24.58803 33.0298,39.82391 61.19248,41.24496 6.57912,0.33198 10.25221,0.91793 10.25616,1.63613 0.003,0.6154 0.68644,2.42337 1.51789,4.0177 1.776,3.40554 1.16405,4.51203 -1.55596,2.81336 -3.86805,-2.41564 -6.82695,-0.471 -3.83531,2.52064 1.80824,1.80823 0.31851,4.19799 -2.20549,3.53795 -1.5899,-0.41577 -2.06705,-0.19002 -1.73075,0.81887 0.34037,1.02114 2.11096,1.3384 6.63388,1.18871 3.50957,-0.11615 6.16958,0.21919 6.16958,0.7778 0,0.54713 -1.10296,0.70516 -2.49068,0.35687 -1.77311,-0.44503 -2.66824,-0.16241 -3.10699,0.98094 -0.75927,1.97863 -19.59971,2.29847 -22.90233,0.3888 z M 88,222.53949 c 0,-0.825 -0.45,-1.5 -1,-1.5 -0.55,0 -1,0.675 -1,1.5 0,0.825 0.45,1.5 1,1.5 0.55,0 1,-0.675 1,-1.5 z m 5,0.55902 c 0,-0.51754 -0.45,-1.2191 -1,-1.55902 -0.55,-0.33991 -1,0.0835 -1,0.94099 0,0.85746 0.45,1.55901 1,1.55901 0.55,0 1,-0.42344 1,-0.94098 z m 96.08068,74.5382 c -0.71901,-0.86636 -1.67521,-1.34781 -2.12489,-1.06989 -0.44968,0.27791 -1.06982,0.0972 -1.37811,-0.40163 -0.79911,-1.29299 3.88909,-4.1257 6.82812,-4.1257 1.36189,0 2.75428,-0.45 3.0942,-1 0.82629,-1.33697 1.76191,-1.26019 3.92592,0.32218 1.71745,1.25583 1.68377,1.45642 -0.67119,3.99746 -3.10941,3.35512 -7.85293,4.47189 -9.67405,2.27758 z M 206,294.16092 c 0,-0.44869 -1.0125,-1.30411 -2.25,-1.90093 -1.79137,-0.86395 -1.89329,-1.09893 -0.5,-1.15282 1.99259,-0.0771 2.25404,-1.16363 0.66287,-2.75481 -1.61342,-1.61342 0.12134,-2.29537 6.5411,-2.57136 4.10541,-0.1765 5.87199,0.16225 6.56308,1.25849 1.23862,1.96475 -1.41137,4 -5.20818,4 -1.73423,0 -2.80887,0.53296 -2.80887,1.39302 0,0.76615 -0.675,1.65203 -1.5,1.96861 -0.825,0.31658 -1.5,0.20849 -1.5,-0.2402 z m -7,-6.62143 c -1.01957,-1.2285 -0.95124,-1.5 0.37756,-1.5 0.89234,0 1.62244,0.675 1.62244,1.5 0,0.825 -0.1699,1.5 -0.37756,1.5 -0.20765,0 -0.93775,-0.675 -1.62244,-1.5 z m -12,-0.0736 c 0,-2.05008 2.34776,-5.42643 3.7733,-5.42643 1.60312,0 13.15245,-3.851 20.2267,-6.74437 5.72061,-2.33974 3.24187,2.56915 -3.29901,6.53333 -6.10925,3.7026 -6.07406,3.69511 -8.05526,1.71392 -0.82926,-0.82926 -2.23683,-1.21328 -3.15527,-0.86084 -1.3238,0.50799 -1.38919,0.80678 -0.32431,1.48182 0.96281,0.61032 0.72439,0.84978 -0.85713,0.86083 -1.20504,0.008 -2.43589,0.41158 -2.73523,0.89591 C 192.07243,286.73132 187,288.1381 187,287.46592 Z m 43,-12.42643 c 0,-0.55 0.47656,-1 1.05902,-1 0.58246,0 0.7809,0.45 0.44098,1 -0.33992,0.55 -0.81648,1 -1.05902,1 -0.24254,0 -0.44098,-0.45 -0.44098,-1 z m -13.45729,-0.9309 c -0.31644,-0.51199 -0.11799,-1.21355 0.44098,-1.55901 1.19337,-0.73755 3.01631,0.19856 3.01631,1.54893 0,1.21681 -2.70662,1.2247 -3.45729,0.0101 z m 11.31949,-16.735 c -0.67149,-0.80919 -0.32914,-1.36851 1.11898,-1.82812 1.14756,-0.36422 3.03763,-1.63957 4.20014,-2.8341 1.5219,-1.56382 1.95176,-1.70952 1.53537,-0.52041 -0.61413,1.75378 1.58215,2.76302 6.28331,2.88733 l 2.5,0.0661 -2.38621,1.65996 c -2.77948,1.93354 -11.79797,2.32094 -13.25159,0.56923 z M 184.5,257.03949 c -0.35191,-0.5694 0.50929,-1 2,-1 1.49071,0 2.35191,0.4306 2,1 -0.33992,0.55 -1.23992,1 -2,1 -0.76008,0 -1.66008,-0.45 -2,-1 z m -12.05008,-3.08102 c -0.36746,-0.59457 -1.68337,-0.82622 -2.92424,-0.51478 C 166.63061,254.17031 158,251.25651 158,249.55248 c 0,-1.78576 2.51282,-2.60016 3.86148,-1.25151 1.68245,1.68246 2.72651,-0.0903 1.35067,-2.29339 -1.89255,-3.03044 -1.44659,-4.12791 1.53785,-3.78451 1.87619,0.21588 2.84306,0.9667 3.04288,2.36292 0.20365,1.42297 1.83146,2.6417 5.34265,4 5.67054,2.19365 6.12422,2.61304 5.26073,4.86326 -0.68932,1.79634 -4.92659,2.1592 -5.94634,0.50922 z m -4.08829,-2.41898 c -0.31659,-0.825 -1.03256,-1.5 -1.59106,-1.5 -0.58531,0 -0.48812,0.63541 0.22943,1.5 0.68469,0.825 1.40067,1.5 1.59106,1.5 0.19039,0 0.0872,-0.675 -0.22943,-1.5 z m -16.3362,-7.93312 C 151.46144,242.12298 151,240.65387 151,240.34169 c 0,-1.75888 -5.08788,-4.79249 -7.35526,-4.38553 -1.50677,0.27045 -3.75311,-2.19187 -3.23392,-3.54485 0.27601,-0.71927 0.0642,-1.57827 -0.47081,-1.90889 -0.53495,-0.33062 -0.71177,-1.02321 -0.39294,-1.53909 0.31883,-0.51588 -0.1583,-1.22116 -1.06029,-1.56728 -2.17418,-0.83431 -3.74087,-5.0801 -2.61616,-7.08985 0.74705,-1.33491 1.14633,-1.17047 2.62037,1.07921 2.35937,3.60085 4.50901,3.43594 4.50901,-0.34592 0,-2.98409 2.14707,-4.18908 3.51639,-1.97348 0.34893,0.56459 1.16299,0.96127 1.80902,0.88152 3.12701,-0.38603 3.87483,0.15802 3.31009,2.40813 -0.33634,1.34006 0.0633,3.2365 0.94829,4.5 1.32955,1.89819 1.3369,2.18383 0.0563,2.18383 -0.81036,0 -1.62337,-0.41294 -1.80671,-0.91765 -0.52618,-1.44857 -5.83333,-0.0104 -5.83333,1.58074 0,0.78647 1.34715,2.19651 2.99368,3.13342 1.64652,0.93692 2.99652,2.28012 3,2.98488 0.009,1.7761 2.7639,2.6647 4.30259,1.38769 4.16584,-3.45733 4.01627,3.45465 -0.15608,7.2129 -2.0622,1.85753 -2.10266,1.84694 -3.11476,-0.8151 z m 53.43345,-14.63341 c -1.70658,-2.7613 7.43272,-3.98731 9.63833,-1.29295 1.2567,1.53517 1.21061,1.60739 -0.44254,0.69346 -2.05318,-1.13509 -6.65467,-0.59394 -6.65467,0.7826 0,1.23178 -1.74435,1.10609 -2.54112,-0.18311 z m 18.93065,-3.36074 c -0.30123,-0.785 -0.38004,-2.4725 -0.17514,-3.75 0.27408,-1.70876 0.50623,-1.33149 0.87828,1.42727 0.52359,3.88245 0.24656,4.79759 -0.70314,2.32273 z M 190,224.98048 c 0,-0.58246 -0.45,-0.7809 -1,-0.44099 -0.87034,0.53791 -1.47523,-1.49023 -1.11842,-3.75 0.0651,-0.4125 -0.33158,-0.75 -0.88158,-0.75 -0.55,0 -1,-0.45 -1,-1 0,-1.46546 3.9796,-1.22363 4.11402,0.25 0.0627,0.6875 0.26075,2.4875 0.44009,4 0.17933,1.5125 0.12803,2.75 -0.11402,2.75 -0.24205,0 -0.44009,-0.47655 -0.44009,-1.05901 z m 6,-3.94099 c 0,-0.55 0.45,-1 1,-1 0.55,0 1,-0.65916 1,-1.46481 0,-2.40219 3.85053,-3.92432 6.67355,-2.63807 3.423,1.55963 3.88524,1.37783 1.94578,-0.76526 -2.66812,-2.94823 2.59371,-1.59844 5.39569,1.38413 l 2.17298,2.31303 -2.05081,1.09756 c -1.12795,0.60366 -4.5677,0.94643 -7.64389,0.76171 -3.07619,-0.18472 -5.82218,0.0348 -6.10221,0.48793 C 197.67828,222.36907 196,222.24538 196,221.03949 Z m 20,-3.33102 c 0,-1.77685 4.46246,-4.08923 6.43254,-3.33324 2.34863,0.90126 1.89181,2.59045 -0.99764,3.68902 C 217.89818,219.4089 216,219.28465 216,217.70847 Z M 58.844576,214.3117 c -1.825037,-0.42161 -3.301219,-4.72433 -2.220662,-6.4727 0.414326,-0.6704 0.2288,-0.82651 -0.469406,-0.395 -0.64689,0.3998 -1.160512,0.13798 -1.168163,-0.59549 -0.0075,-0.71996 -0.286743,-2.3282 -0.620518,-3.57388 -0.484158,-1.80691 -0.276908,-2.13824 1.024996,-1.63866 1.181509,0.45339 1.469404,0.20286 1.043199,-0.90782 -0.323763,-0.84371 -1.228866,-1.77969 -2.011341,-2.07995 C 53.640207,198.34793 53,197.52139 53,196.81143 c 0,-0.70996 -0.9,-1.8529 -2,-2.53986 -1.1,-0.68696 -1.993109,-1.80771 -1.984687,-2.49055 0.01007,-0.81642 0.347231,-0.72792 0.984687,0.25847 1.84742,2.85868 0.990485,0.0982 -1.035428,-3.33547 -1.119485,-1.89739 -2.919485,-3.68098 -4,-3.96354 -3.157921,-0.82581 -2.264918,-2.44711 1.596133,-2.89787 3.362467,-0.39254 6.149735,1.12674 3.616346,1.9712 C 49.529673,184.0296 49,184.66681 49,185.22982 c 0,0.56301 0.732037,0.74274 1.626748,0.39941 2.366552,-0.90813 4.166493,1.04102 3.616789,3.91661 -0.347246,1.8165 -0.04288,2.49365 1.120834,2.49365 0.878639,0 1.873419,1.09925 2.210622,2.44278 0.373244,1.48712 1.45654,2.56296 2.769052,2.75 2.001121,0.28516 2.152385,0.86379 2.106241,8.05694 -0.05112,7.96963 -0.736748,9.68525 -3.60571,9.02249 z m 187.713064,-1.17895 c -0.30822,-0.4987 0.34022,-0.67122 1.44098,-0.38337 2.33499,0.61062 2.63015,1.29011 0.5604,1.29011 -0.79254,0 -1.69316,-0.40803 -2.00138,-0.90674 z m -57.22302,-3.86529 c -0.86467,-0.55009 -0.78234,-1.38478 0.31907,-3.23469 0.84719,-1.42293 1.23275,-1.6876 0.89813,-0.61653 -0.32248,1.03221 -0.0735,2.49471 0.55337,3.25 1.21757,1.46708 0.15667,1.82732 -1.77057,0.60122 z m -55.25567,-2.8113 c 0.048,-1.16494 0.28494,-1.4019 0.60416,-0.60417 0.28887,0.72188 0.25335,1.58438 -0.0789,1.91667 -0.3323,0.33229 -0.56864,-0.25833 -0.52522,-1.3125 z m 102.41097,-0.43298 c -0.34546,-0.55897 -1.01074,-0.77983 -1.4784,-0.49081 -0.86289,0.5333 -4.01317,-2.07074 -4.00953,-3.3143 0.001,-0.37322 1.30128,-0.76905 2.8893,-0.87963 3.10807,-0.21643 6.78278,2.80136 5.64765,4.63804 -0.83053,1.34384 -2.23406,1.36534 -3.04902,0.0467 z M 83.078947,204.45616 c 0.04798,-1.16494 0.284941,-1.4019 0.604167,-0.60417 0.288871,0.72188 0.253344,1.58438 -0.07895,1.91667 -0.332292,0.33229 -0.568641,-0.25833 -0.52522,-1.3125 z m 57.492483,-1.98809 c -3.7157,-3.7157 -0.61085,-6.91855 5.98604,-6.17499 5.27567,0.59465 5.71296,0.87811 4.84478,3.14054 -1.29758,3.38144 -8.4734,5.39187 -10.83082,3.03445 z m -57.413535,-2.42858 c 0,-1.375 0.226973,-1.9375 0.504386,-1.25 0.277412,0.6875 0.277412,1.8125 0,2.5 -0.277413,0.6875 -0.504386,0.125 -0.504386,-1.25 z M 229,195.51474 c 0,-2.04362 5.05559,-4.00334 6.07451,-2.35468 1.28787,2.08381 -0.18471,3.87943 -3.1815,3.87943 -1.92577,0 -2.89301,-0.50978 -2.89301,-1.52475 z m 16.25,-0.19548 c -1.41971,-0.50704 -1.72151,-3.27977 -0.35699,-3.27977 0.8417,0 2.46859,3.03333 1.88053,3.50623 -0.15045,0.12098 -0.83604,0.0191 -1.52354,-0.22646 z m -14.22104,-6.24071 c -0.80907,-0.51167 -1.21098,-1.19037 -0.89313,-1.50822 0.78775,-0.78775 3.86417,0.46709 3.86417,1.57615 0,1.13979 -1.10118,1.11461 -2.97104,-0.0679 z M 223.75,188.35017 c -1.8038,-0.47138 -2.4659,-2.31068 -0.83179,-2.31068 1.7303,0 4.08179,1.21382 4.08179,2.10699 0,0.93336 -0.36927,0.9565 -3.25,0.20369 z m 16.3649,-0.7036 c -1.3118,-0.72713 -1.93445,-1.60057 -1.38365,-1.94098 0.5508,-0.34041 1.80634,0.27046 2.79009,1.35749 2.07927,2.29756 1.85429,2.3909 -1.40644,0.58349 z M 99.6875,181.39366 c -1.415515,-1.41551 -0.614532,-3.35417 1.38582,-3.35417 1.39797,0 1.96801,0.54305 1.75,1.66714 -0.35694,1.84048 -2.064,2.75885 -3.13582,1.68703 z m 98.55209,-7.34213 c -1.69504,-2.71419 2.1069,-4.69221 8.01041,-4.16756 2.44819,0.21757 2.18111,2.40298 -0.5,4.09116 -3.04607,1.91798 -6.3394,1.95148 -7.51041,0.0764 z M 41.380002,173.58738 C 40.01597,170.03277 46.759372,168.74989 50,171.9475 c 1.331254,1.31358 1.30313,1.40554 -0.25,0.81743 -1.173078,-0.44421 -1.75,-0.17851 -1.75,0.80595 0,1.96902 -5.865135,1.98364 -6.619998,0.0165 z M 161,167.03949 c -0.90129,-0.58246 -1.02463,-0.97548 -0.30902,-0.98468 0.65504,-0.008 1.4691,0.43468 1.80902,0.98468 0.7673,1.24153 0.42112,1.24153 -1.5,0 z"
           id="path3704" />
        <path
           style="fill:#79350e"
           d="m 157.81184,300.994 c -0.92849,-0.54157 -3.03137,-2.32788 -4.67308,-3.96959 C 150.13541,294.02106 148,293.19271 148,295.03102 c 0,0.54534 0.9,1.55359 2,2.24055 1.1,0.68696 2,1.64702 2,2.13347 0,2.76988 -16.17998,-4.33466 -26,-11.41646 -3.575,-2.57814 -8.01396,-5.45955 -9.86436,-6.40313 -4.44626,-2.26729 -11.64718,-8.97565 -15.23984,-14.1974 -3.069647,-4.46158 -5.480695,-9.82807 -4.006084,-8.91671 0.486019,0.30037 1.439759,-0.12391 2.119422,-0.94286 1.715452,-2.06698 3.617972,-1.85944 5.327442,0.58116 1.04293,1.48899 1.58522,1.69954 1.9317,0.75 0.36483,-0.9998 0.77913,-1.04093 1.70737,-0.16949 0.96735,0.90815 0.96286,1.87739 -0.0213,4.59903 -1.43295,3.96278 -0.61719,8.55873 1.6753,9.43844 2.45267,0.94118 6.47255,5.3375 5.83045,6.37644 -0.31798,0.51449 0.12342,0.93543 0.98088,0.93543 0.85746,0 1.55902,0.40598 1.55902,0.90218 0,0.4962 1.39521,1.38855 3.10047,1.983 2.448,0.85338 2.99687,0.81087 2.6082,-0.20199 -1.24387,-3.24147 14.06728,1.51717 17.78622,5.52788 2.17675,2.34752 2.85116,2.54955 5.73595,1.71823 2.40887,-0.69418 3.53231,-0.6025 4.26916,0.34837 1.41952,1.83184 6.06053,1.95679 7.51657,0.20237 1.82958,-2.20451 4.98343,-1.87544 4.98343,0.51996 0,1.45378 -0.66667,2 -2.44098,2 -1.34254,0 -2.67893,0.385 -2.96974,0.85555 -0.29082,0.47055 0.53554,0.65209 1.83634,0.40342 3.18511,-0.60887 9.68133,2.54589 9.34031,4.53594 -0.20641,1.20456 0.7973,1.5878 4.48452,1.71228 2.61274,0.0882 5.05024,0.46018 5.41666,0.8266 1.07063,1.07062 -19.9963,0.70503 -21.85527,-0.37928 z M 129,287.03949 c 0,-0.55 -0.45,-1 -1,-1 -0.55,0 -1,0.45 -1,1 0,0.55 0.45,1 1,1 0.55,0 1,-0.45 1,-1 z m 61.23904,11.42763 c 0.31481,-0.31481 2.07731,-0.75617 3.91667,-0.9808 2.61155,-0.31893 2.90609,-0.20893 1.34429,0.50209 -2.22873,1.01464 -6.15407,1.37182 -5.26096,0.47871 z m 15.9899,-4.61445 c 0.49828,-1.49483 2.77106,-2.31789 2.77106,-1.0035 0,0.53699 -0.7126,1.2498 -1.58356,1.58402 -0.97391,0.37372 -1.43108,0.15023 -1.1875,-0.58052 z M 213,290.03949 c 0,-0.55 0.4132,-1 0.91821,-1 0.50502,0 1.74252,-0.26173 2.75,-0.58163 1.67622,-0.53224 1.66694,-0.44731 -0.10934,1 C 214.33595,291.2691 213,291.48744 213,290.03949 Z m -68.75,-4.64767 c -1.7875,-0.88117 -3.25,-2.17084 -3.25,-2.86594 0,-1.52129 -5.89774,-2.89386 -11.75,-2.73454 -4.65972,0.12685 -4.83043,-0.10331 -3,-4.04468 1.45918,-3.14199 1.67583,-3.18282 6.40424,-1.20717 5.20327,2.17407 7.16608,1.93311 4.07289,-0.5 -1.39842,-1.1 -2.83298,-2 -3.18791,-2 -0.35493,0 -2.27163,-1.10509 -4.25932,-2.45577 -4.03703,-2.74323 -5.84768,-2.47365 -4.18996,0.62382 1.64329,3.07052 -0.18033,4.13244 -3.90537,2.27414 -3.69734,-1.84447 -3.95532,-3.24749 -1.18457,-6.44219 2.75175,-3.17279 2.53773,-4.28617 -1.48434,-7.72174 -1.91639,-1.63693 -3.23977,-3.22081 -2.94086,-3.51972 0.29891,-0.29892 3.79234,2.70538 7.76317,6.67621 5.31182,5.31182 9.42281,8.32238 15.55666,11.39247 6.95321,3.48019 7.83364,4.17278 5.3045,4.17278 -1.66786,0 -3.25944,-0.5625 -3.53685,-1.25 -0.38479,-0.9536 -0.52311,-0.93666 -0.58333,0.0714 -0.12973,2.17144 2.50724,4.09955 4.79022,3.50254 1.47234,-0.38503 2.13083,-0.0955 2.13083,0.93696 0,0.8218 0.675,2.05439 1.5,2.73907 3.9954,3.31589 1.03194,4.95614 -4.25,2.35233 z m 19.25,-2.1113 c -1.65,-0.17136 -3.9,-0.71068 -5,-1.1985 -1.1,-0.48781 -3.125,-1.1274 -4.5,-1.4213 -1.375,-0.2939 -3.4,-1.26565 -4.5,-2.15943 l -2,-1.62507 2,0.70594 c 7.7629,2.74003 16.90986,4.45733 23.74139,4.45733 4.33215,0 7.63943,0.38383 7.3495,0.85295 -0.50334,0.81441 -10.74633,1.047 -17.09089,0.38808 z m 28.58788,-1.21738 c 1.97333,-0.50876 5.82725,-1.80771 8.56428,-2.88654 4.77366,-1.8816 5.02219,-1.8882 6.1003,-0.16187 1.02558,1.64222 0.58257,1.84951 -5.06428,2.36966 -3.4035,0.31351 -7.76318,0.80261 -9.68818,1.0869 l -3.5,0.51688 z m -6.27538,-24.70676 c 0.72187,-0.28887 1.58437,-0.25334 1.91667,0.079 0.33229,0.33229 -0.25834,0.56864 -1.3125,0.52522 -1.16495,-0.048 -1.4019,-0.28494 -0.60417,-0.60417 z m -91.792444,-3.79272 c -0.69572,-0.83829 -0.954203,-1.52417 -0.574407,-1.52417 0.379797,0 -0.181065,-1.2375 -1.246359,-2.75 -3.321184,-4.7154 -3.633389,-7.05027 -0.992794,-7.42474 1.669524,-0.23677 2.198295,-0.86938 1.943554,-2.32526 -0.432164,-2.46986 -2.119302,-3.61932 -4.311936,-2.93775 -1.998418,0.62121 -2.727702,-1.80189 -4.232342,-14.06225 -0.337491,-2.75 -0.886996,-7.19504 -1.221122,-9.87788 -0.377457,-3.03075 -0.242198,-4.65211 0.35719,-4.28167 0.530581,0.32792 1.213333,3.88381 1.517227,7.90199 0.851689,11.26128 4.396239,20.70416 6.102559,16.25756 1.02124,-2.6613 3.548557,-1.60253 6.199791,2.59729 2.079815,3.29464 3.012783,3.98296 4.762543,3.51366 1.19682,-0.321 2.51354,-0.58978 2.92604,-0.59729 0.4125,-0.008 0.7664,-1.25116 0.78644,-2.76366 0.0264,-1.99499 1.05599,-0.38958 3.75,5.84747 2.04246,4.72861 4.38081,9.45361 5.19633,10.5 1.4449,1.85395 1.42805,1.85597 -0.66007,0.0789 -1.17855,-1.00298 -2.41361,-2.90249 -2.74457,-4.22114 C 110.92939,244.90998 107,242.02989 107,244.13917 c 0,0.64352 -0.93266,-0.0156 -2.07258,-1.46482 -2.63771,-3.35331 -3.26537,-3.30942 -6.888306,0.48163 -3.692305,3.86364 -4.478547,6.19391 -3.013493,8.93139 1.390036,2.5973 0.729551,3.56698 -1.005565,1.47629 z M 160.5,251.48872 l -3,-1.46058 3,0.57644 c 1.65,0.31704 3.4275,0.9946 3.95,1.50568 1.40491,1.3742 -0.4504,1.08226 -3.95,-0.62154 z m -24.73084,-27.40556 c -0.69118,-2.46112 -0.27771,-3.88555 0.81164,-2.7962 0.31944,0.31945 0.42272,1.63195 0.2295,2.91667 l -0.35131,2.33586 z m 51.94109,-1.04367 c -0.28766,-1.1 -0.11514,-2 0.38337,-2 0.49851,0 0.90638,0.9 0.90638,2 0,1.1 -0.17252,2 -0.38337,2 -0.21085,0 -0.61872,-0.9 -0.90638,-2 z m -87.61242,-9.14922 c -1.43707,-4.12237 -1.428491,-5.58144 0.0243,-4.12867 1.04931,1.0493 2.29555,7.27789 1.4562,7.27789 -0.21046,0 -0.87667,-1.41715 -1.48047,-3.14922 z m -41.230276,0.42585 c -1.619633,-0.37503 -5.599984,-11.87753 -4.493142,-12.98437 0.290539,-0.29054 0.80277,0.76235 1.138293,2.33975 1.386139,6.51669 5.433957,10.78309 5.398284,5.68979 -0.01087,-1.55199 0.43169,-4.8468 0.983467,-7.3218 0.923641,-4.14299 0.979266,-3.88093 0.701158,3.30323 -0.312693,8.07757 -0.951939,9.61622 -3.72806,8.9734 z M 93,211.03949 c 0,-1.65 0.45,-3 1,-3 0.55,0 1,1.35 1,3 0,1.65 -0.45,3 -1,3 -0.55,0 -1,-1.35 -1,-3 z m 41.07895,-4.58333 c 0.048,-1.16494 0.28494,-1.4019 0.60416,-0.60417 0.28887,0.72188 0.25335,1.58438 -0.0789,1.91667 -0.3323,0.33229 -0.56864,-0.25833 -0.52522,-1.3125 z m -51.000003,-2 c 0.04798,-1.16494 0.284941,-1.4019 0.604167,-0.60417 0.288871,0.72188 0.253344,1.58438 -0.07895,1.91667 -0.332292,0.33229 -0.568641,-0.25833 -0.52522,-1.3125 z M 231.6,203.43949 c -0.35589,-0.92744 -0.42208,-1.91125 -0.14708,-2.18625 0.275,-0.275 0.79119,0.25881 1.14708,1.18625 0.35589,0.92745 0.42208,1.91126 0.14708,2.18626 -0.275,0.275 -0.79119,-0.25881 -1.14708,-1.18626 z m -148.442105,-3.4 c 0,-1.375 0.226973,-1.9375 0.504386,-1.25 0.277412,0.6875 0.277412,1.8125 0,2.5 -0.277413,0.6875 -0.504386,0.125 -0.504386,-1.25 z m 66.887945,-1.08564 c 0.61391,-1.14711 1.31533,-1.88652 1.55872,-1.64313 0.6999,0.6999 -0.71897,3.72877 -1.74673,3.72877 -0.51083,0 -0.42629,-0.93781 0.18801,-2.08564 z"
           id="path3703" />
      </g>
    </g>
  </g>
</svg>
